%TF.GenerationSoftware,KiCad,Pcbnew,8.0.8-8.0.8-0~ubuntu24.04.1*%
%TF.CreationDate,2025-01-20T22:43:51-03:00*%
%TF.ProjectId,Power,506f7765-722e-46b6-9963-61645f706362,rev?*%
%TF.SameCoordinates,Original*%
%TF.FileFunction,Soldermask,Bot*%
%TF.FilePolarity,Negative*%
%FSLAX46Y46*%
G04 Gerber Fmt 4.6, Leading zero omitted, Abs format (unit mm)*
G04 Created by KiCad (PCBNEW 8.0.8-8.0.8-0~ubuntu24.04.1) date 2025-01-20 22:43:51*
%MOMM*%
%LPD*%
G01*
G04 APERTURE LIST*
G04 Aperture macros list*
%AMRoundRect*
0 Rectangle with rounded corners*
0 $1 Rounding radius*
0 $2 $3 $4 $5 $6 $7 $8 $9 X,Y pos of 4 corners*
0 Add a 4 corners polygon primitive as box body*
4,1,4,$2,$3,$4,$5,$6,$7,$8,$9,$2,$3,0*
0 Add four circle primitives for the rounded corners*
1,1,$1+$1,$2,$3*
1,1,$1+$1,$4,$5*
1,1,$1+$1,$6,$7*
1,1,$1+$1,$8,$9*
0 Add four rect primitives between the rounded corners*
20,1,$1+$1,$2,$3,$4,$5,0*
20,1,$1+$1,$4,$5,$6,$7,0*
20,1,$1+$1,$6,$7,$8,$9,0*
20,1,$1+$1,$8,$9,$2,$3,0*%
G04 Aperture macros list end*
%ADD10RoundRect,0.250000X0.750000X-0.600000X0.750000X0.600000X-0.750000X0.600000X-0.750000X-0.600000X0*%
%ADD11O,2.000000X1.700000*%
%ADD12R,2.200000X2.200000*%
%ADD13O,2.200000X2.200000*%
%ADD14RoundRect,0.250001X-1.099999X1.099999X-1.099999X-1.099999X1.099999X-1.099999X1.099999X1.099999X0*%
%ADD15C,2.700000*%
%ADD16RoundRect,0.250001X1.099999X1.099999X-1.099999X1.099999X-1.099999X-1.099999X1.099999X-1.099999X0*%
%ADD17R,1.920000X1.920000*%
%ADD18C,1.920000*%
%ADD19C,1.600000*%
%ADD20R,1.500000X1.050000*%
%ADD21O,1.500000X1.050000*%
%ADD22RoundRect,0.250001X1.099999X-1.099999X1.099999X1.099999X-1.099999X1.099999X-1.099999X-1.099999X0*%
%ADD23C,2.000000*%
%ADD24C,1.400000*%
%ADD25O,1.400000X1.400000*%
G04 APERTURE END LIST*
D10*
%TO.C,PLC_5*%
X113000000Y-97500000D03*
D11*
X113000000Y-95000000D03*
%TD*%
D12*
%TO.C,1N4007*%
X125500000Y-135000000D03*
D13*
X115340000Y-135000000D03*
%TD*%
D14*
%TO.C,J1*%
X140500000Y-112540000D03*
D15*
X140500000Y-116500000D03*
%TD*%
D16*
%TO.C,Accept1*%
X141757500Y-145050000D03*
D15*
X137797500Y-145050000D03*
%TD*%
D17*
%TO.C,MOSFET1*%
X115000000Y-114000000D03*
D18*
X115000000Y-111460000D03*
X115000000Y-108920000D03*
%TD*%
D14*
%TO.C,INA1*%
X140500000Y-126540000D03*
D15*
X140500000Y-130500000D03*
%TD*%
D19*
%TO.C,CO_3V1*%
X125500000Y-63500000D03*
X128000000Y-63500000D03*
%TD*%
D20*
%TO.C,LM1117*%
X138665000Y-65480000D03*
D21*
X138665000Y-66750000D03*
X138665000Y-68020000D03*
%TD*%
D22*
%TO.C,J6*%
X113000000Y-127702500D03*
D15*
X113000000Y-123742500D03*
%TD*%
D16*
%TO.C,J3*%
X125960000Y-145702500D03*
D15*
X122000000Y-145702500D03*
%TD*%
D19*
%TO.C,CI_3V1*%
X127750000Y-70500000D03*
X125250000Y-70500000D03*
%TD*%
D16*
%TO.C,Motor_E1*%
X115257500Y-145702500D03*
D15*
X111297500Y-145702500D03*
%TD*%
D10*
%TO.C,NTRFC_5*%
X112975000Y-85250000D03*
D11*
X112975000Y-82750000D03*
%TD*%
D23*
%TO.C,F1*%
X124050000Y-126202500D03*
X129130000Y-126202500D03*
%TD*%
D10*
%TO.C,PLC_3*%
X113000000Y-68500000D03*
D11*
X113000000Y-66000000D03*
%TD*%
D24*
%TO.C,R1*%
X128095000Y-106500000D03*
D25*
X129995000Y-106500000D03*
%TD*%
D19*
%TO.C,Ruido1*%
X123050000Y-114702500D03*
X125050000Y-114702500D03*
%TD*%
D20*
%TO.C,LM7805*%
X138640000Y-82230000D03*
D21*
X138640000Y-83500000D03*
X138640000Y-84770000D03*
%TD*%
D14*
%TO.C,J2*%
X140550000Y-99242500D03*
D15*
X140550000Y-103202500D03*
%TD*%
D19*
%TO.C,CO_5V1*%
X127975000Y-81750000D03*
X125475000Y-81750000D03*
%TD*%
%TO.C,CI_5V1*%
X128000000Y-89000000D03*
X125500000Y-89000000D03*
%TD*%
M02*
