%TF.GenerationSoftware,KiCad,Pcbnew,8.0.8-8.0.8-0~ubuntu24.04.1*%
%TF.CreationDate,2025-01-20T22:43:42-03:00*%
%TF.ProjectId,Power,506f7765-722e-46b6-9963-61645f706362,rev?*%
%TF.SameCoordinates,Original*%
%TF.FileFunction,Legend,Top*%
%TF.FilePolarity,Positive*%
%FSLAX46Y46*%
G04 Gerber Fmt 4.6, Leading zero omitted, Abs format (unit mm)*
G04 Created by KiCad (PCBNEW 8.0.8-8.0.8-0~ubuntu24.04.1) date 2025-01-20 22:43:42*
%MOMM*%
%LPD*%
G01*
G04 APERTURE LIST*
%ADD10C,0.150000*%
%ADD11C,0.254000*%
%ADD12C,0.120000*%
%ADD13C,0.200000*%
G04 APERTURE END LIST*
D10*
X109904819Y-98273809D02*
X108904819Y-98273809D01*
X108904819Y-98273809D02*
X108904819Y-97892857D01*
X108904819Y-97892857D02*
X108952438Y-97797619D01*
X108952438Y-97797619D02*
X109000057Y-97750000D01*
X109000057Y-97750000D02*
X109095295Y-97702381D01*
X109095295Y-97702381D02*
X109238152Y-97702381D01*
X109238152Y-97702381D02*
X109333390Y-97750000D01*
X109333390Y-97750000D02*
X109381009Y-97797619D01*
X109381009Y-97797619D02*
X109428628Y-97892857D01*
X109428628Y-97892857D02*
X109428628Y-98273809D01*
X109904819Y-96797619D02*
X109904819Y-97273809D01*
X109904819Y-97273809D02*
X108904819Y-97273809D01*
X109809580Y-95892857D02*
X109857200Y-95940476D01*
X109857200Y-95940476D02*
X109904819Y-96083333D01*
X109904819Y-96083333D02*
X109904819Y-96178571D01*
X109904819Y-96178571D02*
X109857200Y-96321428D01*
X109857200Y-96321428D02*
X109761961Y-96416666D01*
X109761961Y-96416666D02*
X109666723Y-96464285D01*
X109666723Y-96464285D02*
X109476247Y-96511904D01*
X109476247Y-96511904D02*
X109333390Y-96511904D01*
X109333390Y-96511904D02*
X109142914Y-96464285D01*
X109142914Y-96464285D02*
X109047676Y-96416666D01*
X109047676Y-96416666D02*
X108952438Y-96321428D01*
X108952438Y-96321428D02*
X108904819Y-96178571D01*
X108904819Y-96178571D02*
X108904819Y-96083333D01*
X108904819Y-96083333D02*
X108952438Y-95940476D01*
X108952438Y-95940476D02*
X109000057Y-95892857D01*
X110000057Y-95702381D02*
X110000057Y-94940476D01*
X108904819Y-94226190D02*
X108904819Y-94702380D01*
X108904819Y-94702380D02*
X109381009Y-94749999D01*
X109381009Y-94749999D02*
X109333390Y-94702380D01*
X109333390Y-94702380D02*
X109285771Y-94607142D01*
X109285771Y-94607142D02*
X109285771Y-94369047D01*
X109285771Y-94369047D02*
X109333390Y-94273809D01*
X109333390Y-94273809D02*
X109381009Y-94226190D01*
X109381009Y-94226190D02*
X109476247Y-94178571D01*
X109476247Y-94178571D02*
X109714342Y-94178571D01*
X109714342Y-94178571D02*
X109809580Y-94226190D01*
X109809580Y-94226190D02*
X109857200Y-94273809D01*
X109857200Y-94273809D02*
X109904819Y-94369047D01*
X109904819Y-94369047D02*
X109904819Y-94607142D01*
X109904819Y-94607142D02*
X109857200Y-94702380D01*
X109857200Y-94702380D02*
X109809580Y-94749999D01*
X116777142Y-137924819D02*
X116205714Y-137924819D01*
X116491428Y-137924819D02*
X116491428Y-136924819D01*
X116491428Y-136924819D02*
X116396190Y-137067676D01*
X116396190Y-137067676D02*
X116300952Y-137162914D01*
X116300952Y-137162914D02*
X116205714Y-137210533D01*
X117205714Y-137924819D02*
X117205714Y-136924819D01*
X117205714Y-136924819D02*
X117777142Y-137924819D01*
X117777142Y-137924819D02*
X117777142Y-136924819D01*
X118681904Y-137258152D02*
X118681904Y-137924819D01*
X118443809Y-136877200D02*
X118205714Y-137591485D01*
X118205714Y-137591485D02*
X118824761Y-137591485D01*
X119396190Y-136924819D02*
X119491428Y-136924819D01*
X119491428Y-136924819D02*
X119586666Y-136972438D01*
X119586666Y-136972438D02*
X119634285Y-137020057D01*
X119634285Y-137020057D02*
X119681904Y-137115295D01*
X119681904Y-137115295D02*
X119729523Y-137305771D01*
X119729523Y-137305771D02*
X119729523Y-137543866D01*
X119729523Y-137543866D02*
X119681904Y-137734342D01*
X119681904Y-137734342D02*
X119634285Y-137829580D01*
X119634285Y-137829580D02*
X119586666Y-137877200D01*
X119586666Y-137877200D02*
X119491428Y-137924819D01*
X119491428Y-137924819D02*
X119396190Y-137924819D01*
X119396190Y-137924819D02*
X119300952Y-137877200D01*
X119300952Y-137877200D02*
X119253333Y-137829580D01*
X119253333Y-137829580D02*
X119205714Y-137734342D01*
X119205714Y-137734342D02*
X119158095Y-137543866D01*
X119158095Y-137543866D02*
X119158095Y-137305771D01*
X119158095Y-137305771D02*
X119205714Y-137115295D01*
X119205714Y-137115295D02*
X119253333Y-137020057D01*
X119253333Y-137020057D02*
X119300952Y-136972438D01*
X119300952Y-136972438D02*
X119396190Y-136924819D01*
X120348571Y-136924819D02*
X120443809Y-136924819D01*
X120443809Y-136924819D02*
X120539047Y-136972438D01*
X120539047Y-136972438D02*
X120586666Y-137020057D01*
X120586666Y-137020057D02*
X120634285Y-137115295D01*
X120634285Y-137115295D02*
X120681904Y-137305771D01*
X120681904Y-137305771D02*
X120681904Y-137543866D01*
X120681904Y-137543866D02*
X120634285Y-137734342D01*
X120634285Y-137734342D02*
X120586666Y-137829580D01*
X120586666Y-137829580D02*
X120539047Y-137877200D01*
X120539047Y-137877200D02*
X120443809Y-137924819D01*
X120443809Y-137924819D02*
X120348571Y-137924819D01*
X120348571Y-137924819D02*
X120253333Y-137877200D01*
X120253333Y-137877200D02*
X120205714Y-137829580D01*
X120205714Y-137829580D02*
X120158095Y-137734342D01*
X120158095Y-137734342D02*
X120110476Y-137543866D01*
X120110476Y-137543866D02*
X120110476Y-137305771D01*
X120110476Y-137305771D02*
X120158095Y-137115295D01*
X120158095Y-137115295D02*
X120205714Y-137020057D01*
X120205714Y-137020057D02*
X120253333Y-136972438D01*
X120253333Y-136972438D02*
X120348571Y-136924819D01*
X121015238Y-136924819D02*
X121681904Y-136924819D01*
X121681904Y-136924819D02*
X121253333Y-137924819D01*
X125238095Y-137554819D02*
X125238095Y-136554819D01*
X125809523Y-137554819D02*
X125380952Y-136983390D01*
X125809523Y-136554819D02*
X125238095Y-137126247D01*
X144854819Y-114853333D02*
X145569104Y-114853333D01*
X145569104Y-114853333D02*
X145711961Y-114900952D01*
X145711961Y-114900952D02*
X145807200Y-114996190D01*
X145807200Y-114996190D02*
X145854819Y-115139047D01*
X145854819Y-115139047D02*
X145854819Y-115234285D01*
X145854819Y-113853333D02*
X145854819Y-114424761D01*
X145854819Y-114139047D02*
X144854819Y-114139047D01*
X144854819Y-114139047D02*
X144997676Y-114234285D01*
X144997676Y-114234285D02*
X145092914Y-114329523D01*
X145092914Y-114329523D02*
X145140533Y-114424761D01*
X137039404Y-150119104D02*
X137515594Y-150119104D01*
X136944166Y-150404819D02*
X137277499Y-149404819D01*
X137277499Y-149404819D02*
X137610832Y-150404819D01*
X138372737Y-150357200D02*
X138277499Y-150404819D01*
X138277499Y-150404819D02*
X138087023Y-150404819D01*
X138087023Y-150404819D02*
X137991785Y-150357200D01*
X137991785Y-150357200D02*
X137944166Y-150309580D01*
X137944166Y-150309580D02*
X137896547Y-150214342D01*
X137896547Y-150214342D02*
X137896547Y-149928628D01*
X137896547Y-149928628D02*
X137944166Y-149833390D01*
X137944166Y-149833390D02*
X137991785Y-149785771D01*
X137991785Y-149785771D02*
X138087023Y-149738152D01*
X138087023Y-149738152D02*
X138277499Y-149738152D01*
X138277499Y-149738152D02*
X138372737Y-149785771D01*
X139229880Y-150357200D02*
X139134642Y-150404819D01*
X139134642Y-150404819D02*
X138944166Y-150404819D01*
X138944166Y-150404819D02*
X138848928Y-150357200D01*
X138848928Y-150357200D02*
X138801309Y-150309580D01*
X138801309Y-150309580D02*
X138753690Y-150214342D01*
X138753690Y-150214342D02*
X138753690Y-149928628D01*
X138753690Y-149928628D02*
X138801309Y-149833390D01*
X138801309Y-149833390D02*
X138848928Y-149785771D01*
X138848928Y-149785771D02*
X138944166Y-149738152D01*
X138944166Y-149738152D02*
X139134642Y-149738152D01*
X139134642Y-149738152D02*
X139229880Y-149785771D01*
X140039404Y-150357200D02*
X139944166Y-150404819D01*
X139944166Y-150404819D02*
X139753690Y-150404819D01*
X139753690Y-150404819D02*
X139658452Y-150357200D01*
X139658452Y-150357200D02*
X139610833Y-150261961D01*
X139610833Y-150261961D02*
X139610833Y-149881009D01*
X139610833Y-149881009D02*
X139658452Y-149785771D01*
X139658452Y-149785771D02*
X139753690Y-149738152D01*
X139753690Y-149738152D02*
X139944166Y-149738152D01*
X139944166Y-149738152D02*
X140039404Y-149785771D01*
X140039404Y-149785771D02*
X140087023Y-149881009D01*
X140087023Y-149881009D02*
X140087023Y-149976247D01*
X140087023Y-149976247D02*
X139610833Y-150071485D01*
X140515595Y-149738152D02*
X140515595Y-150738152D01*
X140515595Y-149785771D02*
X140610833Y-149738152D01*
X140610833Y-149738152D02*
X140801309Y-149738152D01*
X140801309Y-149738152D02*
X140896547Y-149785771D01*
X140896547Y-149785771D02*
X140944166Y-149833390D01*
X140944166Y-149833390D02*
X140991785Y-149928628D01*
X140991785Y-149928628D02*
X140991785Y-150214342D01*
X140991785Y-150214342D02*
X140944166Y-150309580D01*
X140944166Y-150309580D02*
X140896547Y-150357200D01*
X140896547Y-150357200D02*
X140801309Y-150404819D01*
X140801309Y-150404819D02*
X140610833Y-150404819D01*
X140610833Y-150404819D02*
X140515595Y-150357200D01*
X141277500Y-149738152D02*
X141658452Y-149738152D01*
X141420357Y-149404819D02*
X141420357Y-150261961D01*
X141420357Y-150261961D02*
X141467976Y-150357200D01*
X141467976Y-150357200D02*
X141563214Y-150404819D01*
X141563214Y-150404819D02*
X141658452Y-150404819D01*
X142515595Y-150404819D02*
X141944167Y-150404819D01*
X142229881Y-150404819D02*
X142229881Y-149404819D01*
X142229881Y-149404819D02*
X142134643Y-149547676D01*
X142134643Y-149547676D02*
X142039405Y-149642914D01*
X142039405Y-149642914D02*
X141944167Y-149690533D01*
D11*
X111074318Y-115400714D02*
X109804318Y-115400714D01*
X109804318Y-115400714D02*
X110711461Y-114977380D01*
X110711461Y-114977380D02*
X109804318Y-114554047D01*
X109804318Y-114554047D02*
X111074318Y-114554047D01*
X109804318Y-113707380D02*
X109804318Y-113465475D01*
X109804318Y-113465475D02*
X109864794Y-113344523D01*
X109864794Y-113344523D02*
X109985746Y-113223570D01*
X109985746Y-113223570D02*
X110227651Y-113163094D01*
X110227651Y-113163094D02*
X110650984Y-113163094D01*
X110650984Y-113163094D02*
X110892889Y-113223570D01*
X110892889Y-113223570D02*
X111013842Y-113344523D01*
X111013842Y-113344523D02*
X111074318Y-113465475D01*
X111074318Y-113465475D02*
X111074318Y-113707380D01*
X111074318Y-113707380D02*
X111013842Y-113828332D01*
X111013842Y-113828332D02*
X110892889Y-113949285D01*
X110892889Y-113949285D02*
X110650984Y-114009761D01*
X110650984Y-114009761D02*
X110227651Y-114009761D01*
X110227651Y-114009761D02*
X109985746Y-113949285D01*
X109985746Y-113949285D02*
X109864794Y-113828332D01*
X109864794Y-113828332D02*
X109804318Y-113707380D01*
X111013842Y-112679285D02*
X111074318Y-112497856D01*
X111074318Y-112497856D02*
X111074318Y-112195475D01*
X111074318Y-112195475D02*
X111013842Y-112074523D01*
X111013842Y-112074523D02*
X110953365Y-112014047D01*
X110953365Y-112014047D02*
X110832413Y-111953570D01*
X110832413Y-111953570D02*
X110711461Y-111953570D01*
X110711461Y-111953570D02*
X110590508Y-112014047D01*
X110590508Y-112014047D02*
X110530032Y-112074523D01*
X110530032Y-112074523D02*
X110469556Y-112195475D01*
X110469556Y-112195475D02*
X110409080Y-112437380D01*
X110409080Y-112437380D02*
X110348603Y-112558332D01*
X110348603Y-112558332D02*
X110288127Y-112618809D01*
X110288127Y-112618809D02*
X110167175Y-112679285D01*
X110167175Y-112679285D02*
X110046222Y-112679285D01*
X110046222Y-112679285D02*
X109925270Y-112618809D01*
X109925270Y-112618809D02*
X109864794Y-112558332D01*
X109864794Y-112558332D02*
X109804318Y-112437380D01*
X109804318Y-112437380D02*
X109804318Y-112134999D01*
X109804318Y-112134999D02*
X109864794Y-111953570D01*
X110409080Y-110985951D02*
X110409080Y-111409285D01*
X111074318Y-111409285D02*
X109804318Y-111409285D01*
X109804318Y-111409285D02*
X109804318Y-110804523D01*
X110409080Y-110320714D02*
X110409080Y-109897380D01*
X111074318Y-109715952D02*
X111074318Y-110320714D01*
X111074318Y-110320714D02*
X109804318Y-110320714D01*
X109804318Y-110320714D02*
X109804318Y-109715952D01*
X109804318Y-109353094D02*
X109804318Y-108627380D01*
X111074318Y-108990237D02*
X109804318Y-108990237D01*
X111074318Y-107538808D02*
X111074318Y-108264523D01*
X111074318Y-107901666D02*
X109804318Y-107901666D01*
X109804318Y-107901666D02*
X109985746Y-108022618D01*
X109985746Y-108022618D02*
X110106699Y-108143570D01*
X110106699Y-108143570D02*
X110167175Y-108264523D01*
X115574318Y-120077857D02*
X114304318Y-120077857D01*
X115574318Y-118747380D02*
X114969556Y-119170714D01*
X115574318Y-119473095D02*
X114304318Y-119473095D01*
X114304318Y-119473095D02*
X114304318Y-118989285D01*
X114304318Y-118989285D02*
X114364794Y-118868333D01*
X114364794Y-118868333D02*
X114425270Y-118807856D01*
X114425270Y-118807856D02*
X114546222Y-118747380D01*
X114546222Y-118747380D02*
X114727651Y-118747380D01*
X114727651Y-118747380D02*
X114848603Y-118807856D01*
X114848603Y-118807856D02*
X114909080Y-118868333D01*
X114909080Y-118868333D02*
X114969556Y-118989285D01*
X114969556Y-118989285D02*
X114969556Y-119473095D01*
X114909080Y-117779761D02*
X114909080Y-118203095D01*
X115574318Y-118203095D02*
X114304318Y-118203095D01*
X114304318Y-118203095D02*
X114304318Y-117598333D01*
X115574318Y-117054047D02*
X115574318Y-116812143D01*
X115574318Y-116812143D02*
X115513842Y-116691190D01*
X115513842Y-116691190D02*
X115453365Y-116630714D01*
X115453365Y-116630714D02*
X115271937Y-116509762D01*
X115271937Y-116509762D02*
X115030032Y-116449285D01*
X115030032Y-116449285D02*
X114546222Y-116449285D01*
X114546222Y-116449285D02*
X114425270Y-116509762D01*
X114425270Y-116509762D02*
X114364794Y-116570238D01*
X114364794Y-116570238D02*
X114304318Y-116691190D01*
X114304318Y-116691190D02*
X114304318Y-116933095D01*
X114304318Y-116933095D02*
X114364794Y-117054047D01*
X114364794Y-117054047D02*
X114425270Y-117114524D01*
X114425270Y-117114524D02*
X114546222Y-117175000D01*
X114546222Y-117175000D02*
X114848603Y-117175000D01*
X114848603Y-117175000D02*
X114969556Y-117114524D01*
X114969556Y-117114524D02*
X115030032Y-117054047D01*
X115030032Y-117054047D02*
X115090508Y-116933095D01*
X115090508Y-116933095D02*
X115090508Y-116691190D01*
X115090508Y-116691190D02*
X115030032Y-116570238D01*
X115030032Y-116570238D02*
X114969556Y-116509762D01*
X114969556Y-116509762D02*
X114848603Y-116449285D01*
X114304318Y-115300238D02*
X114304318Y-115905000D01*
X114304318Y-115905000D02*
X114909080Y-115965476D01*
X114909080Y-115965476D02*
X114848603Y-115905000D01*
X114848603Y-115905000D02*
X114788127Y-115784047D01*
X114788127Y-115784047D02*
X114788127Y-115481666D01*
X114788127Y-115481666D02*
X114848603Y-115360714D01*
X114848603Y-115360714D02*
X114909080Y-115300238D01*
X114909080Y-115300238D02*
X115030032Y-115239761D01*
X115030032Y-115239761D02*
X115332413Y-115239761D01*
X115332413Y-115239761D02*
X115453365Y-115300238D01*
X115453365Y-115300238D02*
X115513842Y-115360714D01*
X115513842Y-115360714D02*
X115574318Y-115481666D01*
X115574318Y-115481666D02*
X115574318Y-115784047D01*
X115574318Y-115784047D02*
X115513842Y-115905000D01*
X115513842Y-115905000D02*
X115453365Y-115965476D01*
X114727651Y-114151190D02*
X115574318Y-114151190D01*
X114243842Y-114453571D02*
X115150984Y-114755952D01*
X115150984Y-114755952D02*
X115150984Y-113969761D01*
X114304318Y-113244047D02*
X114304318Y-113123094D01*
X114304318Y-113123094D02*
X114364794Y-113002142D01*
X114364794Y-113002142D02*
X114425270Y-112941666D01*
X114425270Y-112941666D02*
X114546222Y-112881190D01*
X114546222Y-112881190D02*
X114788127Y-112820713D01*
X114788127Y-112820713D02*
X115090508Y-112820713D01*
X115090508Y-112820713D02*
X115332413Y-112881190D01*
X115332413Y-112881190D02*
X115453365Y-112941666D01*
X115453365Y-112941666D02*
X115513842Y-113002142D01*
X115513842Y-113002142D02*
X115574318Y-113123094D01*
X115574318Y-113123094D02*
X115574318Y-113244047D01*
X115574318Y-113244047D02*
X115513842Y-113364999D01*
X115513842Y-113364999D02*
X115453365Y-113425475D01*
X115453365Y-113425475D02*
X115332413Y-113485952D01*
X115332413Y-113485952D02*
X115090508Y-113546428D01*
X115090508Y-113546428D02*
X114788127Y-113546428D01*
X114788127Y-113546428D02*
X114546222Y-113485952D01*
X114546222Y-113485952D02*
X114425270Y-113425475D01*
X114425270Y-113425475D02*
X114364794Y-113364999D01*
X114364794Y-113364999D02*
X114304318Y-113244047D01*
X115574318Y-112276428D02*
X114304318Y-112276428D01*
X114304318Y-112276428D02*
X115574318Y-111550713D01*
X115574318Y-111550713D02*
X114304318Y-111550713D01*
X115574318Y-110945952D02*
X114304318Y-110945952D01*
X114304318Y-110945952D02*
X114304318Y-110462142D01*
X114304318Y-110462142D02*
X114364794Y-110341190D01*
X114364794Y-110341190D02*
X114425270Y-110280713D01*
X114425270Y-110280713D02*
X114546222Y-110220237D01*
X114546222Y-110220237D02*
X114727651Y-110220237D01*
X114727651Y-110220237D02*
X114848603Y-110280713D01*
X114848603Y-110280713D02*
X114909080Y-110341190D01*
X114909080Y-110341190D02*
X114969556Y-110462142D01*
X114969556Y-110462142D02*
X114969556Y-110945952D01*
X114909080Y-109252618D02*
X114969556Y-109071190D01*
X114969556Y-109071190D02*
X115030032Y-109010713D01*
X115030032Y-109010713D02*
X115150984Y-108950237D01*
X115150984Y-108950237D02*
X115332413Y-108950237D01*
X115332413Y-108950237D02*
X115453365Y-109010713D01*
X115453365Y-109010713D02*
X115513842Y-109071190D01*
X115513842Y-109071190D02*
X115574318Y-109192142D01*
X115574318Y-109192142D02*
X115574318Y-109675952D01*
X115574318Y-109675952D02*
X114304318Y-109675952D01*
X114304318Y-109675952D02*
X114304318Y-109252618D01*
X114304318Y-109252618D02*
X114364794Y-109131666D01*
X114364794Y-109131666D02*
X114425270Y-109071190D01*
X114425270Y-109071190D02*
X114546222Y-109010713D01*
X114546222Y-109010713D02*
X114667175Y-109010713D01*
X114667175Y-109010713D02*
X114788127Y-109071190D01*
X114788127Y-109071190D02*
X114848603Y-109131666D01*
X114848603Y-109131666D02*
X114909080Y-109252618D01*
X114909080Y-109252618D02*
X114909080Y-109675952D01*
X114909080Y-107982618D02*
X114909080Y-108405952D01*
X115574318Y-108405952D02*
X114304318Y-108405952D01*
X114304318Y-108405952D02*
X114304318Y-107801190D01*
D10*
X145854819Y-129948570D02*
X144854819Y-129948570D01*
X145854819Y-129472380D02*
X144854819Y-129472380D01*
X144854819Y-129472380D02*
X145854819Y-128900952D01*
X145854819Y-128900952D02*
X144854819Y-128900952D01*
X145569104Y-128472380D02*
X145569104Y-127996190D01*
X145854819Y-128567618D02*
X144854819Y-128234285D01*
X144854819Y-128234285D02*
X145854819Y-127900952D01*
X145854819Y-127043809D02*
X145854819Y-127615237D01*
X145854819Y-127329523D02*
X144854819Y-127329523D01*
X144854819Y-127329523D02*
X144997676Y-127424761D01*
X144997676Y-127424761D02*
X145092914Y-127519999D01*
X145092914Y-127519999D02*
X145140533Y-127615237D01*
X125023809Y-61859580D02*
X124976190Y-61907200D01*
X124976190Y-61907200D02*
X124833333Y-61954819D01*
X124833333Y-61954819D02*
X124738095Y-61954819D01*
X124738095Y-61954819D02*
X124595238Y-61907200D01*
X124595238Y-61907200D02*
X124500000Y-61811961D01*
X124500000Y-61811961D02*
X124452381Y-61716723D01*
X124452381Y-61716723D02*
X124404762Y-61526247D01*
X124404762Y-61526247D02*
X124404762Y-61383390D01*
X124404762Y-61383390D02*
X124452381Y-61192914D01*
X124452381Y-61192914D02*
X124500000Y-61097676D01*
X124500000Y-61097676D02*
X124595238Y-61002438D01*
X124595238Y-61002438D02*
X124738095Y-60954819D01*
X124738095Y-60954819D02*
X124833333Y-60954819D01*
X124833333Y-60954819D02*
X124976190Y-61002438D01*
X124976190Y-61002438D02*
X125023809Y-61050057D01*
X125642857Y-60954819D02*
X125833333Y-60954819D01*
X125833333Y-60954819D02*
X125928571Y-61002438D01*
X125928571Y-61002438D02*
X126023809Y-61097676D01*
X126023809Y-61097676D02*
X126071428Y-61288152D01*
X126071428Y-61288152D02*
X126071428Y-61621485D01*
X126071428Y-61621485D02*
X126023809Y-61811961D01*
X126023809Y-61811961D02*
X125928571Y-61907200D01*
X125928571Y-61907200D02*
X125833333Y-61954819D01*
X125833333Y-61954819D02*
X125642857Y-61954819D01*
X125642857Y-61954819D02*
X125547619Y-61907200D01*
X125547619Y-61907200D02*
X125452381Y-61811961D01*
X125452381Y-61811961D02*
X125404762Y-61621485D01*
X125404762Y-61621485D02*
X125404762Y-61288152D01*
X125404762Y-61288152D02*
X125452381Y-61097676D01*
X125452381Y-61097676D02*
X125547619Y-61002438D01*
X125547619Y-61002438D02*
X125642857Y-60954819D01*
X126261905Y-62050057D02*
X127023809Y-62050057D01*
X127166667Y-60954819D02*
X127785714Y-60954819D01*
X127785714Y-60954819D02*
X127452381Y-61335771D01*
X127452381Y-61335771D02*
X127595238Y-61335771D01*
X127595238Y-61335771D02*
X127690476Y-61383390D01*
X127690476Y-61383390D02*
X127738095Y-61431009D01*
X127738095Y-61431009D02*
X127785714Y-61526247D01*
X127785714Y-61526247D02*
X127785714Y-61764342D01*
X127785714Y-61764342D02*
X127738095Y-61859580D01*
X127738095Y-61859580D02*
X127690476Y-61907200D01*
X127690476Y-61907200D02*
X127595238Y-61954819D01*
X127595238Y-61954819D02*
X127309524Y-61954819D01*
X127309524Y-61954819D02*
X127214286Y-61907200D01*
X127214286Y-61907200D02*
X127166667Y-61859580D01*
X128071429Y-60954819D02*
X128404762Y-61954819D01*
X128404762Y-61954819D02*
X128738095Y-60954819D01*
X129595238Y-61954819D02*
X129023810Y-61954819D01*
X129309524Y-61954819D02*
X129309524Y-60954819D01*
X129309524Y-60954819D02*
X129214286Y-61097676D01*
X129214286Y-61097676D02*
X129119048Y-61192914D01*
X129119048Y-61192914D02*
X129023810Y-61240533D01*
X142679819Y-68916666D02*
X142679819Y-69392856D01*
X142679819Y-69392856D02*
X141679819Y-69392856D01*
X142679819Y-68583332D02*
X141679819Y-68583332D01*
X141679819Y-68583332D02*
X142394104Y-68249999D01*
X142394104Y-68249999D02*
X141679819Y-67916666D01*
X141679819Y-67916666D02*
X142679819Y-67916666D01*
X142679819Y-66916666D02*
X142679819Y-67488094D01*
X142679819Y-67202380D02*
X141679819Y-67202380D01*
X141679819Y-67202380D02*
X141822676Y-67297618D01*
X141822676Y-67297618D02*
X141917914Y-67392856D01*
X141917914Y-67392856D02*
X141965533Y-67488094D01*
X142679819Y-65964285D02*
X142679819Y-66535713D01*
X142679819Y-66249999D02*
X141679819Y-66249999D01*
X141679819Y-66249999D02*
X141822676Y-66345237D01*
X141822676Y-66345237D02*
X141917914Y-66440475D01*
X141917914Y-66440475D02*
X141965533Y-66535713D01*
X142679819Y-65011904D02*
X142679819Y-65583332D01*
X142679819Y-65297618D02*
X141679819Y-65297618D01*
X141679819Y-65297618D02*
X141822676Y-65392856D01*
X141822676Y-65392856D02*
X141917914Y-65488094D01*
X141917914Y-65488094D02*
X141965533Y-65583332D01*
X141679819Y-64678570D02*
X141679819Y-64011904D01*
X141679819Y-64011904D02*
X142679819Y-64440475D01*
X107554819Y-126055833D02*
X108269104Y-126055833D01*
X108269104Y-126055833D02*
X108411961Y-126103452D01*
X108411961Y-126103452D02*
X108507200Y-126198690D01*
X108507200Y-126198690D02*
X108554819Y-126341547D01*
X108554819Y-126341547D02*
X108554819Y-126436785D01*
X107554819Y-125151071D02*
X107554819Y-125341547D01*
X107554819Y-125341547D02*
X107602438Y-125436785D01*
X107602438Y-125436785D02*
X107650057Y-125484404D01*
X107650057Y-125484404D02*
X107792914Y-125579642D01*
X107792914Y-125579642D02*
X107983390Y-125627261D01*
X107983390Y-125627261D02*
X108364342Y-125627261D01*
X108364342Y-125627261D02*
X108459580Y-125579642D01*
X108459580Y-125579642D02*
X108507200Y-125532023D01*
X108507200Y-125532023D02*
X108554819Y-125436785D01*
X108554819Y-125436785D02*
X108554819Y-125246309D01*
X108554819Y-125246309D02*
X108507200Y-125151071D01*
X108507200Y-125151071D02*
X108459580Y-125103452D01*
X108459580Y-125103452D02*
X108364342Y-125055833D01*
X108364342Y-125055833D02*
X108126247Y-125055833D01*
X108126247Y-125055833D02*
X108031009Y-125103452D01*
X108031009Y-125103452D02*
X107983390Y-125151071D01*
X107983390Y-125151071D02*
X107935771Y-125246309D01*
X107935771Y-125246309D02*
X107935771Y-125436785D01*
X107935771Y-125436785D02*
X107983390Y-125532023D01*
X107983390Y-125532023D02*
X108031009Y-125579642D01*
X108031009Y-125579642D02*
X108126247Y-125627261D01*
X123666666Y-150057319D02*
X123666666Y-150771604D01*
X123666666Y-150771604D02*
X123619047Y-150914461D01*
X123619047Y-150914461D02*
X123523809Y-151009700D01*
X123523809Y-151009700D02*
X123380952Y-151057319D01*
X123380952Y-151057319D02*
X123285714Y-151057319D01*
X124047619Y-150057319D02*
X124666666Y-150057319D01*
X124666666Y-150057319D02*
X124333333Y-150438271D01*
X124333333Y-150438271D02*
X124476190Y-150438271D01*
X124476190Y-150438271D02*
X124571428Y-150485890D01*
X124571428Y-150485890D02*
X124619047Y-150533509D01*
X124619047Y-150533509D02*
X124666666Y-150628747D01*
X124666666Y-150628747D02*
X124666666Y-150866842D01*
X124666666Y-150866842D02*
X124619047Y-150962080D01*
X124619047Y-150962080D02*
X124571428Y-151009700D01*
X124571428Y-151009700D02*
X124476190Y-151057319D01*
X124476190Y-151057319D02*
X124190476Y-151057319D01*
X124190476Y-151057319D02*
X124095238Y-151009700D01*
X124095238Y-151009700D02*
X124047619Y-150962080D01*
X124809523Y-75259580D02*
X124761904Y-75307200D01*
X124761904Y-75307200D02*
X124619047Y-75354819D01*
X124619047Y-75354819D02*
X124523809Y-75354819D01*
X124523809Y-75354819D02*
X124380952Y-75307200D01*
X124380952Y-75307200D02*
X124285714Y-75211961D01*
X124285714Y-75211961D02*
X124238095Y-75116723D01*
X124238095Y-75116723D02*
X124190476Y-74926247D01*
X124190476Y-74926247D02*
X124190476Y-74783390D01*
X124190476Y-74783390D02*
X124238095Y-74592914D01*
X124238095Y-74592914D02*
X124285714Y-74497676D01*
X124285714Y-74497676D02*
X124380952Y-74402438D01*
X124380952Y-74402438D02*
X124523809Y-74354819D01*
X124523809Y-74354819D02*
X124619047Y-74354819D01*
X124619047Y-74354819D02*
X124761904Y-74402438D01*
X124761904Y-74402438D02*
X124809523Y-74450057D01*
X125238095Y-75354819D02*
X125238095Y-74354819D01*
X125476190Y-75450057D02*
X126238094Y-75450057D01*
X126380952Y-74354819D02*
X126999999Y-74354819D01*
X126999999Y-74354819D02*
X126666666Y-74735771D01*
X126666666Y-74735771D02*
X126809523Y-74735771D01*
X126809523Y-74735771D02*
X126904761Y-74783390D01*
X126904761Y-74783390D02*
X126952380Y-74831009D01*
X126952380Y-74831009D02*
X126999999Y-74926247D01*
X126999999Y-74926247D02*
X126999999Y-75164342D01*
X126999999Y-75164342D02*
X126952380Y-75259580D01*
X126952380Y-75259580D02*
X126904761Y-75307200D01*
X126904761Y-75307200D02*
X126809523Y-75354819D01*
X126809523Y-75354819D02*
X126523809Y-75354819D01*
X126523809Y-75354819D02*
X126428571Y-75307200D01*
X126428571Y-75307200D02*
X126380952Y-75259580D01*
X127285714Y-74354819D02*
X127619047Y-75354819D01*
X127619047Y-75354819D02*
X127952380Y-74354819D01*
X128809523Y-75354819D02*
X128238095Y-75354819D01*
X128523809Y-75354819D02*
X128523809Y-74354819D01*
X128523809Y-74354819D02*
X128428571Y-74497676D01*
X128428571Y-74497676D02*
X128333333Y-74592914D01*
X128333333Y-74592914D02*
X128238095Y-74640533D01*
X110134642Y-151057319D02*
X110134642Y-150057319D01*
X110134642Y-150057319D02*
X110467975Y-150771604D01*
X110467975Y-150771604D02*
X110801308Y-150057319D01*
X110801308Y-150057319D02*
X110801308Y-151057319D01*
X111420356Y-151057319D02*
X111325118Y-151009700D01*
X111325118Y-151009700D02*
X111277499Y-150962080D01*
X111277499Y-150962080D02*
X111229880Y-150866842D01*
X111229880Y-150866842D02*
X111229880Y-150581128D01*
X111229880Y-150581128D02*
X111277499Y-150485890D01*
X111277499Y-150485890D02*
X111325118Y-150438271D01*
X111325118Y-150438271D02*
X111420356Y-150390652D01*
X111420356Y-150390652D02*
X111563213Y-150390652D01*
X111563213Y-150390652D02*
X111658451Y-150438271D01*
X111658451Y-150438271D02*
X111706070Y-150485890D01*
X111706070Y-150485890D02*
X111753689Y-150581128D01*
X111753689Y-150581128D02*
X111753689Y-150866842D01*
X111753689Y-150866842D02*
X111706070Y-150962080D01*
X111706070Y-150962080D02*
X111658451Y-151009700D01*
X111658451Y-151009700D02*
X111563213Y-151057319D01*
X111563213Y-151057319D02*
X111420356Y-151057319D01*
X112039404Y-150390652D02*
X112420356Y-150390652D01*
X112182261Y-150057319D02*
X112182261Y-150914461D01*
X112182261Y-150914461D02*
X112229880Y-151009700D01*
X112229880Y-151009700D02*
X112325118Y-151057319D01*
X112325118Y-151057319D02*
X112420356Y-151057319D01*
X112896547Y-151057319D02*
X112801309Y-151009700D01*
X112801309Y-151009700D02*
X112753690Y-150962080D01*
X112753690Y-150962080D02*
X112706071Y-150866842D01*
X112706071Y-150866842D02*
X112706071Y-150581128D01*
X112706071Y-150581128D02*
X112753690Y-150485890D01*
X112753690Y-150485890D02*
X112801309Y-150438271D01*
X112801309Y-150438271D02*
X112896547Y-150390652D01*
X112896547Y-150390652D02*
X113039404Y-150390652D01*
X113039404Y-150390652D02*
X113134642Y-150438271D01*
X113134642Y-150438271D02*
X113182261Y-150485890D01*
X113182261Y-150485890D02*
X113229880Y-150581128D01*
X113229880Y-150581128D02*
X113229880Y-150866842D01*
X113229880Y-150866842D02*
X113182261Y-150962080D01*
X113182261Y-150962080D02*
X113134642Y-151009700D01*
X113134642Y-151009700D02*
X113039404Y-151057319D01*
X113039404Y-151057319D02*
X112896547Y-151057319D01*
X113658452Y-151057319D02*
X113658452Y-150390652D01*
X113658452Y-150581128D02*
X113706071Y-150485890D01*
X113706071Y-150485890D02*
X113753690Y-150438271D01*
X113753690Y-150438271D02*
X113848928Y-150390652D01*
X113848928Y-150390652D02*
X113944166Y-150390652D01*
X114039405Y-151152557D02*
X114801309Y-151152557D01*
X115039405Y-150533509D02*
X115372738Y-150533509D01*
X115515595Y-151057319D02*
X115039405Y-151057319D01*
X115039405Y-151057319D02*
X115039405Y-150057319D01*
X115039405Y-150057319D02*
X115515595Y-150057319D01*
X116467976Y-151057319D02*
X115896548Y-151057319D01*
X116182262Y-151057319D02*
X116182262Y-150057319D01*
X116182262Y-150057319D02*
X116087024Y-150200176D01*
X116087024Y-150200176D02*
X115991786Y-150295414D01*
X115991786Y-150295414D02*
X115896548Y-150343033D01*
X109954819Y-87452380D02*
X108954819Y-87452380D01*
X108954819Y-87452380D02*
X109954819Y-86880952D01*
X109954819Y-86880952D02*
X108954819Y-86880952D01*
X108954819Y-86547618D02*
X108954819Y-85976190D01*
X109954819Y-86261904D02*
X108954819Y-86261904D01*
X109954819Y-85071428D02*
X109478628Y-85404761D01*
X109954819Y-85642856D02*
X108954819Y-85642856D01*
X108954819Y-85642856D02*
X108954819Y-85261904D01*
X108954819Y-85261904D02*
X109002438Y-85166666D01*
X109002438Y-85166666D02*
X109050057Y-85119047D01*
X109050057Y-85119047D02*
X109145295Y-85071428D01*
X109145295Y-85071428D02*
X109288152Y-85071428D01*
X109288152Y-85071428D02*
X109383390Y-85119047D01*
X109383390Y-85119047D02*
X109431009Y-85166666D01*
X109431009Y-85166666D02*
X109478628Y-85261904D01*
X109478628Y-85261904D02*
X109478628Y-85642856D01*
X109431009Y-84309523D02*
X109431009Y-84642856D01*
X109954819Y-84642856D02*
X108954819Y-84642856D01*
X108954819Y-84642856D02*
X108954819Y-84166666D01*
X109859580Y-83214285D02*
X109907200Y-83261904D01*
X109907200Y-83261904D02*
X109954819Y-83404761D01*
X109954819Y-83404761D02*
X109954819Y-83499999D01*
X109954819Y-83499999D02*
X109907200Y-83642856D01*
X109907200Y-83642856D02*
X109811961Y-83738094D01*
X109811961Y-83738094D02*
X109716723Y-83785713D01*
X109716723Y-83785713D02*
X109526247Y-83833332D01*
X109526247Y-83833332D02*
X109383390Y-83833332D01*
X109383390Y-83833332D02*
X109192914Y-83785713D01*
X109192914Y-83785713D02*
X109097676Y-83738094D01*
X109097676Y-83738094D02*
X109002438Y-83642856D01*
X109002438Y-83642856D02*
X108954819Y-83499999D01*
X108954819Y-83499999D02*
X108954819Y-83404761D01*
X108954819Y-83404761D02*
X109002438Y-83261904D01*
X109002438Y-83261904D02*
X109050057Y-83214285D01*
X110050057Y-83023809D02*
X110050057Y-82261904D01*
X108954819Y-81547618D02*
X108954819Y-82023808D01*
X108954819Y-82023808D02*
X109431009Y-82071427D01*
X109431009Y-82071427D02*
X109383390Y-82023808D01*
X109383390Y-82023808D02*
X109335771Y-81928570D01*
X109335771Y-81928570D02*
X109335771Y-81690475D01*
X109335771Y-81690475D02*
X109383390Y-81595237D01*
X109383390Y-81595237D02*
X109431009Y-81547618D01*
X109431009Y-81547618D02*
X109526247Y-81499999D01*
X109526247Y-81499999D02*
X109764342Y-81499999D01*
X109764342Y-81499999D02*
X109859580Y-81547618D01*
X109859580Y-81547618D02*
X109907200Y-81595237D01*
X109907200Y-81595237D02*
X109954819Y-81690475D01*
X109954819Y-81690475D02*
X109954819Y-81928570D01*
X109954819Y-81928570D02*
X109907200Y-82023808D01*
X109907200Y-82023808D02*
X109859580Y-82071427D01*
X126666666Y-120931009D02*
X126333333Y-120931009D01*
X126333333Y-121454819D02*
X126333333Y-120454819D01*
X126333333Y-120454819D02*
X126809523Y-120454819D01*
X127714285Y-121454819D02*
X127142857Y-121454819D01*
X127428571Y-121454819D02*
X127428571Y-120454819D01*
X127428571Y-120454819D02*
X127333333Y-120597676D01*
X127333333Y-120597676D02*
X127238095Y-120692914D01*
X127238095Y-120692914D02*
X127142857Y-120740533D01*
X109904819Y-69273809D02*
X108904819Y-69273809D01*
X108904819Y-69273809D02*
X108904819Y-68892857D01*
X108904819Y-68892857D02*
X108952438Y-68797619D01*
X108952438Y-68797619D02*
X109000057Y-68750000D01*
X109000057Y-68750000D02*
X109095295Y-68702381D01*
X109095295Y-68702381D02*
X109238152Y-68702381D01*
X109238152Y-68702381D02*
X109333390Y-68750000D01*
X109333390Y-68750000D02*
X109381009Y-68797619D01*
X109381009Y-68797619D02*
X109428628Y-68892857D01*
X109428628Y-68892857D02*
X109428628Y-69273809D01*
X109904819Y-67797619D02*
X109904819Y-68273809D01*
X109904819Y-68273809D02*
X108904819Y-68273809D01*
X109809580Y-66892857D02*
X109857200Y-66940476D01*
X109857200Y-66940476D02*
X109904819Y-67083333D01*
X109904819Y-67083333D02*
X109904819Y-67178571D01*
X109904819Y-67178571D02*
X109857200Y-67321428D01*
X109857200Y-67321428D02*
X109761961Y-67416666D01*
X109761961Y-67416666D02*
X109666723Y-67464285D01*
X109666723Y-67464285D02*
X109476247Y-67511904D01*
X109476247Y-67511904D02*
X109333390Y-67511904D01*
X109333390Y-67511904D02*
X109142914Y-67464285D01*
X109142914Y-67464285D02*
X109047676Y-67416666D01*
X109047676Y-67416666D02*
X108952438Y-67321428D01*
X108952438Y-67321428D02*
X108904819Y-67178571D01*
X108904819Y-67178571D02*
X108904819Y-67083333D01*
X108904819Y-67083333D02*
X108952438Y-66940476D01*
X108952438Y-66940476D02*
X109000057Y-66892857D01*
X110000057Y-66702381D02*
X110000057Y-65940476D01*
X108904819Y-65797618D02*
X108904819Y-65178571D01*
X108904819Y-65178571D02*
X109285771Y-65511904D01*
X109285771Y-65511904D02*
X109285771Y-65369047D01*
X109285771Y-65369047D02*
X109333390Y-65273809D01*
X109333390Y-65273809D02*
X109381009Y-65226190D01*
X109381009Y-65226190D02*
X109476247Y-65178571D01*
X109476247Y-65178571D02*
X109714342Y-65178571D01*
X109714342Y-65178571D02*
X109809580Y-65226190D01*
X109809580Y-65226190D02*
X109857200Y-65273809D01*
X109857200Y-65273809D02*
X109904819Y-65369047D01*
X109904819Y-65369047D02*
X109904819Y-65654761D01*
X109904819Y-65654761D02*
X109857200Y-65749999D01*
X109857200Y-65749999D02*
X109809580Y-65797618D01*
X128878333Y-105034819D02*
X128545000Y-104558628D01*
X128306905Y-105034819D02*
X128306905Y-104034819D01*
X128306905Y-104034819D02*
X128687857Y-104034819D01*
X128687857Y-104034819D02*
X128783095Y-104082438D01*
X128783095Y-104082438D02*
X128830714Y-104130057D01*
X128830714Y-104130057D02*
X128878333Y-104225295D01*
X128878333Y-104225295D02*
X128878333Y-104368152D01*
X128878333Y-104368152D02*
X128830714Y-104463390D01*
X128830714Y-104463390D02*
X128783095Y-104511009D01*
X128783095Y-104511009D02*
X128687857Y-104558628D01*
X128687857Y-104558628D02*
X128306905Y-104558628D01*
X129830714Y-105034819D02*
X129259286Y-105034819D01*
X129545000Y-105034819D02*
X129545000Y-104034819D01*
X129545000Y-104034819D02*
X129449762Y-104177676D01*
X129449762Y-104177676D02*
X129354524Y-104272914D01*
X129354524Y-104272914D02*
X129259286Y-104320533D01*
X122288095Y-111407319D02*
X121954762Y-110931128D01*
X121716667Y-111407319D02*
X121716667Y-110407319D01*
X121716667Y-110407319D02*
X122097619Y-110407319D01*
X122097619Y-110407319D02*
X122192857Y-110454938D01*
X122192857Y-110454938D02*
X122240476Y-110502557D01*
X122240476Y-110502557D02*
X122288095Y-110597795D01*
X122288095Y-110597795D02*
X122288095Y-110740652D01*
X122288095Y-110740652D02*
X122240476Y-110835890D01*
X122240476Y-110835890D02*
X122192857Y-110883509D01*
X122192857Y-110883509D02*
X122097619Y-110931128D01*
X122097619Y-110931128D02*
X121716667Y-110931128D01*
X123145238Y-110740652D02*
X123145238Y-111407319D01*
X122716667Y-110740652D02*
X122716667Y-111264461D01*
X122716667Y-111264461D02*
X122764286Y-111359700D01*
X122764286Y-111359700D02*
X122859524Y-111407319D01*
X122859524Y-111407319D02*
X123002381Y-111407319D01*
X123002381Y-111407319D02*
X123097619Y-111359700D01*
X123097619Y-111359700D02*
X123145238Y-111312080D01*
X123621429Y-111407319D02*
X123621429Y-110740652D01*
X123621429Y-110407319D02*
X123573810Y-110454938D01*
X123573810Y-110454938D02*
X123621429Y-110502557D01*
X123621429Y-110502557D02*
X123669048Y-110454938D01*
X123669048Y-110454938D02*
X123621429Y-110407319D01*
X123621429Y-110407319D02*
X123621429Y-110502557D01*
X124526190Y-111407319D02*
X124526190Y-110407319D01*
X124526190Y-111359700D02*
X124430952Y-111407319D01*
X124430952Y-111407319D02*
X124240476Y-111407319D01*
X124240476Y-111407319D02*
X124145238Y-111359700D01*
X124145238Y-111359700D02*
X124097619Y-111312080D01*
X124097619Y-111312080D02*
X124050000Y-111216842D01*
X124050000Y-111216842D02*
X124050000Y-110931128D01*
X124050000Y-110931128D02*
X124097619Y-110835890D01*
X124097619Y-110835890D02*
X124145238Y-110788271D01*
X124145238Y-110788271D02*
X124240476Y-110740652D01*
X124240476Y-110740652D02*
X124430952Y-110740652D01*
X124430952Y-110740652D02*
X124526190Y-110788271D01*
X125145238Y-111407319D02*
X125050000Y-111359700D01*
X125050000Y-111359700D02*
X125002381Y-111312080D01*
X125002381Y-111312080D02*
X124954762Y-111216842D01*
X124954762Y-111216842D02*
X124954762Y-110931128D01*
X124954762Y-110931128D02*
X125002381Y-110835890D01*
X125002381Y-110835890D02*
X125050000Y-110788271D01*
X125050000Y-110788271D02*
X125145238Y-110740652D01*
X125145238Y-110740652D02*
X125288095Y-110740652D01*
X125288095Y-110740652D02*
X125383333Y-110788271D01*
X125383333Y-110788271D02*
X125430952Y-110835890D01*
X125430952Y-110835890D02*
X125478571Y-110931128D01*
X125478571Y-110931128D02*
X125478571Y-111216842D01*
X125478571Y-111216842D02*
X125430952Y-111312080D01*
X125430952Y-111312080D02*
X125383333Y-111359700D01*
X125383333Y-111359700D02*
X125288095Y-111407319D01*
X125288095Y-111407319D02*
X125145238Y-111407319D01*
X126430952Y-111407319D02*
X125859524Y-111407319D01*
X126145238Y-111407319D02*
X126145238Y-110407319D01*
X126145238Y-110407319D02*
X126050000Y-110550176D01*
X126050000Y-110550176D02*
X125954762Y-110645414D01*
X125954762Y-110645414D02*
X125859524Y-110693033D01*
X142654819Y-85666666D02*
X142654819Y-86142856D01*
X142654819Y-86142856D02*
X141654819Y-86142856D01*
X142654819Y-85333332D02*
X141654819Y-85333332D01*
X141654819Y-85333332D02*
X142369104Y-84999999D01*
X142369104Y-84999999D02*
X141654819Y-84666666D01*
X141654819Y-84666666D02*
X142654819Y-84666666D01*
X141654819Y-84285713D02*
X141654819Y-83619047D01*
X141654819Y-83619047D02*
X142654819Y-84047618D01*
X142083390Y-83095237D02*
X142035771Y-83190475D01*
X142035771Y-83190475D02*
X141988152Y-83238094D01*
X141988152Y-83238094D02*
X141892914Y-83285713D01*
X141892914Y-83285713D02*
X141845295Y-83285713D01*
X141845295Y-83285713D02*
X141750057Y-83238094D01*
X141750057Y-83238094D02*
X141702438Y-83190475D01*
X141702438Y-83190475D02*
X141654819Y-83095237D01*
X141654819Y-83095237D02*
X141654819Y-82904761D01*
X141654819Y-82904761D02*
X141702438Y-82809523D01*
X141702438Y-82809523D02*
X141750057Y-82761904D01*
X141750057Y-82761904D02*
X141845295Y-82714285D01*
X141845295Y-82714285D02*
X141892914Y-82714285D01*
X141892914Y-82714285D02*
X141988152Y-82761904D01*
X141988152Y-82761904D02*
X142035771Y-82809523D01*
X142035771Y-82809523D02*
X142083390Y-82904761D01*
X142083390Y-82904761D02*
X142083390Y-83095237D01*
X142083390Y-83095237D02*
X142131009Y-83190475D01*
X142131009Y-83190475D02*
X142178628Y-83238094D01*
X142178628Y-83238094D02*
X142273866Y-83285713D01*
X142273866Y-83285713D02*
X142464342Y-83285713D01*
X142464342Y-83285713D02*
X142559580Y-83238094D01*
X142559580Y-83238094D02*
X142607200Y-83190475D01*
X142607200Y-83190475D02*
X142654819Y-83095237D01*
X142654819Y-83095237D02*
X142654819Y-82904761D01*
X142654819Y-82904761D02*
X142607200Y-82809523D01*
X142607200Y-82809523D02*
X142559580Y-82761904D01*
X142559580Y-82761904D02*
X142464342Y-82714285D01*
X142464342Y-82714285D02*
X142273866Y-82714285D01*
X142273866Y-82714285D02*
X142178628Y-82761904D01*
X142178628Y-82761904D02*
X142131009Y-82809523D01*
X142131009Y-82809523D02*
X142083390Y-82904761D01*
X141654819Y-82095237D02*
X141654819Y-81999999D01*
X141654819Y-81999999D02*
X141702438Y-81904761D01*
X141702438Y-81904761D02*
X141750057Y-81857142D01*
X141750057Y-81857142D02*
X141845295Y-81809523D01*
X141845295Y-81809523D02*
X142035771Y-81761904D01*
X142035771Y-81761904D02*
X142273866Y-81761904D01*
X142273866Y-81761904D02*
X142464342Y-81809523D01*
X142464342Y-81809523D02*
X142559580Y-81857142D01*
X142559580Y-81857142D02*
X142607200Y-81904761D01*
X142607200Y-81904761D02*
X142654819Y-81999999D01*
X142654819Y-81999999D02*
X142654819Y-82095237D01*
X142654819Y-82095237D02*
X142607200Y-82190475D01*
X142607200Y-82190475D02*
X142559580Y-82238094D01*
X142559580Y-82238094D02*
X142464342Y-82285713D01*
X142464342Y-82285713D02*
X142273866Y-82333332D01*
X142273866Y-82333332D02*
X142035771Y-82333332D01*
X142035771Y-82333332D02*
X141845295Y-82285713D01*
X141845295Y-82285713D02*
X141750057Y-82238094D01*
X141750057Y-82238094D02*
X141702438Y-82190475D01*
X141702438Y-82190475D02*
X141654819Y-82095237D01*
X141654819Y-80857142D02*
X141654819Y-81333332D01*
X141654819Y-81333332D02*
X142131009Y-81380951D01*
X142131009Y-81380951D02*
X142083390Y-81333332D01*
X142083390Y-81333332D02*
X142035771Y-81238094D01*
X142035771Y-81238094D02*
X142035771Y-80999999D01*
X142035771Y-80999999D02*
X142083390Y-80904761D01*
X142083390Y-80904761D02*
X142131009Y-80857142D01*
X142131009Y-80857142D02*
X142226247Y-80809523D01*
X142226247Y-80809523D02*
X142464342Y-80809523D01*
X142464342Y-80809523D02*
X142559580Y-80857142D01*
X142559580Y-80857142D02*
X142607200Y-80904761D01*
X142607200Y-80904761D02*
X142654819Y-80999999D01*
X142654819Y-80999999D02*
X142654819Y-81238094D01*
X142654819Y-81238094D02*
X142607200Y-81333332D01*
X142607200Y-81333332D02*
X142559580Y-81380951D01*
X144904819Y-101555833D02*
X145619104Y-101555833D01*
X145619104Y-101555833D02*
X145761961Y-101603452D01*
X145761961Y-101603452D02*
X145857200Y-101698690D01*
X145857200Y-101698690D02*
X145904819Y-101841547D01*
X145904819Y-101841547D02*
X145904819Y-101936785D01*
X145000057Y-101127261D02*
X144952438Y-101079642D01*
X144952438Y-101079642D02*
X144904819Y-100984404D01*
X144904819Y-100984404D02*
X144904819Y-100746309D01*
X144904819Y-100746309D02*
X144952438Y-100651071D01*
X144952438Y-100651071D02*
X145000057Y-100603452D01*
X145000057Y-100603452D02*
X145095295Y-100555833D01*
X145095295Y-100555833D02*
X145190533Y-100555833D01*
X145190533Y-100555833D02*
X145333390Y-100603452D01*
X145333390Y-100603452D02*
X145904819Y-101174880D01*
X145904819Y-101174880D02*
X145904819Y-100555833D01*
X124523809Y-80359580D02*
X124476190Y-80407200D01*
X124476190Y-80407200D02*
X124333333Y-80454819D01*
X124333333Y-80454819D02*
X124238095Y-80454819D01*
X124238095Y-80454819D02*
X124095238Y-80407200D01*
X124095238Y-80407200D02*
X124000000Y-80311961D01*
X124000000Y-80311961D02*
X123952381Y-80216723D01*
X123952381Y-80216723D02*
X123904762Y-80026247D01*
X123904762Y-80026247D02*
X123904762Y-79883390D01*
X123904762Y-79883390D02*
X123952381Y-79692914D01*
X123952381Y-79692914D02*
X124000000Y-79597676D01*
X124000000Y-79597676D02*
X124095238Y-79502438D01*
X124095238Y-79502438D02*
X124238095Y-79454819D01*
X124238095Y-79454819D02*
X124333333Y-79454819D01*
X124333333Y-79454819D02*
X124476190Y-79502438D01*
X124476190Y-79502438D02*
X124523809Y-79550057D01*
X125142857Y-79454819D02*
X125333333Y-79454819D01*
X125333333Y-79454819D02*
X125428571Y-79502438D01*
X125428571Y-79502438D02*
X125523809Y-79597676D01*
X125523809Y-79597676D02*
X125571428Y-79788152D01*
X125571428Y-79788152D02*
X125571428Y-80121485D01*
X125571428Y-80121485D02*
X125523809Y-80311961D01*
X125523809Y-80311961D02*
X125428571Y-80407200D01*
X125428571Y-80407200D02*
X125333333Y-80454819D01*
X125333333Y-80454819D02*
X125142857Y-80454819D01*
X125142857Y-80454819D02*
X125047619Y-80407200D01*
X125047619Y-80407200D02*
X124952381Y-80311961D01*
X124952381Y-80311961D02*
X124904762Y-80121485D01*
X124904762Y-80121485D02*
X124904762Y-79788152D01*
X124904762Y-79788152D02*
X124952381Y-79597676D01*
X124952381Y-79597676D02*
X125047619Y-79502438D01*
X125047619Y-79502438D02*
X125142857Y-79454819D01*
X125761905Y-80550057D02*
X126523809Y-80550057D01*
X127238095Y-79454819D02*
X126761905Y-79454819D01*
X126761905Y-79454819D02*
X126714286Y-79931009D01*
X126714286Y-79931009D02*
X126761905Y-79883390D01*
X126761905Y-79883390D02*
X126857143Y-79835771D01*
X126857143Y-79835771D02*
X127095238Y-79835771D01*
X127095238Y-79835771D02*
X127190476Y-79883390D01*
X127190476Y-79883390D02*
X127238095Y-79931009D01*
X127238095Y-79931009D02*
X127285714Y-80026247D01*
X127285714Y-80026247D02*
X127285714Y-80264342D01*
X127285714Y-80264342D02*
X127238095Y-80359580D01*
X127238095Y-80359580D02*
X127190476Y-80407200D01*
X127190476Y-80407200D02*
X127095238Y-80454819D01*
X127095238Y-80454819D02*
X126857143Y-80454819D01*
X126857143Y-80454819D02*
X126761905Y-80407200D01*
X126761905Y-80407200D02*
X126714286Y-80359580D01*
X127571429Y-79454819D02*
X127904762Y-80454819D01*
X127904762Y-80454819D02*
X128238095Y-79454819D01*
X129095238Y-80454819D02*
X128523810Y-80454819D01*
X128809524Y-80454819D02*
X128809524Y-79454819D01*
X128809524Y-79454819D02*
X128714286Y-79597676D01*
X128714286Y-79597676D02*
X128619048Y-79692914D01*
X128619048Y-79692914D02*
X128523810Y-79740533D01*
X125059523Y-93759580D02*
X125011904Y-93807200D01*
X125011904Y-93807200D02*
X124869047Y-93854819D01*
X124869047Y-93854819D02*
X124773809Y-93854819D01*
X124773809Y-93854819D02*
X124630952Y-93807200D01*
X124630952Y-93807200D02*
X124535714Y-93711961D01*
X124535714Y-93711961D02*
X124488095Y-93616723D01*
X124488095Y-93616723D02*
X124440476Y-93426247D01*
X124440476Y-93426247D02*
X124440476Y-93283390D01*
X124440476Y-93283390D02*
X124488095Y-93092914D01*
X124488095Y-93092914D02*
X124535714Y-92997676D01*
X124535714Y-92997676D02*
X124630952Y-92902438D01*
X124630952Y-92902438D02*
X124773809Y-92854819D01*
X124773809Y-92854819D02*
X124869047Y-92854819D01*
X124869047Y-92854819D02*
X125011904Y-92902438D01*
X125011904Y-92902438D02*
X125059523Y-92950057D01*
X125488095Y-93854819D02*
X125488095Y-92854819D01*
X125726190Y-93950057D02*
X126488094Y-93950057D01*
X127202380Y-92854819D02*
X126726190Y-92854819D01*
X126726190Y-92854819D02*
X126678571Y-93331009D01*
X126678571Y-93331009D02*
X126726190Y-93283390D01*
X126726190Y-93283390D02*
X126821428Y-93235771D01*
X126821428Y-93235771D02*
X127059523Y-93235771D01*
X127059523Y-93235771D02*
X127154761Y-93283390D01*
X127154761Y-93283390D02*
X127202380Y-93331009D01*
X127202380Y-93331009D02*
X127249999Y-93426247D01*
X127249999Y-93426247D02*
X127249999Y-93664342D01*
X127249999Y-93664342D02*
X127202380Y-93759580D01*
X127202380Y-93759580D02*
X127154761Y-93807200D01*
X127154761Y-93807200D02*
X127059523Y-93854819D01*
X127059523Y-93854819D02*
X126821428Y-93854819D01*
X126821428Y-93854819D02*
X126726190Y-93807200D01*
X126726190Y-93807200D02*
X126678571Y-93759580D01*
X127535714Y-92854819D02*
X127869047Y-93854819D01*
X127869047Y-93854819D02*
X128202380Y-92854819D01*
X129059523Y-93854819D02*
X128488095Y-93854819D01*
X128773809Y-93854819D02*
X128773809Y-92854819D01*
X128773809Y-92854819D02*
X128678571Y-92997676D01*
X128678571Y-92997676D02*
X128583333Y-93092914D01*
X128583333Y-93092914D02*
X128488095Y-93140533D01*
D12*
%TO.C,PLC_5*%
X110250000Y-99100000D02*
X110250000Y-100350000D01*
X110250000Y-100350000D02*
X111500000Y-100350000D01*
X110540000Y-92440000D02*
X110540000Y-100060000D01*
X110540000Y-100060000D02*
X116510000Y-100060000D01*
X110550000Y-92450000D02*
X110550000Y-94250000D01*
X110550000Y-94250000D02*
X111300000Y-94250000D01*
X110550000Y-95750000D02*
X110550000Y-96750000D01*
X110550000Y-96750000D02*
X111300000Y-96750000D01*
X110550000Y-98250000D02*
X110550000Y-100050000D01*
X110550000Y-100050000D02*
X111300000Y-100050000D01*
X111300000Y-92450000D02*
X110550000Y-92450000D01*
X111300000Y-94250000D02*
X111300000Y-92450000D01*
X111300000Y-95750000D02*
X110550000Y-95750000D01*
X111300000Y-96750000D02*
X111300000Y-95750000D01*
X111300000Y-98250000D02*
X110550000Y-98250000D01*
X111300000Y-100050000D02*
X111300000Y-98250000D01*
X112800000Y-92450000D02*
X112800000Y-93200000D01*
X112800000Y-93200000D02*
X115750000Y-93200000D01*
X112800000Y-99300000D02*
X115750000Y-99300000D01*
X112800000Y-100050000D02*
X112800000Y-99300000D01*
X115750000Y-93200000D02*
X115750000Y-96250000D01*
X115750000Y-99300000D02*
X115750000Y-96250000D01*
X116510000Y-92440000D02*
X110540000Y-92440000D01*
X116510000Y-100060000D02*
X116510000Y-92440000D01*
%TO.C,1N4007*%
X116680000Y-135000000D02*
X117700000Y-135000000D01*
X117700000Y-133530000D02*
X117700000Y-136470000D01*
X117700000Y-136470000D02*
X123140000Y-136470000D01*
X122120000Y-136470000D02*
X122120000Y-133530000D01*
X122240000Y-136470000D02*
X122240000Y-133530000D01*
X122360000Y-136470000D02*
X122360000Y-133530000D01*
X123140000Y-133530000D02*
X117700000Y-133530000D01*
X123140000Y-136470000D02*
X123140000Y-133530000D01*
X124160000Y-135000000D02*
X123140000Y-135000000D01*
%TO.C,J1*%
X135590000Y-110480000D02*
X142610000Y-110480000D01*
X135590000Y-118560000D02*
X135590000Y-110480000D01*
X140200000Y-109680000D02*
X140800000Y-109680000D01*
X140500000Y-110280000D02*
X140200000Y-109680000D01*
X140800000Y-109680000D02*
X140500000Y-110280000D01*
X142610000Y-110480000D02*
X142610000Y-111680000D01*
X142610000Y-111680000D02*
X144310000Y-111680000D01*
X142610000Y-117360000D02*
X142610000Y-118560000D01*
X142610000Y-118560000D02*
X135590000Y-118560000D01*
X144310000Y-111680000D02*
X144310000Y-117360000D01*
X144310000Y-117360000D02*
X142610000Y-117360000D01*
%TO.C,Accept1*%
X135737500Y-140140000D02*
X143817500Y-140140000D01*
X135737500Y-147160000D02*
X135737500Y-140140000D01*
X136937500Y-147160000D02*
X135737500Y-147160000D01*
X136937500Y-148860000D02*
X136937500Y-147160000D01*
X142617500Y-147160000D02*
X142617500Y-148860000D01*
X142617500Y-148860000D02*
X136937500Y-148860000D01*
X143817500Y-140140000D02*
X143817500Y-147160000D01*
X143817500Y-147160000D02*
X142617500Y-147160000D01*
X144017500Y-145050000D02*
X144617500Y-144750000D01*
X144617500Y-144750000D02*
X144617500Y-145350000D01*
X144617500Y-145350000D02*
X144017500Y-145050000D01*
D13*
%TO.C,MOSFET1*%
X111805000Y-106190000D02*
X111805000Y-116730000D01*
X111805000Y-116730000D02*
X115000000Y-116730000D01*
X116495000Y-106190000D02*
X111805000Y-106190000D01*
D12*
%TO.C,INA1*%
X135590000Y-124480000D02*
X142610000Y-124480000D01*
X135590000Y-132560000D02*
X135590000Y-124480000D01*
X140200000Y-123680000D02*
X140800000Y-123680000D01*
X140500000Y-124280000D02*
X140200000Y-123680000D01*
X140800000Y-123680000D02*
X140500000Y-124280000D01*
X142610000Y-124480000D02*
X142610000Y-125680000D01*
X142610000Y-125680000D02*
X144310000Y-125680000D01*
X142610000Y-131360000D02*
X142610000Y-132560000D01*
X142610000Y-132560000D02*
X135590000Y-132560000D01*
X144310000Y-125680000D02*
X144310000Y-131360000D01*
X144310000Y-131360000D02*
X142610000Y-131360000D01*
%TO.C,CO_3V1*%
X126121000Y-62580000D02*
X127379000Y-62580000D01*
X126121000Y-64420000D02*
X127379000Y-64420000D01*
%TO.C,LM1117*%
X136815000Y-64950000D02*
X136815000Y-68550000D01*
X136826522Y-64911522D02*
G75*
G02*
X141265001Y-66750000I1838478J-1838478D01*
G01*
X141265000Y-66750000D02*
G75*
G02*
X136826522Y-68588478I-2600000J0D01*
G01*
%TO.C,J6*%
X109190000Y-122882500D02*
X110890000Y-122882500D01*
X109190000Y-128562500D02*
X109190000Y-122882500D01*
X110890000Y-121682500D02*
X117910000Y-121682500D01*
X110890000Y-122882500D02*
X110890000Y-121682500D01*
X110890000Y-128562500D02*
X109190000Y-128562500D01*
X110890000Y-129762500D02*
X110890000Y-128562500D01*
X112700000Y-130562500D02*
X113000000Y-129962500D01*
X113000000Y-129962500D02*
X113300000Y-130562500D01*
X113300000Y-130562500D02*
X112700000Y-130562500D01*
X117910000Y-121682500D02*
X117910000Y-129762500D01*
X117910000Y-129762500D02*
X110890000Y-129762500D01*
%TO.C,J3*%
X119940000Y-140792500D02*
X128020000Y-140792500D01*
X119940000Y-147812500D02*
X119940000Y-140792500D01*
X121140000Y-147812500D02*
X119940000Y-147812500D01*
X121140000Y-149512500D02*
X121140000Y-147812500D01*
X126820000Y-147812500D02*
X126820000Y-149512500D01*
X126820000Y-149512500D02*
X121140000Y-149512500D01*
X128020000Y-140792500D02*
X128020000Y-147812500D01*
X128020000Y-147812500D02*
X126820000Y-147812500D01*
X128220000Y-145702500D02*
X128820000Y-145402500D01*
X128820000Y-145402500D02*
X128820000Y-146002500D01*
X128820000Y-146002500D02*
X128220000Y-145702500D01*
%TO.C,CI_3V1*%
X129770000Y-70500000D02*
G75*
G02*
X123230000Y-70500000I-3270000J0D01*
G01*
X123230000Y-70500000D02*
G75*
G02*
X129770000Y-70500000I3270000J0D01*
G01*
%TO.C,Motor_E1*%
X109237500Y-140792500D02*
X117317500Y-140792500D01*
X109237500Y-147812500D02*
X109237500Y-140792500D01*
X110437500Y-147812500D02*
X109237500Y-147812500D01*
X110437500Y-149512500D02*
X110437500Y-147812500D01*
X116117500Y-147812500D02*
X116117500Y-149512500D01*
X116117500Y-149512500D02*
X110437500Y-149512500D01*
X117317500Y-140792500D02*
X117317500Y-147812500D01*
X117317500Y-147812500D02*
X116117500Y-147812500D01*
X117517500Y-145702500D02*
X118117500Y-145402500D01*
X118117500Y-145402500D02*
X118117500Y-146002500D01*
X118117500Y-146002500D02*
X117517500Y-145702500D01*
%TO.C,NTRFC_5*%
X110225000Y-86850000D02*
X110225000Y-88100000D01*
X110225000Y-88100000D02*
X111475000Y-88100000D01*
X110515000Y-80190000D02*
X110515000Y-87810000D01*
X110515000Y-87810000D02*
X116485000Y-87810000D01*
X110525000Y-80200000D02*
X110525000Y-82000000D01*
X110525000Y-82000000D02*
X111275000Y-82000000D01*
X110525000Y-83500000D02*
X110525000Y-84500000D01*
X110525000Y-84500000D02*
X111275000Y-84500000D01*
X110525000Y-86000000D02*
X110525000Y-87800000D01*
X110525000Y-87800000D02*
X111275000Y-87800000D01*
X111275000Y-80200000D02*
X110525000Y-80200000D01*
X111275000Y-82000000D02*
X111275000Y-80200000D01*
X111275000Y-83500000D02*
X110525000Y-83500000D01*
X111275000Y-84500000D02*
X111275000Y-83500000D01*
X111275000Y-86000000D02*
X110525000Y-86000000D01*
X111275000Y-87800000D02*
X111275000Y-86000000D01*
X112775000Y-80200000D02*
X112775000Y-80950000D01*
X112775000Y-80950000D02*
X115725000Y-80950000D01*
X112775000Y-87050000D02*
X115725000Y-87050000D01*
X112775000Y-87800000D02*
X112775000Y-87050000D01*
X115725000Y-80950000D02*
X115725000Y-84000000D01*
X115725000Y-87050000D02*
X115725000Y-84000000D01*
X116485000Y-80190000D02*
X110515000Y-80190000D01*
X116485000Y-87810000D02*
X116485000Y-80190000D01*
%TO.C,F1*%
X130950000Y-126202500D02*
G75*
G02*
X122230000Y-126202500I-4360000J0D01*
G01*
X122230000Y-126202500D02*
G75*
G02*
X130950000Y-126202500I4360000J0D01*
G01*
%TO.C,PLC_3*%
X110250000Y-70100000D02*
X110250000Y-71350000D01*
X110250000Y-71350000D02*
X111500000Y-71350000D01*
X110540000Y-63440000D02*
X110540000Y-71060000D01*
X110540000Y-71060000D02*
X116510000Y-71060000D01*
X110550000Y-63450000D02*
X110550000Y-65250000D01*
X110550000Y-65250000D02*
X111300000Y-65250000D01*
X110550000Y-66750000D02*
X110550000Y-67750000D01*
X110550000Y-67750000D02*
X111300000Y-67750000D01*
X110550000Y-69250000D02*
X110550000Y-71050000D01*
X110550000Y-71050000D02*
X111300000Y-71050000D01*
X111300000Y-63450000D02*
X110550000Y-63450000D01*
X111300000Y-65250000D02*
X111300000Y-63450000D01*
X111300000Y-66750000D02*
X110550000Y-66750000D01*
X111300000Y-67750000D02*
X111300000Y-66750000D01*
X111300000Y-69250000D02*
X110550000Y-69250000D01*
X111300000Y-71050000D02*
X111300000Y-69250000D01*
X112800000Y-63450000D02*
X112800000Y-64200000D01*
X112800000Y-64200000D02*
X115750000Y-64200000D01*
X112800000Y-70300000D02*
X115750000Y-70300000D01*
X112800000Y-71050000D02*
X112800000Y-70300000D01*
X115750000Y-64200000D02*
X115750000Y-67250000D01*
X115750000Y-70300000D02*
X115750000Y-67250000D01*
X116510000Y-63440000D02*
X110540000Y-63440000D01*
X116510000Y-71060000D02*
X116510000Y-63440000D01*
%TO.C,R1*%
X128415095Y-107249359D02*
G75*
G02*
X128512133Y-105800000I-320095J749359D01*
G01*
%TO.C,Ruido1*%
X126670000Y-114702500D02*
G75*
G02*
X121430000Y-114702500I-2620000J0D01*
G01*
X121430000Y-114702500D02*
G75*
G02*
X126670000Y-114702500I2620000J0D01*
G01*
%TO.C,LM7805*%
X136790000Y-81700000D02*
X136790000Y-85300000D01*
X136801522Y-81661522D02*
G75*
G02*
X141240001Y-83500000I1838478J-1838478D01*
G01*
X141240000Y-83500000D02*
G75*
G02*
X136801522Y-85338478I-2600000J0D01*
G01*
%TO.C,J2*%
X135640000Y-97182500D02*
X142660000Y-97182500D01*
X135640000Y-105262500D02*
X135640000Y-97182500D01*
X140250000Y-96382500D02*
X140850000Y-96382500D01*
X140550000Y-96982500D02*
X140250000Y-96382500D01*
X140850000Y-96382500D02*
X140550000Y-96982500D01*
X142660000Y-97182500D02*
X142660000Y-98382500D01*
X142660000Y-98382500D02*
X144360000Y-98382500D01*
X142660000Y-104062500D02*
X142660000Y-105262500D01*
X142660000Y-105262500D02*
X135640000Y-105262500D01*
X144360000Y-98382500D02*
X144360000Y-104062500D01*
X144360000Y-104062500D02*
X142660000Y-104062500D01*
%TO.C,CO_5V1*%
X127354000Y-80830000D02*
X126096000Y-80830000D01*
X127354000Y-82670000D02*
X126096000Y-82670000D01*
%TO.C,CI_5V1*%
X130020000Y-89000000D02*
G75*
G02*
X123480000Y-89000000I-3270000J0D01*
G01*
X123480000Y-89000000D02*
G75*
G02*
X130020000Y-89000000I3270000J0D01*
G01*
%TD*%
M02*
