%TF.GenerationSoftware,KiCad,Pcbnew,8.0.8-8.0.8-0~ubuntu24.04.1*%
%TF.CreationDate,2025-01-20T22:43:33-03:00*%
%TF.ProjectId,Power,506f7765-722e-46b6-9963-61645f706362,rev?*%
%TF.SameCoordinates,Original*%
%TF.FileFunction,Copper,L2,Bot*%
%TF.FilePolarity,Positive*%
%FSLAX46Y46*%
G04 Gerber Fmt 4.6, Leading zero omitted, Abs format (unit mm)*
G04 Created by KiCad (PCBNEW 8.0.8-8.0.8-0~ubuntu24.04.1) date 2025-01-20 22:43:33*
%MOMM*%
%LPD*%
G01*
G04 APERTURE LIST*
G04 Aperture macros list*
%AMRoundRect*
0 Rectangle with rounded corners*
0 $1 Rounding radius*
0 $2 $3 $4 $5 $6 $7 $8 $9 X,Y pos of 4 corners*
0 Add a 4 corners polygon primitive as box body*
4,1,4,$2,$3,$4,$5,$6,$7,$8,$9,$2,$3,0*
0 Add four circle primitives for the rounded corners*
1,1,$1+$1,$2,$3*
1,1,$1+$1,$4,$5*
1,1,$1+$1,$6,$7*
1,1,$1+$1,$8,$9*
0 Add four rect primitives between the rounded corners*
20,1,$1+$1,$2,$3,$4,$5,0*
20,1,$1+$1,$4,$5,$6,$7,0*
20,1,$1+$1,$6,$7,$8,$9,0*
20,1,$1+$1,$8,$9,$2,$3,0*%
G04 Aperture macros list end*
%TA.AperFunction,ComponentPad*%
%ADD10RoundRect,0.250000X0.750000X-0.600000X0.750000X0.600000X-0.750000X0.600000X-0.750000X-0.600000X0*%
%TD*%
%TA.AperFunction,ComponentPad*%
%ADD11O,2.000000X1.700000*%
%TD*%
%TA.AperFunction,ComponentPad*%
%ADD12R,2.200000X2.200000*%
%TD*%
%TA.AperFunction,ComponentPad*%
%ADD13O,2.200000X2.200000*%
%TD*%
%TA.AperFunction,ComponentPad*%
%ADD14RoundRect,0.250001X-1.099999X1.099999X-1.099999X-1.099999X1.099999X-1.099999X1.099999X1.099999X0*%
%TD*%
%TA.AperFunction,ComponentPad*%
%ADD15C,2.700000*%
%TD*%
%TA.AperFunction,ComponentPad*%
%ADD16RoundRect,0.250001X1.099999X1.099999X-1.099999X1.099999X-1.099999X-1.099999X1.099999X-1.099999X0*%
%TD*%
%TA.AperFunction,ComponentPad*%
%ADD17R,1.920000X1.920000*%
%TD*%
%TA.AperFunction,ComponentPad*%
%ADD18C,1.920000*%
%TD*%
%TA.AperFunction,ComponentPad*%
%ADD19C,1.600000*%
%TD*%
%TA.AperFunction,ComponentPad*%
%ADD20R,1.500000X1.050000*%
%TD*%
%TA.AperFunction,ComponentPad*%
%ADD21O,1.500000X1.050000*%
%TD*%
%TA.AperFunction,ComponentPad*%
%ADD22RoundRect,0.250001X1.099999X-1.099999X1.099999X1.099999X-1.099999X1.099999X-1.099999X-1.099999X0*%
%TD*%
%TA.AperFunction,ComponentPad*%
%ADD23C,2.000000*%
%TD*%
%TA.AperFunction,ComponentPad*%
%ADD24C,1.400000*%
%TD*%
%TA.AperFunction,ComponentPad*%
%ADD25O,1.400000X1.400000*%
%TD*%
%TA.AperFunction,Conductor*%
%ADD26C,0.200000*%
%TD*%
%TA.AperFunction,Conductor*%
%ADD27C,0.762000*%
%TD*%
%TA.AperFunction,Conductor*%
%ADD28C,1.270000*%
%TD*%
%TA.AperFunction,Conductor*%
%ADD29C,2.032000*%
%TD*%
G04 APERTURE END LIST*
D10*
%TO.P,PLC_5,1,Pin_1*%
%TO.N,/GND*%
X113000000Y-97500000D03*
D11*
%TO.P,PLC_5,2,Pin_2*%
%TO.N,/5V*%
X113000000Y-95000000D03*
%TD*%
D12*
%TO.P,1N4007,1,K*%
%TO.N,/Motor*%
X125500000Y-135000000D03*
D13*
%TO.P,1N4007,2,A*%
%TO.N,/GND*%
X115340000Y-135000000D03*
%TD*%
D14*
%TO.P,J1,1,Pin_1*%
%TO.N,/Gate*%
X140500000Y-112540000D03*
D15*
%TO.P,J1,2,Pin_2*%
%TO.N,/12V*%
X140500000Y-116500000D03*
%TD*%
D16*
%TO.P,Accept1,1,Pin_1*%
%TO.N,/12V*%
X141757500Y-145050000D03*
D15*
%TO.P,Accept1,2,Pin_2*%
X137797500Y-145050000D03*
%TD*%
D17*
%TO.P,MOSFET1,1,G*%
%TO.N,/Gate*%
X115000000Y-114000000D03*
D18*
%TO.P,MOSFET1,2,D*%
%TO.N,/Regulator*%
X115000000Y-111460000D03*
%TO.P,MOSFET1,3,S*%
%TO.N,/BA*%
X115000000Y-108920000D03*
%TD*%
D14*
%TO.P,INA1,1,Pin_1*%
%TO.N,/12V*%
X140500000Y-126540000D03*
D15*
%TO.P,INA1,2,Pin_2*%
%TO.N,/CRCT*%
X140500000Y-130500000D03*
%TD*%
D19*
%TO.P,CO_3V1,1*%
%TO.N,/3.3V*%
X125500000Y-63500000D03*
%TO.P,CO_3V1,2*%
%TO.N,/GND*%
X128000000Y-63500000D03*
%TD*%
D20*
%TO.P,LM1117,1,GND*%
%TO.N,/GND*%
X138665000Y-65480000D03*
D21*
%TO.P,LM1117,2,VO*%
%TO.N,/3.3V*%
X138665000Y-66750000D03*
%TO.P,LM1117,3,VI*%
%TO.N,/5V*%
X138665000Y-68020000D03*
%TD*%
D22*
%TO.P,J6,1,Pin_1*%
%TO.N,/12V*%
X113000000Y-127702500D03*
D15*
%TO.P,J6,2,Pin_2*%
%TO.N,/GND*%
X113000000Y-123742500D03*
%TD*%
D16*
%TO.P,J3,1,Pin_1*%
%TO.N,/GND*%
X125960000Y-145702500D03*
D15*
%TO.P,J3,2,Pin_2*%
%TO.N,/Motor*%
X122000000Y-145702500D03*
%TD*%
D19*
%TO.P,CI_3V1,1*%
%TO.N,/5V*%
X127750000Y-70500000D03*
%TO.P,CI_3V1,2*%
%TO.N,/GND*%
X125250000Y-70500000D03*
%TD*%
D16*
%TO.P,Motor_E1,1,Pin_1*%
%TO.N,/Motor*%
X115257500Y-145702500D03*
D15*
%TO.P,Motor_E1,2,Pin_2*%
%TO.N,/GND*%
X111297500Y-145702500D03*
%TD*%
D10*
%TO.P,NTRFC_5,1,Pin_1*%
%TO.N,/5V*%
X112975000Y-85250000D03*
D11*
%TO.P,NTRFC_5,2,Pin_2*%
%TO.N,/GND*%
X112975000Y-82750000D03*
%TD*%
D23*
%TO.P,F1,1*%
%TO.N,/12V*%
X124050000Y-126202500D03*
%TO.P,F1,2*%
%TO.N,/Motor*%
X129130000Y-126202500D03*
%TD*%
D10*
%TO.P,PLC_3,1,Pin_1*%
%TO.N,/GND*%
X113000000Y-68500000D03*
D11*
%TO.P,PLC_3,2,Pin_2*%
%TO.N,/3.3V*%
X113000000Y-66000000D03*
%TD*%
D24*
%TO.P,R1,1*%
%TO.N,/GND*%
X128095000Y-106500000D03*
D25*
%TO.P,R1,2*%
%TO.N,/Gate*%
X129995000Y-106500000D03*
%TD*%
D19*
%TO.P,Ruido1,1*%
%TO.N,/GND*%
X123050000Y-114702500D03*
%TO.P,Ruido1,2*%
%TO.N,/12V*%
X125050000Y-114702500D03*
%TD*%
D20*
%TO.P,LM7805,1,VO*%
%TO.N,/5V*%
X138640000Y-82230000D03*
D21*
%TO.P,LM7805,2,GND*%
%TO.N,/GND*%
X138640000Y-83500000D03*
%TO.P,LM7805,3,VI*%
%TO.N,/Regulator*%
X138640000Y-84770000D03*
%TD*%
D14*
%TO.P,J2,1,Pin_1*%
%TO.N,/BA*%
X140550000Y-99242500D03*
D15*
%TO.P,J2,2,Pin_2*%
%TO.N,/CRCT*%
X140550000Y-103202500D03*
%TD*%
D19*
%TO.P,CO_5V1,1*%
%TO.N,/5V*%
X127975000Y-81750000D03*
%TO.P,CO_5V1,2*%
%TO.N,/GND*%
X125475000Y-81750000D03*
%TD*%
%TO.P,CI_5V1,1*%
%TO.N,/Regulator*%
X128000000Y-89000000D03*
%TO.P,CI_5V1,2*%
%TO.N,/GND*%
X125500000Y-89000000D03*
%TD*%
D26*
%TO.N,/GND*%
X112975000Y-68525000D02*
X113000000Y-68500000D01*
D27*
X125250000Y-81525000D02*
X125475000Y-81750000D01*
D28*
%TO.N,/Regulator*%
X112000000Y-104000000D02*
X116000000Y-104000000D01*
X110960000Y-111460000D02*
X109500000Y-110000000D01*
X116000000Y-104000000D02*
X127975000Y-92025000D01*
X115000000Y-111460000D02*
X110960000Y-111460000D01*
X109500000Y-106500000D02*
X112000000Y-104000000D01*
X109500000Y-110000000D02*
X109500000Y-106500000D01*
D26*
X127975000Y-92025000D02*
X128000000Y-92000000D01*
D27*
X135000000Y-89000000D02*
X128000000Y-89000000D01*
D28*
X128000000Y-92000000D02*
X128000000Y-89000000D01*
D27*
X138640000Y-84770000D02*
X138640000Y-85360000D01*
X138640000Y-85360000D02*
X135000000Y-89000000D01*
%TO.N,/5V*%
X126500000Y-84500000D02*
X113775000Y-84500000D01*
X138665000Y-69335000D02*
X137500000Y-70500000D01*
D26*
X113000000Y-85275000D02*
X112975000Y-85250000D01*
D27*
X127975000Y-83025000D02*
X126500000Y-84500000D01*
X127975000Y-81750000D02*
X127750000Y-81525000D01*
X138665000Y-68020000D02*
X138665000Y-69335000D01*
X137500000Y-70500000D02*
X127750000Y-70500000D01*
X128455000Y-82230000D02*
X127975000Y-81750000D01*
X127750000Y-81525000D02*
X127750000Y-70500000D01*
X113775000Y-84500000D02*
X113000000Y-85275000D01*
X138640000Y-82230000D02*
X128455000Y-82230000D01*
D28*
X113000000Y-95000000D02*
X113000000Y-85275000D01*
D27*
X127975000Y-81750000D02*
X127975000Y-83025000D01*
%TO.N,/3.3V*%
X122000000Y-66000000D02*
X113000000Y-66000000D01*
X128750000Y-66750000D02*
X125500000Y-63500000D01*
X125500000Y-63500000D02*
X124500000Y-63500000D01*
X124500000Y-63500000D02*
X122000000Y-66000000D01*
X138665000Y-66750000D02*
X128750000Y-66750000D01*
D29*
%TO.N,/Motor*%
X125500000Y-135000000D02*
X125500000Y-133500000D01*
X122000000Y-145702500D02*
X115257500Y-145702500D01*
X122000000Y-145702500D02*
X122000000Y-138500000D01*
X125500000Y-133500000D02*
X129130000Y-129870000D01*
X129130000Y-129870000D02*
X129130000Y-126202500D01*
X122000000Y-138500000D02*
X125500000Y-135000000D01*
%TO.N,/12V*%
X133500000Y-142000000D02*
X133500000Y-129500000D01*
D28*
X140500000Y-116500000D02*
X130500000Y-116500000D01*
D29*
X136460000Y-126540000D02*
X140500000Y-126540000D01*
D28*
X124050000Y-126202500D02*
X124050000Y-120950000D01*
D29*
X133500000Y-129500000D02*
X136460000Y-126540000D01*
D28*
X130500000Y-116500000D02*
X128702500Y-114702500D01*
D29*
X122252500Y-128000000D02*
X121000000Y-128000000D01*
X136550000Y-145050000D02*
X133500000Y-142000000D01*
D28*
X128702500Y-114702500D02*
X125050000Y-114702500D01*
X125050000Y-119950000D02*
X125050000Y-114702500D01*
D29*
X137797500Y-145050000D02*
X136550000Y-145050000D01*
X120702500Y-127702500D02*
X113000000Y-127702500D01*
X137797500Y-145050000D02*
X141757500Y-145050000D01*
X121000000Y-128000000D02*
X120702500Y-127702500D01*
X124050000Y-126202500D02*
X122252500Y-128000000D01*
D28*
X124050000Y-120950000D02*
X125050000Y-119950000D01*
D29*
X140500000Y-126540000D02*
X140500000Y-116500000D01*
D28*
%TO.N,/Gate*%
X129995000Y-104995000D02*
X129500000Y-104500000D01*
X118500000Y-114000000D02*
X115000000Y-114000000D01*
X126500000Y-104500000D02*
X121000000Y-110000000D01*
X140500000Y-112540000D02*
X136035000Y-112540000D01*
X129500000Y-104500000D02*
X126500000Y-104500000D01*
X136035000Y-112540000D02*
X129995000Y-106500000D01*
X121000000Y-110000000D02*
X121000000Y-111500000D01*
X121000000Y-111500000D02*
X118500000Y-114000000D01*
X129995000Y-106500000D02*
X129995000Y-104995000D01*
%TO.N,/BA*%
X131000000Y-101000000D02*
X132757500Y-99242500D01*
X125000000Y-101000000D02*
X131000000Y-101000000D01*
X132757500Y-99242500D02*
X140550000Y-99242500D01*
X115000000Y-108920000D02*
X117080000Y-108920000D01*
X117080000Y-108920000D02*
X125000000Y-101000000D01*
D29*
%TO.N,/CRCT*%
X140500000Y-130500000D02*
X144500000Y-130500000D01*
X144500000Y-130500000D02*
X147000000Y-128000000D01*
X147000000Y-107000000D02*
X143202500Y-103202500D01*
X147000000Y-128000000D02*
X147000000Y-107000000D01*
X143202500Y-103202500D02*
X140550000Y-103202500D01*
%TD*%
%TA.AperFunction,Conductor*%
%TO.N,/GND*%
G36*
X148442539Y-60020185D02*
G01*
X148488294Y-60072989D01*
X148499500Y-60124500D01*
X148499500Y-105701929D01*
X148479815Y-105768968D01*
X148427011Y-105814723D01*
X148357853Y-105824667D01*
X148294297Y-105795642D01*
X148287819Y-105789610D01*
X144369738Y-101871529D01*
X144369731Y-101871523D01*
X144186029Y-101730564D01*
X144186012Y-101730553D01*
X143985486Y-101614778D01*
X143985475Y-101614773D01*
X143771550Y-101526162D01*
X143771543Y-101526160D01*
X143771541Y-101526159D01*
X143547867Y-101466226D01*
X143547861Y-101466225D01*
X143547856Y-101466224D01*
X143523940Y-101463076D01*
X143318290Y-101436000D01*
X143318283Y-101436000D01*
X142222734Y-101436000D01*
X142155695Y-101416315D01*
X142109940Y-101363511D01*
X142099996Y-101294353D01*
X142129021Y-101230797D01*
X142165321Y-101202092D01*
X142203407Y-101182198D01*
X142361109Y-101053609D01*
X142489698Y-100895907D01*
X142583909Y-100715549D01*
X142639886Y-100519917D01*
X142650500Y-100400536D01*
X142650500Y-98084464D01*
X142639886Y-97965083D01*
X142583909Y-97769451D01*
X142489698Y-97589093D01*
X142465958Y-97559979D01*
X142361109Y-97431390D01*
X142203407Y-97302802D01*
X142023045Y-97208589D01*
X141905828Y-97175050D01*
X141827417Y-97152614D01*
X141827414Y-97152613D01*
X141827412Y-97152613D01*
X141754630Y-97146142D01*
X141708036Y-97142000D01*
X139391964Y-97142000D01*
X139357017Y-97145107D01*
X139272587Y-97152613D01*
X139272584Y-97152613D01*
X139272583Y-97152614D01*
X139233377Y-97163832D01*
X139076954Y-97208589D01*
X138896592Y-97302802D01*
X138738890Y-97431390D01*
X138610304Y-97589090D01*
X138516085Y-97769462D01*
X138513756Y-97775294D01*
X138512021Y-97774601D01*
X138479386Y-97826156D01*
X138416030Y-97855614D01*
X138397544Y-97857000D01*
X132866541Y-97857000D01*
X132648459Y-97857000D01*
X132576659Y-97868372D01*
X132433059Y-97891116D01*
X132433056Y-97891116D01*
X132225654Y-97958505D01*
X132031339Y-98057514D01*
X131854904Y-98185702D01*
X130462426Y-99578181D01*
X130401103Y-99611666D01*
X130374745Y-99614500D01*
X124890959Y-99614500D01*
X124783260Y-99631558D01*
X124675560Y-99648616D01*
X124468148Y-99716008D01*
X124353654Y-99774347D01*
X124273839Y-99815014D01*
X124097404Y-99943202D01*
X116542426Y-107498181D01*
X116481103Y-107531666D01*
X116454745Y-107534500D01*
X116042556Y-107534500D01*
X115975517Y-107514815D01*
X115972705Y-107512954D01*
X115857648Y-107434510D01*
X115857640Y-107434505D01*
X115626670Y-107323277D01*
X115626672Y-107323277D01*
X115381697Y-107247712D01*
X115381693Y-107247711D01*
X115381689Y-107247710D01*
X115259748Y-107229330D01*
X115128189Y-107209500D01*
X115128184Y-107209500D01*
X114871816Y-107209500D01*
X114871810Y-107209500D01*
X114713938Y-107233296D01*
X114618311Y-107247710D01*
X114618308Y-107247711D01*
X114618302Y-107247712D01*
X114373328Y-107323277D01*
X114142359Y-107434505D01*
X114142358Y-107434506D01*
X113930529Y-107578928D01*
X113742602Y-107753297D01*
X113582756Y-107953739D01*
X113454572Y-108175760D01*
X113360912Y-108414402D01*
X113360907Y-108414419D01*
X113303860Y-108664355D01*
X113303860Y-108664357D01*
X113284704Y-108919995D01*
X113284704Y-108920004D01*
X113303860Y-109175642D01*
X113303860Y-109175644D01*
X113303862Y-109175652D01*
X113360910Y-109425592D01*
X113360912Y-109425597D01*
X113454572Y-109664239D01*
X113584049Y-109888500D01*
X113600522Y-109956400D01*
X113577669Y-110022427D01*
X113522748Y-110065618D01*
X113476662Y-110074500D01*
X111585255Y-110074500D01*
X111518216Y-110054815D01*
X111497574Y-110038181D01*
X110921819Y-109462426D01*
X110888334Y-109401103D01*
X110885500Y-109374745D01*
X110885500Y-107125255D01*
X110905185Y-107058216D01*
X110921819Y-107037574D01*
X112537574Y-105421819D01*
X112598897Y-105388334D01*
X112625255Y-105385500D01*
X116109040Y-105385500D01*
X116109041Y-105385500D01*
X116324439Y-105351384D01*
X116324442Y-105351383D01*
X116324443Y-105351383D01*
X116531845Y-105283994D01*
X116531845Y-105283993D01*
X116531848Y-105283993D01*
X116726160Y-105184986D01*
X116902593Y-105056800D01*
X129031800Y-92927593D01*
X129056800Y-92902593D01*
X129184986Y-92726160D01*
X129283993Y-92531847D01*
X129351384Y-92324439D01*
X129385500Y-92109041D01*
X129385500Y-90255500D01*
X129405185Y-90188461D01*
X129457989Y-90142706D01*
X129509500Y-90131500D01*
X135089056Y-90131500D01*
X135169010Y-90118835D01*
X135264961Y-90103639D01*
X135434345Y-90048602D01*
X135593036Y-89967746D01*
X135737123Y-89863060D01*
X139503060Y-86097123D01*
X139552770Y-86028703D01*
X139607746Y-85953035D01*
X139654688Y-85860905D01*
X139688602Y-85794346D01*
X139700636Y-85757306D01*
X139730887Y-85707941D01*
X139837892Y-85600937D01*
X139837892Y-85600936D01*
X139837897Y-85600932D01*
X139955905Y-85438508D01*
X140047052Y-85259622D01*
X140109093Y-85068680D01*
X140140500Y-84870384D01*
X140140500Y-84669616D01*
X140109093Y-84471320D01*
X140047052Y-84280378D01*
X140047050Y-84280375D01*
X140047050Y-84280373D01*
X139955904Y-84101491D01*
X139837897Y-83939068D01*
X139695932Y-83797103D01*
X139557873Y-83696797D01*
X139515210Y-83641469D01*
X139509231Y-83571856D01*
X139541837Y-83510061D01*
X139591756Y-83478775D01*
X139709334Y-83439814D01*
X139858656Y-83347712D01*
X139982712Y-83223656D01*
X140074814Y-83074334D01*
X140129999Y-82907797D01*
X140140500Y-82805009D01*
X140140499Y-81654992D01*
X140129999Y-81552203D01*
X140074814Y-81385666D01*
X139982712Y-81236344D01*
X139858656Y-81112288D01*
X139740307Y-81039290D01*
X139709336Y-81020187D01*
X139709331Y-81020185D01*
X139707862Y-81019698D01*
X139542797Y-80965001D01*
X139542795Y-80965000D01*
X139440010Y-80954500D01*
X137839998Y-80954500D01*
X137839981Y-80954501D01*
X137737203Y-80965000D01*
X137737200Y-80965001D01*
X137570668Y-81020185D01*
X137570659Y-81020189D01*
X137473628Y-81080039D01*
X137408532Y-81098500D01*
X129463673Y-81098500D01*
X129396634Y-81078815D01*
X129357946Y-81039290D01*
X129233262Y-80835826D01*
X129233261Y-80835823D01*
X129197453Y-80793897D01*
X129074759Y-80650241D01*
X128924967Y-80522307D01*
X128886775Y-80463801D01*
X128881500Y-80428018D01*
X128881500Y-71755500D01*
X128901185Y-71688461D01*
X128953989Y-71642706D01*
X129005500Y-71631500D01*
X137589056Y-71631500D01*
X137669010Y-71618835D01*
X137764961Y-71603639D01*
X137934345Y-71548602D01*
X138093036Y-71467746D01*
X138237123Y-71363060D01*
X139528060Y-70072123D01*
X139632746Y-69928035D01*
X139713602Y-69769345D01*
X139768639Y-69599961D01*
X139783835Y-69504010D01*
X139796500Y-69424056D01*
X139796500Y-68968691D01*
X139816185Y-68901652D01*
X139832819Y-68881010D01*
X139835403Y-68878426D01*
X139862897Y-68850932D01*
X139980905Y-68688508D01*
X140072052Y-68509622D01*
X140134093Y-68318680D01*
X140165500Y-68120384D01*
X140165500Y-67919616D01*
X140134093Y-67721320D01*
X140072052Y-67530378D01*
X140072049Y-67530374D01*
X140072049Y-67530371D01*
X140026662Y-67441296D01*
X140013765Y-67372627D01*
X140026662Y-67328704D01*
X140072049Y-67239628D01*
X140072049Y-67239627D01*
X140072052Y-67239622D01*
X140134093Y-67048680D01*
X140165500Y-66850384D01*
X140165500Y-66649616D01*
X140134093Y-66451320D01*
X140072052Y-66260378D01*
X140072050Y-66260375D01*
X140072050Y-66260373D01*
X140023967Y-66166007D01*
X139980905Y-66081492D01*
X139862897Y-65919068D01*
X139720932Y-65777103D01*
X139558508Y-65659095D01*
X139379626Y-65567949D01*
X139188680Y-65505907D01*
X138990384Y-65474500D01*
X138339616Y-65474500D01*
X138240468Y-65490203D01*
X138141319Y-65505907D01*
X137950373Y-65567949D01*
X137877689Y-65604985D01*
X137821394Y-65618500D01*
X129270045Y-65618500D01*
X129203006Y-65598815D01*
X129182364Y-65582181D01*
X127083807Y-63483624D01*
X127050322Y-63422301D01*
X127047870Y-63405671D01*
X127036146Y-63256703D01*
X127036146Y-63256698D01*
X126979172Y-63019388D01*
X126885777Y-62793911D01*
X126885777Y-62793910D01*
X126758262Y-62585826D01*
X126758261Y-62585823D01*
X126712509Y-62532255D01*
X126599759Y-62400241D01*
X126477063Y-62295449D01*
X126414176Y-62241738D01*
X126414173Y-62241737D01*
X126206089Y-62114222D01*
X125980618Y-62020830D01*
X125980621Y-62020830D01*
X125874992Y-61995470D01*
X125743302Y-61963854D01*
X125743300Y-61963853D01*
X125743297Y-61963853D01*
X125500000Y-61944706D01*
X125256702Y-61963853D01*
X125019380Y-62020830D01*
X124793910Y-62114222D01*
X124585826Y-62241737D01*
X124585824Y-62241738D01*
X124470021Y-62340643D01*
X124408888Y-62368825D01*
X124235044Y-62396360D01*
X124235042Y-62396360D01*
X124235039Y-62396361D01*
X124065655Y-62451398D01*
X124065652Y-62451399D01*
X124065650Y-62451400D01*
X123906962Y-62532255D01*
X123906960Y-62532256D01*
X123762875Y-62636941D01*
X123762874Y-62636942D01*
X121567636Y-64832181D01*
X121506313Y-64865666D01*
X121479955Y-64868500D01*
X114333311Y-64868500D01*
X114266272Y-64848815D01*
X114245630Y-64832181D01*
X114192654Y-64779205D01*
X114192649Y-64779201D01*
X113988848Y-64631132D01*
X113988847Y-64631131D01*
X113988845Y-64631130D01*
X113918747Y-64595413D01*
X113764383Y-64516760D01*
X113524785Y-64438910D01*
X113275962Y-64399500D01*
X112724038Y-64399500D01*
X112599626Y-64419205D01*
X112475214Y-64438910D01*
X112235616Y-64516760D01*
X112011151Y-64631132D01*
X111807350Y-64779201D01*
X111807345Y-64779205D01*
X111629205Y-64957345D01*
X111629201Y-64957350D01*
X111481132Y-65161151D01*
X111366760Y-65385616D01*
X111288910Y-65625214D01*
X111249500Y-65874038D01*
X111249500Y-66125961D01*
X111288910Y-66374785D01*
X111366760Y-66614383D01*
X111481132Y-66838848D01*
X111629201Y-67042649D01*
X111629205Y-67042654D01*
X111807345Y-67220794D01*
X111807350Y-67220798D01*
X111955871Y-67328704D01*
X112011155Y-67368870D01*
X112153299Y-67441296D01*
X112235616Y-67483239D01*
X112235618Y-67483239D01*
X112235621Y-67483241D01*
X112475215Y-67561090D01*
X112724038Y-67600500D01*
X112724039Y-67600500D01*
X113275961Y-67600500D01*
X113275962Y-67600500D01*
X113524785Y-67561090D01*
X113764379Y-67483241D01*
X113988845Y-67368870D01*
X114192656Y-67220793D01*
X114245630Y-67167819D01*
X114306953Y-67134334D01*
X114333311Y-67131500D01*
X122089056Y-67131500D01*
X122169010Y-67118835D01*
X122264961Y-67103639D01*
X122434345Y-67048602D01*
X122593036Y-66967746D01*
X122737123Y-66863060D01*
X124679106Y-64921075D01*
X124740427Y-64887592D01*
X124810118Y-64892576D01*
X124814238Y-64894197D01*
X125019381Y-64979169D01*
X125019378Y-64979169D01*
X125019384Y-64979170D01*
X125019388Y-64979172D01*
X125256698Y-65036146D01*
X125390122Y-65046646D01*
X125405671Y-65047870D01*
X125470960Y-65072754D01*
X125483624Y-65083807D01*
X128012877Y-67613060D01*
X128156964Y-67717746D01*
X128315655Y-67798602D01*
X128485039Y-67853639D01*
X128572994Y-67867569D01*
X128660944Y-67881500D01*
X128660949Y-67881500D01*
X137040500Y-67881500D01*
X137107539Y-67901185D01*
X137153294Y-67953989D01*
X137164500Y-68005500D01*
X137164500Y-68120383D01*
X137195907Y-68318680D01*
X137257949Y-68509626D01*
X137349097Y-68688511D01*
X137439267Y-68812620D01*
X137462747Y-68878426D01*
X137446922Y-68946480D01*
X137426630Y-68973186D01*
X137067636Y-69332181D01*
X137006313Y-69365666D01*
X136979955Y-69368500D01*
X128858340Y-69368500D01*
X128791301Y-69348815D01*
X128777815Y-69338795D01*
X128669106Y-69245949D01*
X128664176Y-69241738D01*
X128664173Y-69241737D01*
X128456089Y-69114222D01*
X128230618Y-69020830D01*
X128230621Y-69020830D01*
X128124992Y-68995470D01*
X127993302Y-68963854D01*
X127993300Y-68963853D01*
X127993297Y-68963853D01*
X127750000Y-68944706D01*
X127506702Y-68963853D01*
X127269380Y-69020830D01*
X127043910Y-69114222D01*
X126835826Y-69241737D01*
X126835823Y-69241738D01*
X126650241Y-69400241D01*
X126491738Y-69585823D01*
X126491737Y-69585826D01*
X126364222Y-69793910D01*
X126270830Y-70019380D01*
X126213853Y-70256702D01*
X126194706Y-70500000D01*
X126213853Y-70743297D01*
X126270830Y-70980619D01*
X126364222Y-71206089D01*
X126491737Y-71414173D01*
X126491738Y-71414176D01*
X126588790Y-71527808D01*
X126617361Y-71591570D01*
X126618500Y-71608340D01*
X126618500Y-80961162D01*
X126600229Y-81025949D01*
X126589222Y-81043910D01*
X126495830Y-81269380D01*
X126438853Y-81506702D01*
X126419706Y-81750000D01*
X126438853Y-81993297D01*
X126495830Y-82230619D01*
X126589222Y-82456089D01*
X126672844Y-82592546D01*
X126691089Y-82659992D01*
X126669973Y-82726594D01*
X126654798Y-82745017D01*
X126067636Y-83332181D01*
X126006313Y-83365666D01*
X125979955Y-83368500D01*
X113869186Y-83368500D01*
X113869162Y-83368499D01*
X113864051Y-83368499D01*
X113685949Y-83368499D01*
X113645170Y-83374957D01*
X113510043Y-83396360D01*
X113340652Y-83451399D01*
X113181961Y-83532256D01*
X113053184Y-83625818D01*
X112987378Y-83649298D01*
X112980299Y-83649500D01*
X112166971Y-83649500D01*
X112166965Y-83649500D01*
X112166964Y-83649501D01*
X112155316Y-83650536D01*
X112047584Y-83660113D01*
X111851954Y-83716089D01*
X111763827Y-83762123D01*
X111671593Y-83810302D01*
X111671591Y-83810303D01*
X111671590Y-83810304D01*
X111513890Y-83938890D01*
X111385304Y-84096590D01*
X111291089Y-84276954D01*
X111246332Y-84433376D01*
X111235476Y-84471319D01*
X111235114Y-84472583D01*
X111235113Y-84472586D01*
X111224500Y-84591966D01*
X111224500Y-85908028D01*
X111224501Y-85908034D01*
X111235113Y-86027415D01*
X111291089Y-86223045D01*
X111291090Y-86223048D01*
X111291091Y-86223049D01*
X111385302Y-86403407D01*
X111513891Y-86561109D01*
X111568860Y-86605930D01*
X111608377Y-86663548D01*
X111614500Y-86702031D01*
X111614500Y-93937296D01*
X111594815Y-94004335D01*
X111590818Y-94010181D01*
X111481132Y-94161151D01*
X111366760Y-94385616D01*
X111288910Y-94625214D01*
X111249500Y-94874038D01*
X111249500Y-95125961D01*
X111288910Y-95374785D01*
X111366760Y-95614383D01*
X111481132Y-95838848D01*
X111629201Y-96042649D01*
X111629205Y-96042654D01*
X111807345Y-96220794D01*
X111807350Y-96220798D01*
X111985117Y-96349952D01*
X112011155Y-96368870D01*
X112154184Y-96441747D01*
X112235616Y-96483239D01*
X112235618Y-96483239D01*
X112235621Y-96483241D01*
X112475215Y-96561090D01*
X112724038Y-96600500D01*
X112724039Y-96600500D01*
X113275961Y-96600500D01*
X113275962Y-96600500D01*
X113524785Y-96561090D01*
X113764379Y-96483241D01*
X113988845Y-96368870D01*
X114192656Y-96220793D01*
X114370793Y-96042656D01*
X114518870Y-95838845D01*
X114633241Y-95614379D01*
X114711090Y-95374785D01*
X114750500Y-95125962D01*
X114750500Y-94874038D01*
X114711090Y-94625215D01*
X114633241Y-94385621D01*
X114633239Y-94385618D01*
X114633239Y-94385616D01*
X114591747Y-94304184D01*
X114518870Y-94161155D01*
X114409182Y-94010181D01*
X114385702Y-93944375D01*
X114385500Y-93937296D01*
X114385500Y-86661262D01*
X114405185Y-86594223D01*
X114431143Y-86565158D01*
X114436109Y-86561109D01*
X114564698Y-86403407D01*
X114658909Y-86223049D01*
X114714886Y-86027418D01*
X114725500Y-85908037D01*
X114725500Y-85755500D01*
X114745185Y-85688461D01*
X114797989Y-85642706D01*
X114849500Y-85631500D01*
X126589056Y-85631500D01*
X126669010Y-85618835D01*
X126764961Y-85603639D01*
X126934345Y-85548602D01*
X127093036Y-85467746D01*
X127237123Y-85363060D01*
X128838060Y-83762123D01*
X128942746Y-83618036D01*
X129023602Y-83459345D01*
X129027555Y-83447180D01*
X129066993Y-83389505D01*
X129131352Y-83362308D01*
X129145485Y-83361500D01*
X137408532Y-83361500D01*
X137473628Y-83379961D01*
X137570659Y-83439810D01*
X137570660Y-83439810D01*
X137570666Y-83439814D01*
X137688244Y-83478775D01*
X137745687Y-83518546D01*
X137772510Y-83583062D01*
X137760195Y-83651838D01*
X137722124Y-83696797D01*
X137584074Y-83797098D01*
X137584065Y-83797105D01*
X137442105Y-83939065D01*
X137442105Y-83939066D01*
X137442103Y-83939068D01*
X137391423Y-84008822D01*
X137324095Y-84101491D01*
X137232949Y-84280373D01*
X137170907Y-84471319D01*
X137139500Y-84669616D01*
X137139500Y-84870383D01*
X137170907Y-85068683D01*
X137186719Y-85117348D01*
X137188714Y-85187189D01*
X137156469Y-85243346D01*
X134567636Y-87832181D01*
X134506313Y-87865666D01*
X134479955Y-87868500D01*
X129108340Y-87868500D01*
X129041301Y-87848815D01*
X129027815Y-87838795D01*
X128952840Y-87774761D01*
X128914176Y-87741738D01*
X128914173Y-87741737D01*
X128706089Y-87614222D01*
X128480618Y-87520830D01*
X128480621Y-87520830D01*
X128374992Y-87495470D01*
X128243302Y-87463854D01*
X128243300Y-87463853D01*
X128243297Y-87463853D01*
X128000000Y-87444706D01*
X127756702Y-87463853D01*
X127519380Y-87520830D01*
X127293910Y-87614222D01*
X127085826Y-87741737D01*
X127085823Y-87741738D01*
X126900241Y-87900241D01*
X126741738Y-88085823D01*
X126741737Y-88085826D01*
X126614222Y-88293910D01*
X126520830Y-88519380D01*
X126463853Y-88756702D01*
X126444706Y-89000000D01*
X126463853Y-89243297D01*
X126520830Y-89480619D01*
X126566588Y-89591087D01*
X126605061Y-89683971D01*
X126614500Y-89731421D01*
X126614500Y-91374745D01*
X126594815Y-91441784D01*
X126578181Y-91462426D01*
X115462426Y-102578181D01*
X115401103Y-102611666D01*
X115374745Y-102614500D01*
X112109041Y-102614500D01*
X111890959Y-102614500D01*
X111783260Y-102631558D01*
X111675560Y-102648616D01*
X111468148Y-102716008D01*
X111273839Y-102815014D01*
X111097404Y-102943202D01*
X108443202Y-105597404D01*
X108315014Y-105773839D01*
X108216008Y-105968147D01*
X108202572Y-106009500D01*
X108188828Y-106051800D01*
X108180479Y-106077497D01*
X108148616Y-106175559D01*
X108114500Y-106390959D01*
X108114500Y-110109040D01*
X108148616Y-110324440D01*
X108148616Y-110324443D01*
X108216005Y-110531845D01*
X108229442Y-110558216D01*
X108315014Y-110726160D01*
X108443200Y-110902593D01*
X109903200Y-112362593D01*
X110057407Y-112516800D01*
X110233840Y-112644986D01*
X110325645Y-112691763D01*
X110428148Y-112743991D01*
X110428150Y-112743991D01*
X110428153Y-112743993D01*
X110635561Y-112811384D01*
X110850959Y-112845500D01*
X113166948Y-112845500D01*
X113233987Y-112865185D01*
X113279742Y-112917989D01*
X113290306Y-112982105D01*
X113289500Y-112989988D01*
X113289500Y-115010001D01*
X113289501Y-115010018D01*
X113300000Y-115112796D01*
X113300001Y-115112799D01*
X113355185Y-115279331D01*
X113355187Y-115279336D01*
X113358060Y-115283994D01*
X113447288Y-115428656D01*
X113571344Y-115552712D01*
X113720666Y-115644814D01*
X113887203Y-115699999D01*
X113989991Y-115710500D01*
X116010008Y-115710499D01*
X116112797Y-115699999D01*
X116279334Y-115644814D01*
X116428656Y-115552712D01*
X116552712Y-115428656D01*
X116552712Y-115428655D01*
X116557819Y-115423549D01*
X116559705Y-115425435D01*
X116606625Y-115392212D01*
X116646868Y-115385500D01*
X118609040Y-115385500D01*
X118609041Y-115385500D01*
X118824439Y-115351384D01*
X118824442Y-115351383D01*
X118824443Y-115351383D01*
X119031845Y-115283994D01*
X119031845Y-115283993D01*
X119031848Y-115283993D01*
X119226160Y-115184986D01*
X119402593Y-115056800D01*
X122056800Y-112402593D01*
X122184986Y-112226160D01*
X122283993Y-112031847D01*
X122351384Y-111824439D01*
X122385500Y-111609041D01*
X122385500Y-111390959D01*
X122385500Y-110625255D01*
X122405185Y-110558216D01*
X122421819Y-110537574D01*
X127037574Y-105921819D01*
X127098897Y-105888334D01*
X127125255Y-105885500D01*
X128485500Y-105885500D01*
X128552539Y-105905185D01*
X128598294Y-105957989D01*
X128609500Y-106009500D01*
X128609500Y-106047057D01*
X128605706Y-106077497D01*
X128559379Y-106260440D01*
X128539529Y-106499994D01*
X128539529Y-106500005D01*
X128559379Y-106739559D01*
X128618389Y-106972589D01*
X128714951Y-107192729D01*
X128800243Y-107323277D01*
X128846429Y-107393969D01*
X129009236Y-107570825D01*
X129009239Y-107570827D01*
X129009242Y-107570830D01*
X129198924Y-107718466D01*
X129198931Y-107718470D01*
X129198933Y-107718472D01*
X129303234Y-107774917D01*
X129331897Y-107796290D01*
X135132407Y-113596800D01*
X135308840Y-113724986D01*
X135400645Y-113771763D01*
X135503148Y-113823991D01*
X135503150Y-113823991D01*
X135503153Y-113823993D01*
X135710561Y-113891384D01*
X135925959Y-113925500D01*
X136144041Y-113925500D01*
X138347544Y-113925500D01*
X138414583Y-113945185D01*
X138460338Y-113997989D01*
X138463742Y-114007211D01*
X138463756Y-114007206D01*
X138466085Y-114013037D01*
X138466090Y-114013047D01*
X138466091Y-114013049D01*
X138560302Y-114193407D01*
X138560304Y-114193409D01*
X138688890Y-114351109D01*
X138817479Y-114455958D01*
X138846593Y-114479698D01*
X139026951Y-114573909D01*
X139026953Y-114573909D01*
X139026954Y-114573910D01*
X139177311Y-114616932D01*
X139236349Y-114654299D01*
X139265813Y-114717653D01*
X139256348Y-114786878D01*
X139221455Y-114832336D01*
X139062953Y-114961286D01*
X139062940Y-114961298D01*
X138956624Y-115075136D01*
X138896480Y-115110696D01*
X138866000Y-115114500D01*
X131125255Y-115114500D01*
X131058216Y-115094815D01*
X131037574Y-115078181D01*
X129605095Y-113645702D01*
X129605093Y-113645700D01*
X129428660Y-113517514D01*
X129284854Y-113444241D01*
X129234345Y-113418505D01*
X129026942Y-113351116D01*
X128865390Y-113325529D01*
X128811541Y-113317000D01*
X128811540Y-113317000D01*
X125781422Y-113317000D01*
X125733970Y-113307561D01*
X125677943Y-113284354D01*
X125530619Y-113223330D01*
X125530613Y-113223328D01*
X125530612Y-113223328D01*
X125293302Y-113166354D01*
X125293300Y-113166353D01*
X125293297Y-113166353D01*
X125050000Y-113147206D01*
X124806702Y-113166353D01*
X124569380Y-113223330D01*
X124343910Y-113316722D01*
X124135826Y-113444237D01*
X124135823Y-113444238D01*
X123950241Y-113602741D01*
X123791738Y-113788323D01*
X123791737Y-113788326D01*
X123664222Y-113996410D01*
X123570830Y-114221880D01*
X123513853Y-114459202D01*
X123494706Y-114702500D01*
X123513853Y-114945797D01*
X123513853Y-114945800D01*
X123513854Y-114945802D01*
X123554355Y-115114500D01*
X123570830Y-115183119D01*
X123610683Y-115279331D01*
X123655061Y-115386471D01*
X123664500Y-115433921D01*
X123664500Y-119324745D01*
X123644815Y-119391784D01*
X123628181Y-119412426D01*
X122993202Y-120047404D01*
X122865014Y-120223839D01*
X122766005Y-120418154D01*
X122698616Y-120625556D01*
X122698616Y-120625559D01*
X122664500Y-120840959D01*
X122664500Y-125038429D01*
X122644815Y-125105468D01*
X122628181Y-125126110D01*
X121650415Y-126103876D01*
X121589092Y-126137361D01*
X121519400Y-126132377D01*
X121500733Y-126123582D01*
X121485479Y-126114775D01*
X121485475Y-126114773D01*
X121271550Y-126026162D01*
X121271543Y-126026160D01*
X121271541Y-126026159D01*
X121047867Y-125966226D01*
X121047861Y-125966225D01*
X121047856Y-125966224D01*
X121023940Y-125963076D01*
X120818290Y-125936000D01*
X120818283Y-125936000D01*
X114906371Y-125936000D01*
X114839332Y-125916315D01*
X114815960Y-125895442D01*
X114815561Y-125895842D01*
X114811114Y-125891396D01*
X114811111Y-125891393D01*
X114811109Y-125891391D01*
X114653407Y-125762802D01*
X114473049Y-125668591D01*
X114473048Y-125668590D01*
X114473045Y-125668589D01*
X114350232Y-125633449D01*
X114277417Y-125612614D01*
X114277414Y-125612613D01*
X114277412Y-125612613D01*
X114204630Y-125606142D01*
X114158036Y-125602000D01*
X111841964Y-125602000D01*
X111807017Y-125605107D01*
X111722587Y-125612613D01*
X111722584Y-125612613D01*
X111722583Y-125612614D01*
X111683377Y-125623832D01*
X111526954Y-125668589D01*
X111346592Y-125762802D01*
X111188890Y-125891390D01*
X111060302Y-126049092D01*
X110966089Y-126229454D01*
X110910114Y-126425084D01*
X110910113Y-126425087D01*
X110899500Y-126544467D01*
X110899500Y-128860532D01*
X110910113Y-128979912D01*
X110910113Y-128979914D01*
X110910114Y-128979917D01*
X110911145Y-128983520D01*
X110966089Y-129175545D01*
X111060302Y-129355907D01*
X111188890Y-129513609D01*
X111279782Y-129587721D01*
X111346593Y-129642198D01*
X111526951Y-129736409D01*
X111526953Y-129736409D01*
X111526954Y-129736410D01*
X111537488Y-129739424D01*
X111722583Y-129792386D01*
X111841964Y-129803000D01*
X111841970Y-129803000D01*
X114158030Y-129803000D01*
X114158036Y-129803000D01*
X114277417Y-129792386D01*
X114473049Y-129736409D01*
X114653407Y-129642198D01*
X114811109Y-129513609D01*
X114811114Y-129513603D01*
X114815561Y-129509158D01*
X114816660Y-129510257D01*
X114867883Y-129475124D01*
X114906371Y-129469000D01*
X119978159Y-129469000D01*
X120040157Y-129485612D01*
X120217021Y-129587725D01*
X120351925Y-129643604D01*
X120394412Y-129661203D01*
X120430959Y-129676341D01*
X120654634Y-129736274D01*
X120884217Y-129766500D01*
X120884224Y-129766500D01*
X122368282Y-129766500D01*
X122368283Y-129766500D01*
X122573935Y-129739423D01*
X122573939Y-129739424D01*
X122573939Y-129739423D01*
X122573940Y-129739423D01*
X122597867Y-129736274D01*
X122821541Y-129676341D01*
X123035479Y-129587725D01*
X123236020Y-129471942D01*
X123419733Y-129330975D01*
X125380975Y-127369733D01*
X125521942Y-127186020D01*
X125637725Y-126985479D01*
X125726341Y-126771541D01*
X125786274Y-126547866D01*
X125816499Y-126318282D01*
X125816499Y-126086718D01*
X125786274Y-125857133D01*
X125726341Y-125633459D01*
X125637725Y-125419521D01*
X125637723Y-125419518D01*
X125637721Y-125419513D01*
X125521942Y-125218979D01*
X125461124Y-125139718D01*
X125435930Y-125074548D01*
X125435500Y-125064232D01*
X125435500Y-121575255D01*
X125455185Y-121508216D01*
X125471819Y-121487574D01*
X126106795Y-120852598D01*
X126106800Y-120852593D01*
X126115253Y-120840959D01*
X126234986Y-120676160D01*
X126333993Y-120481847D01*
X126401385Y-120274439D01*
X126419993Y-120156949D01*
X126435500Y-120059046D01*
X126435500Y-116212000D01*
X126455185Y-116144961D01*
X126507989Y-116099206D01*
X126559500Y-116088000D01*
X128077245Y-116088000D01*
X128144284Y-116107685D01*
X128164926Y-116124319D01*
X129597407Y-117556800D01*
X129773840Y-117684986D01*
X129865645Y-117731763D01*
X129968148Y-117783991D01*
X129968150Y-117783991D01*
X129968153Y-117783993D01*
X130175561Y-117851384D01*
X130390959Y-117885500D01*
X130609041Y-117885500D01*
X138609500Y-117885500D01*
X138676539Y-117905185D01*
X138722294Y-117957989D01*
X138733500Y-118009500D01*
X138733500Y-124633628D01*
X138713815Y-124700667D01*
X138692938Y-124724045D01*
X138693337Y-124724444D01*
X138684444Y-124733337D01*
X138683344Y-124732237D01*
X138632117Y-124767376D01*
X138593629Y-124773500D01*
X136344209Y-124773500D01*
X136138559Y-124800575D01*
X136138559Y-124800576D01*
X136114633Y-124803726D01*
X135890959Y-124863659D01*
X135890949Y-124863662D01*
X135677024Y-124952273D01*
X135677013Y-124952278D01*
X135489586Y-125060490D01*
X135478397Y-125066951D01*
X135476474Y-125068061D01*
X135292768Y-125209023D01*
X135292761Y-125209029D01*
X132169029Y-128332761D01*
X132169023Y-128332768D01*
X132028064Y-128516470D01*
X132028053Y-128516487D01*
X131912278Y-128717013D01*
X131912273Y-128717024D01*
X131823662Y-128930949D01*
X131823660Y-128930956D01*
X131823659Y-128930959D01*
X131810541Y-128979917D01*
X131781843Y-129087021D01*
X131763726Y-129154634D01*
X131733500Y-129384209D01*
X131733500Y-142115790D01*
X131760576Y-142321440D01*
X131763726Y-142345367D01*
X131763727Y-142345369D01*
X131823659Y-142569040D01*
X131823662Y-142569050D01*
X131912273Y-142782975D01*
X131912278Y-142782986D01*
X132028053Y-142983512D01*
X132028064Y-142983529D01*
X132169023Y-143167231D01*
X132169029Y-143167238D01*
X135382761Y-146380970D01*
X135382767Y-146380975D01*
X135566479Y-146521942D01*
X135568396Y-146523049D01*
X135767012Y-146637721D01*
X135767017Y-146637723D01*
X135767020Y-146637725D01*
X135980958Y-146726341D01*
X136204633Y-146786274D01*
X136231337Y-146789789D01*
X136231341Y-146789791D01*
X136231342Y-146789790D01*
X136434217Y-146816500D01*
X136624984Y-146816500D01*
X136689412Y-146834552D01*
X136828876Y-146919362D01*
X136828881Y-146919364D01*
X136960658Y-146976602D01*
X137092442Y-147033844D01*
X137369142Y-147111371D01*
X137619420Y-147145771D01*
X137653821Y-147150500D01*
X137653822Y-147150500D01*
X137941179Y-147150500D01*
X137971870Y-147146281D01*
X138225858Y-147111371D01*
X138502558Y-147033844D01*
X138766125Y-146919361D01*
X138799616Y-146898994D01*
X138905588Y-146834552D01*
X138970016Y-146816500D01*
X139851129Y-146816500D01*
X139918168Y-146836185D01*
X139941539Y-146857057D01*
X139941939Y-146856658D01*
X139946385Y-146861103D01*
X139946388Y-146861105D01*
X139946391Y-146861109D01*
X140104093Y-146989698D01*
X140284451Y-147083909D01*
X140480083Y-147139886D01*
X140599464Y-147150500D01*
X140599470Y-147150500D01*
X142915530Y-147150500D01*
X142915536Y-147150500D01*
X143034917Y-147139886D01*
X143230549Y-147083909D01*
X143410907Y-146989698D01*
X143568609Y-146861109D01*
X143697198Y-146703407D01*
X143791409Y-146523049D01*
X143847386Y-146327417D01*
X143858000Y-146208036D01*
X143858000Y-143891964D01*
X143847386Y-143772583D01*
X143791409Y-143576951D01*
X143697198Y-143396593D01*
X143604983Y-143283500D01*
X143568609Y-143238890D01*
X143410907Y-143110302D01*
X143342670Y-143074658D01*
X143230549Y-143016091D01*
X143230548Y-143016090D01*
X143230545Y-143016089D01*
X143113328Y-142982550D01*
X143034917Y-142960114D01*
X143034914Y-142960113D01*
X143034912Y-142960113D01*
X142962130Y-142953642D01*
X142915536Y-142949500D01*
X140599464Y-142949500D01*
X140564517Y-142952607D01*
X140480087Y-142960113D01*
X140480084Y-142960113D01*
X140480083Y-142960114D01*
X140440877Y-142971332D01*
X140284454Y-143016089D01*
X140104092Y-143110302D01*
X139946385Y-143238896D01*
X139941939Y-143243342D01*
X139940839Y-143242242D01*
X139889617Y-143277376D01*
X139851129Y-143283500D01*
X138970016Y-143283500D01*
X138905588Y-143265448D01*
X138766123Y-143180637D01*
X138766118Y-143180635D01*
X138502563Y-143066158D01*
X138502561Y-143066157D01*
X138502558Y-143066156D01*
X138341432Y-143021011D01*
X138225864Y-142988630D01*
X138225859Y-142988629D01*
X138225858Y-142988629D01*
X138083518Y-142969064D01*
X137941179Y-142949500D01*
X137941178Y-142949500D01*
X137653822Y-142949500D01*
X137653821Y-142949500D01*
X137369142Y-142988629D01*
X137369135Y-142988630D01*
X137215597Y-143031649D01*
X137140353Y-143052731D01*
X137070491Y-143051864D01*
X137019219Y-143021011D01*
X135302819Y-141304611D01*
X135269334Y-141243288D01*
X135266500Y-141216930D01*
X135266500Y-130283070D01*
X135286185Y-130216031D01*
X135302819Y-130195389D01*
X137155389Y-128342819D01*
X137216712Y-128309334D01*
X137243070Y-128306500D01*
X138593629Y-128306500D01*
X138660668Y-128326185D01*
X138684039Y-128347057D01*
X138684439Y-128346658D01*
X138688885Y-128351103D01*
X138688888Y-128351105D01*
X138688891Y-128351109D01*
X138846593Y-128479698D01*
X139026951Y-128573909D01*
X139026953Y-128573909D01*
X139026954Y-128573910D01*
X139177311Y-128616932D01*
X139236349Y-128654299D01*
X139265813Y-128717653D01*
X139256348Y-128786878D01*
X139221455Y-128832336D01*
X139062950Y-128961288D01*
X138866812Y-129171299D01*
X138701098Y-129406064D01*
X138568894Y-129661206D01*
X138472667Y-129931962D01*
X138472666Y-129931965D01*
X138414201Y-130213319D01*
X138394592Y-130500000D01*
X138414201Y-130786680D01*
X138472666Y-131068034D01*
X138472667Y-131068037D01*
X138568894Y-131338793D01*
X138568893Y-131338793D01*
X138701098Y-131593935D01*
X138866812Y-131828700D01*
X138951923Y-131919831D01*
X139062947Y-132038708D01*
X139232116Y-132176337D01*
X139285853Y-132220055D01*
X139531382Y-132369365D01*
X139718237Y-132450526D01*
X139794942Y-132483844D01*
X140071642Y-132561371D01*
X140321920Y-132595771D01*
X140356321Y-132600500D01*
X140356322Y-132600500D01*
X140643679Y-132600500D01*
X140674370Y-132596281D01*
X140928358Y-132561371D01*
X141205058Y-132483844D01*
X141468625Y-132369361D01*
X141502116Y-132348994D01*
X141608088Y-132284552D01*
X141672516Y-132266500D01*
X144615782Y-132266500D01*
X144615783Y-132266500D01*
X144821435Y-132239423D01*
X144821439Y-132239424D01*
X144821439Y-132239423D01*
X144821440Y-132239423D01*
X144845367Y-132236274D01*
X145069041Y-132176341D01*
X145282979Y-132087725D01*
X145483520Y-131971942D01*
X145667233Y-131830975D01*
X146845232Y-130652976D01*
X148287819Y-129210390D01*
X148349142Y-129176905D01*
X148418834Y-129181889D01*
X148474767Y-129223761D01*
X148499184Y-129289225D01*
X148499500Y-129298071D01*
X148499500Y-153375500D01*
X148479815Y-153442539D01*
X148427011Y-153488294D01*
X148375500Y-153499500D01*
X105124500Y-153499500D01*
X105057461Y-153479815D01*
X105011706Y-153427011D01*
X105000500Y-153375500D01*
X105000500Y-144544464D01*
X113157000Y-144544464D01*
X113157000Y-146860536D01*
X113157051Y-146861109D01*
X113167613Y-146979912D01*
X113167613Y-146979914D01*
X113167614Y-146979917D01*
X113190050Y-147058328D01*
X113223589Y-147175545D01*
X113317802Y-147355907D01*
X113446390Y-147513609D01*
X113517835Y-147571864D01*
X113604093Y-147642198D01*
X113784451Y-147736409D01*
X113980083Y-147792386D01*
X114099464Y-147803000D01*
X114099470Y-147803000D01*
X116415530Y-147803000D01*
X116415536Y-147803000D01*
X116534917Y-147792386D01*
X116730549Y-147736409D01*
X116910907Y-147642198D01*
X117068609Y-147513609D01*
X117068614Y-147513603D01*
X117073061Y-147509158D01*
X117074160Y-147510257D01*
X117125383Y-147475124D01*
X117163871Y-147469000D01*
X120827484Y-147469000D01*
X120891912Y-147487052D01*
X121031376Y-147571862D01*
X121031381Y-147571864D01*
X121163158Y-147629102D01*
X121294942Y-147686344D01*
X121571642Y-147763871D01*
X121821920Y-147798271D01*
X121856321Y-147803000D01*
X121856322Y-147803000D01*
X122143679Y-147803000D01*
X122174370Y-147798781D01*
X122428358Y-147763871D01*
X122705058Y-147686344D01*
X122818015Y-147637279D01*
X122968617Y-147571865D01*
X122968620Y-147571863D01*
X122968625Y-147571861D01*
X123214147Y-147422555D01*
X123437053Y-147241208D01*
X123633189Y-147031198D01*
X123798901Y-146796436D01*
X123931104Y-146541297D01*
X124027334Y-146270532D01*
X124085798Y-145989186D01*
X124105408Y-145702500D01*
X124085798Y-145415814D01*
X124027334Y-145134468D01*
X123931105Y-144863706D01*
X123931106Y-144863706D01*
X123888202Y-144780907D01*
X123798901Y-144608564D01*
X123796862Y-144605675D01*
X123789194Y-144594811D01*
X123766617Y-144528690D01*
X123766500Y-144523305D01*
X123766500Y-139283070D01*
X123786185Y-139216031D01*
X123802819Y-139195389D01*
X126111390Y-136886818D01*
X126172713Y-136853333D01*
X126199071Y-136850499D01*
X126650002Y-136850499D01*
X126650008Y-136850499D01*
X126752797Y-136839999D01*
X126919334Y-136784814D01*
X127068656Y-136692712D01*
X127192712Y-136568656D01*
X127284814Y-136419334D01*
X127339999Y-136252797D01*
X127350500Y-136150009D01*
X127350499Y-134199068D01*
X127370184Y-134132030D01*
X127386813Y-134111393D01*
X130460975Y-131037233D01*
X130601942Y-130853521D01*
X130717725Y-130652980D01*
X130806341Y-130439042D01*
X130866274Y-130215367D01*
X130878143Y-130125215D01*
X130896500Y-129985783D01*
X130896500Y-126086717D01*
X130866274Y-125857134D01*
X130806341Y-125633459D01*
X130717725Y-125419521D01*
X130717723Y-125419518D01*
X130717721Y-125419513D01*
X130601946Y-125218987D01*
X130601942Y-125218980D01*
X130502813Y-125089792D01*
X130460975Y-125035268D01*
X130460969Y-125035261D01*
X130297238Y-124871530D01*
X130297231Y-124871524D01*
X130113528Y-124730564D01*
X130113526Y-124730562D01*
X130113520Y-124730558D01*
X130113515Y-124730555D01*
X130113512Y-124730553D01*
X129912986Y-124614778D01*
X129912975Y-124614773D01*
X129699050Y-124526162D01*
X129699043Y-124526160D01*
X129699041Y-124526159D01*
X129475366Y-124466226D01*
X129436994Y-124461174D01*
X129245790Y-124436000D01*
X129245783Y-124436000D01*
X129014217Y-124436000D01*
X129014209Y-124436000D01*
X128795689Y-124464770D01*
X128784634Y-124466226D01*
X128560959Y-124526159D01*
X128560949Y-124526162D01*
X128347024Y-124614773D01*
X128347013Y-124614778D01*
X128146487Y-124730553D01*
X128146471Y-124730564D01*
X127962768Y-124871524D01*
X127962761Y-124871530D01*
X127799030Y-125035261D01*
X127799024Y-125035268D01*
X127658064Y-125218971D01*
X127658053Y-125218987D01*
X127542278Y-125419513D01*
X127542273Y-125419524D01*
X127453662Y-125633449D01*
X127453659Y-125633459D01*
X127393727Y-125857133D01*
X127393725Y-125857142D01*
X127363500Y-126086709D01*
X127363500Y-129086929D01*
X127343815Y-129153968D01*
X127327181Y-129174610D01*
X124169029Y-132332761D01*
X124169023Y-132332768D01*
X124028064Y-132516470D01*
X124028053Y-132516487D01*
X123912278Y-132717013D01*
X123912273Y-132717024D01*
X123823662Y-132930949D01*
X123823659Y-132930959D01*
X123765104Y-133149492D01*
X123765103Y-133149495D01*
X123763726Y-133154631D01*
X123763725Y-133154636D01*
X123733500Y-133384209D01*
X123733500Y-133515808D01*
X123717112Y-133573592D01*
X123718240Y-133574118D01*
X123715186Y-133580666D01*
X123660001Y-133747203D01*
X123660001Y-133747204D01*
X123660000Y-133747204D01*
X123649500Y-133849983D01*
X123649500Y-134300928D01*
X123629815Y-134367967D01*
X123613181Y-134388609D01*
X120669029Y-137332761D01*
X120669023Y-137332768D01*
X120528064Y-137516470D01*
X120528053Y-137516487D01*
X120412278Y-137717013D01*
X120412273Y-137717024D01*
X120323662Y-137930949D01*
X120323659Y-137930959D01*
X120263727Y-138154631D01*
X120263725Y-138154642D01*
X120233500Y-138384209D01*
X120233500Y-143812000D01*
X120213815Y-143879039D01*
X120161011Y-143924794D01*
X120109500Y-143936000D01*
X117163871Y-143936000D01*
X117096832Y-143916315D01*
X117073460Y-143895442D01*
X117073061Y-143895842D01*
X117068614Y-143891396D01*
X117068611Y-143891393D01*
X117068609Y-143891391D01*
X116910907Y-143762802D01*
X116730549Y-143668591D01*
X116730548Y-143668590D01*
X116730545Y-143668589D01*
X116613328Y-143635050D01*
X116534917Y-143612614D01*
X116534914Y-143612613D01*
X116534912Y-143612613D01*
X116462130Y-143606142D01*
X116415536Y-143602000D01*
X114099464Y-143602000D01*
X114064517Y-143605107D01*
X113980087Y-143612613D01*
X113980084Y-143612613D01*
X113980083Y-143612614D01*
X113940877Y-143623832D01*
X113784454Y-143668589D01*
X113604092Y-143762802D01*
X113446390Y-143891390D01*
X113317802Y-144049092D01*
X113223589Y-144229454D01*
X113167614Y-144425084D01*
X113167613Y-144425087D01*
X113160107Y-144509517D01*
X113157000Y-144544464D01*
X105000500Y-144544464D01*
X105000500Y-60124500D01*
X105020185Y-60057461D01*
X105072989Y-60011706D01*
X105124500Y-60000500D01*
X148375500Y-60000500D01*
X148442539Y-60020185D01*
G37*
%TD.AperFunction*%
%TD*%
M02*
