%TF.GenerationSoftware,KiCad,Pcbnew,8.0.8-8.0.8-0~ubuntu24.04.1*%
%TF.CreationDate,2025-01-20T22:44:11-03:00*%
%TF.ProjectId,Power,506f7765-722e-46b6-9963-61645f706362,rev?*%
%TF.SameCoordinates,Original*%
%TF.FileFunction,Drillmap*%
%TF.FilePolarity,Positive*%
%FSLAX45Y45*%
G04 Gerber Fmt 4.5, Leading zero omitted, Abs format (unit mm)*
G04 Created by KiCad (PCBNEW 8.0.8-8.0.8-0~ubuntu24.04.1) date 2025-01-20 22:44:11*
%MOMM*%
%LPD*%
G01*
G04 APERTURE LIST*
%ADD10C,0.200000*%
%ADD11C,0.100000*%
%ADD12C,0.110000*%
%ADD13C,0.128000*%
%ADD14C,0.170000*%
G04 APERTURE END LIST*
D10*
X10450000Y-5950000D02*
X14900000Y-5950000D01*
X14900000Y-15400000D01*
X10450000Y-15400000D01*
X10450000Y-5950000D01*
D11*
X12774500Y-10615000D02*
X12844500Y-10685000D01*
X12844500Y-10615000D02*
X12774500Y-10685000D01*
X12964500Y-10615000D02*
X13034500Y-10685000D01*
X13034500Y-10615000D02*
X12964500Y-10685000D01*
X13901500Y-8223000D02*
G75*
G02*
X13826500Y-8223000I-37500J0D01*
G01*
X13826500Y-8223000D02*
G75*
G02*
X13901500Y-8223000I37500J0D01*
G01*
X13901500Y-8350000D02*
G75*
G02*
X13826500Y-8350000I-37500J0D01*
G01*
X13826500Y-8350000D02*
G75*
G02*
X13901500Y-8350000I37500J0D01*
G01*
X13901500Y-8477000D02*
G75*
G02*
X13826500Y-8477000I-37500J0D01*
G01*
X13826500Y-8477000D02*
G75*
G02*
X13901500Y-8477000I37500J0D01*
G01*
X13904000Y-6548000D02*
G75*
G02*
X13829000Y-6548000I-37500J0D01*
G01*
X13829000Y-6548000D02*
G75*
G02*
X13904000Y-6548000I37500J0D01*
G01*
X13904000Y-6675000D02*
G75*
G02*
X13829000Y-6675000I-37500J0D01*
G01*
X13829000Y-6675000D02*
G75*
G02*
X13904000Y-6675000I37500J0D01*
G01*
X13904000Y-6802000D02*
G75*
G02*
X13829000Y-6802000I-37500J0D01*
G01*
X13829000Y-6802000D02*
G75*
G02*
X13904000Y-6802000I37500J0D01*
G01*
X12305000Y-11430250D02*
X12305000Y-11510250D01*
X12265000Y-11470250D02*
X12345000Y-11470250D01*
X12505000Y-11430250D02*
X12505000Y-11510250D01*
X12465000Y-11470250D02*
X12545000Y-11470250D01*
X12525000Y-7010000D02*
X12525000Y-7090000D01*
X12485000Y-7050000D02*
X12565000Y-7050000D01*
X12547500Y-8135000D02*
X12547500Y-8215000D01*
X12507500Y-8175000D02*
X12587500Y-8175000D01*
X12550000Y-6310000D02*
X12550000Y-6390000D01*
X12510000Y-6350000D02*
X12590000Y-6350000D01*
X12550000Y-8860000D02*
X12550000Y-8940000D01*
X12510000Y-8900000D02*
X12590000Y-8900000D01*
X12775000Y-7010000D02*
X12775000Y-7090000D01*
X12735000Y-7050000D02*
X12815000Y-7050000D01*
X12797500Y-8135000D02*
X12797500Y-8215000D01*
X12757500Y-8175000D02*
X12837500Y-8175000D01*
X12800000Y-6310000D02*
X12800000Y-6390000D01*
X12760000Y-6350000D02*
X12840000Y-6350000D01*
X12800000Y-8860000D02*
X12800000Y-8940000D01*
X12760000Y-8900000D02*
X12840000Y-8900000D01*
X11332856Y-8310356D02*
X11332856Y-8239644D01*
X11262144Y-8239644D01*
X11262144Y-8310356D01*
X11332856Y-8310356D01*
X11332856Y-8560356D02*
X11332856Y-8489644D01*
X11262144Y-8489644D01*
X11262144Y-8560356D01*
X11332856Y-8560356D01*
X11335356Y-6635356D02*
X11335356Y-6564644D01*
X11264644Y-6564644D01*
X11264644Y-6635356D01*
X11335356Y-6635356D01*
X11335356Y-6885356D02*
X11335356Y-6814644D01*
X11264644Y-6814644D01*
X11264644Y-6885356D01*
X11335356Y-6885356D01*
X11335356Y-9535356D02*
X11335356Y-9464644D01*
X11264644Y-9464644D01*
X11264644Y-9535356D01*
X11335356Y-9535356D01*
X11335356Y-9785356D02*
X11335356Y-9714644D01*
X11264644Y-9714644D01*
X11264644Y-9785356D01*
X11335356Y-9785356D01*
X12440356Y-12655606D02*
X12440356Y-12584894D01*
X12369644Y-12584894D01*
X12369644Y-12655606D01*
X12440356Y-12655606D01*
X12948356Y-12655606D02*
X12948356Y-12584894D01*
X12877644Y-12584894D01*
X12877644Y-12655606D01*
X12948356Y-12655606D01*
D12*
X11534000Y-13555000D02*
X11589000Y-13500000D01*
X11534000Y-13445000D01*
X11479000Y-13500000D01*
X11534000Y-13555000D01*
X12550000Y-13555000D02*
X12605000Y-13500000D01*
X12550000Y-13445000D01*
X12495000Y-13500000D01*
X12550000Y-13555000D01*
D13*
X11436000Y-10828000D02*
X11564000Y-10956000D01*
X11564000Y-10828000D02*
X11436000Y-10956000D01*
X11564000Y-10892000D02*
G75*
G02*
X11436000Y-10892000I-64000J0D01*
G01*
X11436000Y-10892000D02*
G75*
G02*
X11564000Y-10892000I64000J0D01*
G01*
X11436000Y-11082000D02*
X11564000Y-11210000D01*
X11564000Y-11082000D02*
X11436000Y-11210000D01*
X11564000Y-11146000D02*
G75*
G02*
X11436000Y-11146000I-64000J0D01*
G01*
X11436000Y-11146000D02*
G75*
G02*
X11564000Y-11146000I64000J0D01*
G01*
X11436000Y-11336000D02*
X11564000Y-11464000D01*
X11564000Y-11336000D02*
X11436000Y-11464000D01*
X11564000Y-11400000D02*
G75*
G02*
X11436000Y-11400000I-64000J0D01*
G01*
X11436000Y-11400000D02*
G75*
G02*
X11564000Y-11400000I64000J0D01*
G01*
D14*
X11044750Y-14485250D02*
X11214750Y-14655250D01*
X11214750Y-14485250D02*
X11044750Y-14655250D01*
X11129750Y-14485250D02*
X11129750Y-14655250D01*
X11044750Y-14570250D02*
X11214750Y-14570250D01*
X11215000Y-12289250D02*
X11385000Y-12459250D01*
X11385000Y-12289250D02*
X11215000Y-12459250D01*
X11300000Y-12289250D02*
X11300000Y-12459250D01*
X11215000Y-12374250D02*
X11385000Y-12374250D01*
X11215000Y-12685250D02*
X11385000Y-12855250D01*
X11385000Y-12685250D02*
X11215000Y-12855250D01*
X11300000Y-12685250D02*
X11300000Y-12855250D01*
X11215000Y-12770250D02*
X11385000Y-12770250D01*
X11440750Y-14485250D02*
X11610750Y-14655250D01*
X11610750Y-14485250D02*
X11440750Y-14655250D01*
X11525750Y-14485250D02*
X11525750Y-14655250D01*
X11440750Y-14570250D02*
X11610750Y-14570250D01*
X12115000Y-14485250D02*
X12285000Y-14655250D01*
X12285000Y-14485250D02*
X12115000Y-14655250D01*
X12200000Y-14485250D02*
X12200000Y-14655250D01*
X12115000Y-14570250D02*
X12285000Y-14570250D01*
X12511000Y-14485250D02*
X12681000Y-14655250D01*
X12681000Y-14485250D02*
X12511000Y-14655250D01*
X12596000Y-14485250D02*
X12596000Y-14655250D01*
X12511000Y-14570250D02*
X12681000Y-14570250D01*
X13694750Y-14420000D02*
X13864750Y-14590000D01*
X13864750Y-14420000D02*
X13694750Y-14590000D01*
X13779750Y-14420000D02*
X13779750Y-14590000D01*
X13694750Y-14505000D02*
X13864750Y-14505000D01*
X13965000Y-11169000D02*
X14135000Y-11339000D01*
X14135000Y-11169000D02*
X13965000Y-11339000D01*
X14050000Y-11169000D02*
X14050000Y-11339000D01*
X13965000Y-11254000D02*
X14135000Y-11254000D01*
X13965000Y-11565000D02*
X14135000Y-11735000D01*
X14135000Y-11565000D02*
X13965000Y-11735000D01*
X14050000Y-11565000D02*
X14050000Y-11735000D01*
X13965000Y-11650000D02*
X14135000Y-11650000D01*
X13965000Y-12569000D02*
X14135000Y-12739000D01*
X14135000Y-12569000D02*
X13965000Y-12739000D01*
X14050000Y-12569000D02*
X14050000Y-12739000D01*
X13965000Y-12654000D02*
X14135000Y-12654000D01*
X13965000Y-12965000D02*
X14135000Y-13135000D01*
X14135000Y-12965000D02*
X13965000Y-13135000D01*
X14050000Y-12965000D02*
X14050000Y-13135000D01*
X13965000Y-13050000D02*
X14135000Y-13050000D01*
X13970000Y-9839250D02*
X14140000Y-10009250D01*
X14140000Y-9839250D02*
X13970000Y-10009250D01*
X14055000Y-9839250D02*
X14055000Y-10009250D01*
X13970000Y-9924250D02*
X14140000Y-9924250D01*
X13970000Y-10235250D02*
X14140000Y-10405250D01*
X14140000Y-10235250D02*
X13970000Y-10405250D01*
X14055000Y-10235250D02*
X14055000Y-10405250D01*
X13970000Y-10320250D02*
X14140000Y-10320250D01*
X14090750Y-14420000D02*
X14260750Y-14590000D01*
X14260750Y-14420000D02*
X14090750Y-14590000D01*
X14175750Y-14420000D02*
X14175750Y-14590000D01*
X14090750Y-14505000D02*
X14260750Y-14505000D01*
D10*
X10700777Y-15721484D02*
X10700777Y-15521484D01*
X10700777Y-15521484D02*
X10748396Y-15521484D01*
X10748396Y-15521484D02*
X10776967Y-15531008D01*
X10776967Y-15531008D02*
X10796015Y-15550055D01*
X10796015Y-15550055D02*
X10805539Y-15569103D01*
X10805539Y-15569103D02*
X10815063Y-15607198D01*
X10815063Y-15607198D02*
X10815063Y-15635769D01*
X10815063Y-15635769D02*
X10805539Y-15673865D01*
X10805539Y-15673865D02*
X10796015Y-15692912D01*
X10796015Y-15692912D02*
X10776967Y-15711960D01*
X10776967Y-15711960D02*
X10748396Y-15721484D01*
X10748396Y-15721484D02*
X10700777Y-15721484D01*
X10900777Y-15721484D02*
X10900777Y-15588150D01*
X10900777Y-15626246D02*
X10910301Y-15607198D01*
X10910301Y-15607198D02*
X10919824Y-15597674D01*
X10919824Y-15597674D02*
X10938872Y-15588150D01*
X10938872Y-15588150D02*
X10957920Y-15588150D01*
X11024586Y-15721484D02*
X11024586Y-15588150D01*
X11024586Y-15521484D02*
X11015063Y-15531008D01*
X11015063Y-15531008D02*
X11024586Y-15540531D01*
X11024586Y-15540531D02*
X11034110Y-15531008D01*
X11034110Y-15531008D02*
X11024586Y-15521484D01*
X11024586Y-15521484D02*
X11024586Y-15540531D01*
X11148396Y-15721484D02*
X11129348Y-15711960D01*
X11129348Y-15711960D02*
X11119824Y-15692912D01*
X11119824Y-15692912D02*
X11119824Y-15521484D01*
X11253158Y-15721484D02*
X11234110Y-15711960D01*
X11234110Y-15711960D02*
X11224586Y-15692912D01*
X11224586Y-15692912D02*
X11224586Y-15521484D01*
X11481729Y-15721484D02*
X11481729Y-15521484D01*
X11481729Y-15521484D02*
X11548396Y-15664341D01*
X11548396Y-15664341D02*
X11615062Y-15521484D01*
X11615062Y-15521484D02*
X11615062Y-15721484D01*
X11796015Y-15721484D02*
X11796015Y-15616722D01*
X11796015Y-15616722D02*
X11786491Y-15597674D01*
X11786491Y-15597674D02*
X11767443Y-15588150D01*
X11767443Y-15588150D02*
X11729348Y-15588150D01*
X11729348Y-15588150D02*
X11710301Y-15597674D01*
X11796015Y-15711960D02*
X11776967Y-15721484D01*
X11776967Y-15721484D02*
X11729348Y-15721484D01*
X11729348Y-15721484D02*
X11710301Y-15711960D01*
X11710301Y-15711960D02*
X11700777Y-15692912D01*
X11700777Y-15692912D02*
X11700777Y-15673865D01*
X11700777Y-15673865D02*
X11710301Y-15654817D01*
X11710301Y-15654817D02*
X11729348Y-15645293D01*
X11729348Y-15645293D02*
X11776967Y-15645293D01*
X11776967Y-15645293D02*
X11796015Y-15635769D01*
X11891253Y-15588150D02*
X11891253Y-15788150D01*
X11891253Y-15597674D02*
X11910301Y-15588150D01*
X11910301Y-15588150D02*
X11948396Y-15588150D01*
X11948396Y-15588150D02*
X11967443Y-15597674D01*
X11967443Y-15597674D02*
X11976967Y-15607198D01*
X11976967Y-15607198D02*
X11986491Y-15626246D01*
X11986491Y-15626246D02*
X11986491Y-15683388D01*
X11986491Y-15683388D02*
X11976967Y-15702436D01*
X11976967Y-15702436D02*
X11967443Y-15711960D01*
X11967443Y-15711960D02*
X11948396Y-15721484D01*
X11948396Y-15721484D02*
X11910301Y-15721484D01*
X11910301Y-15721484D02*
X11891253Y-15711960D01*
X12072205Y-15702436D02*
X12081729Y-15711960D01*
X12081729Y-15711960D02*
X12072205Y-15721484D01*
X12072205Y-15721484D02*
X12062682Y-15711960D01*
X12062682Y-15711960D02*
X12072205Y-15702436D01*
X12072205Y-15702436D02*
X12072205Y-15721484D01*
X12072205Y-15597674D02*
X12081729Y-15607198D01*
X12081729Y-15607198D02*
X12072205Y-15616722D01*
X12072205Y-15616722D02*
X12062682Y-15607198D01*
X12062682Y-15607198D02*
X12072205Y-15597674D01*
X12072205Y-15597674D02*
X12072205Y-15616722D01*
D11*
X10370000Y-16015000D02*
X10440000Y-16085000D01*
X10440000Y-16015000D02*
X10370000Y-16085000D01*
D10*
X10738872Y-15941484D02*
X10757920Y-15941484D01*
X10757920Y-15941484D02*
X10776967Y-15951008D01*
X10776967Y-15951008D02*
X10786491Y-15960531D01*
X10786491Y-15960531D02*
X10796015Y-15979579D01*
X10796015Y-15979579D02*
X10805539Y-16017674D01*
X10805539Y-16017674D02*
X10805539Y-16065293D01*
X10805539Y-16065293D02*
X10796015Y-16103388D01*
X10796015Y-16103388D02*
X10786491Y-16122436D01*
X10786491Y-16122436D02*
X10776967Y-16131960D01*
X10776967Y-16131960D02*
X10757920Y-16141484D01*
X10757920Y-16141484D02*
X10738872Y-16141484D01*
X10738872Y-16141484D02*
X10719824Y-16131960D01*
X10719824Y-16131960D02*
X10710301Y-16122436D01*
X10710301Y-16122436D02*
X10700777Y-16103388D01*
X10700777Y-16103388D02*
X10691253Y-16065293D01*
X10691253Y-16065293D02*
X10691253Y-16017674D01*
X10691253Y-16017674D02*
X10700777Y-15979579D01*
X10700777Y-15979579D02*
X10710301Y-15960531D01*
X10710301Y-15960531D02*
X10719824Y-15951008D01*
X10719824Y-15951008D02*
X10738872Y-15941484D01*
X10891253Y-16122436D02*
X10900777Y-16131960D01*
X10900777Y-16131960D02*
X10891253Y-16141484D01*
X10891253Y-16141484D02*
X10881729Y-16131960D01*
X10881729Y-16131960D02*
X10891253Y-16122436D01*
X10891253Y-16122436D02*
X10891253Y-16141484D01*
X10967444Y-15941484D02*
X11100777Y-15941484D01*
X11100777Y-15941484D02*
X11015063Y-16141484D01*
X11215062Y-15941484D02*
X11234110Y-15941484D01*
X11234110Y-15941484D02*
X11253158Y-15951008D01*
X11253158Y-15951008D02*
X11262682Y-15960531D01*
X11262682Y-15960531D02*
X11272205Y-15979579D01*
X11272205Y-15979579D02*
X11281729Y-16017674D01*
X11281729Y-16017674D02*
X11281729Y-16065293D01*
X11281729Y-16065293D02*
X11272205Y-16103388D01*
X11272205Y-16103388D02*
X11262682Y-16122436D01*
X11262682Y-16122436D02*
X11253158Y-16131960D01*
X11253158Y-16131960D02*
X11234110Y-16141484D01*
X11234110Y-16141484D02*
X11215062Y-16141484D01*
X11215062Y-16141484D02*
X11196015Y-16131960D01*
X11196015Y-16131960D02*
X11186491Y-16122436D01*
X11186491Y-16122436D02*
X11176967Y-16103388D01*
X11176967Y-16103388D02*
X11167444Y-16065293D01*
X11167444Y-16065293D02*
X11167444Y-16017674D01*
X11167444Y-16017674D02*
X11176967Y-15979579D01*
X11176967Y-15979579D02*
X11186491Y-15960531D01*
X11186491Y-15960531D02*
X11196015Y-15951008D01*
X11196015Y-15951008D02*
X11215062Y-15941484D01*
X11405539Y-15941484D02*
X11424586Y-15941484D01*
X11424586Y-15941484D02*
X11443634Y-15951008D01*
X11443634Y-15951008D02*
X11453158Y-15960531D01*
X11453158Y-15960531D02*
X11462682Y-15979579D01*
X11462682Y-15979579D02*
X11472205Y-16017674D01*
X11472205Y-16017674D02*
X11472205Y-16065293D01*
X11472205Y-16065293D02*
X11462682Y-16103388D01*
X11462682Y-16103388D02*
X11453158Y-16122436D01*
X11453158Y-16122436D02*
X11443634Y-16131960D01*
X11443634Y-16131960D02*
X11424586Y-16141484D01*
X11424586Y-16141484D02*
X11405539Y-16141484D01*
X11405539Y-16141484D02*
X11386491Y-16131960D01*
X11386491Y-16131960D02*
X11376967Y-16122436D01*
X11376967Y-16122436D02*
X11367443Y-16103388D01*
X11367443Y-16103388D02*
X11357920Y-16065293D01*
X11357920Y-16065293D02*
X11357920Y-16017674D01*
X11357920Y-16017674D02*
X11367443Y-15979579D01*
X11367443Y-15979579D02*
X11376967Y-15960531D01*
X11376967Y-15960531D02*
X11386491Y-15951008D01*
X11386491Y-15951008D02*
X11405539Y-15941484D01*
X11557920Y-16141484D02*
X11557920Y-16008150D01*
X11557920Y-16027198D02*
X11567443Y-16017674D01*
X11567443Y-16017674D02*
X11586491Y-16008150D01*
X11586491Y-16008150D02*
X11615063Y-16008150D01*
X11615063Y-16008150D02*
X11634110Y-16017674D01*
X11634110Y-16017674D02*
X11643634Y-16036722D01*
X11643634Y-16036722D02*
X11643634Y-16141484D01*
X11643634Y-16036722D02*
X11653158Y-16017674D01*
X11653158Y-16017674D02*
X11672205Y-16008150D01*
X11672205Y-16008150D02*
X11700777Y-16008150D01*
X11700777Y-16008150D02*
X11719824Y-16017674D01*
X11719824Y-16017674D02*
X11729348Y-16036722D01*
X11729348Y-16036722D02*
X11729348Y-16141484D01*
X11824586Y-16141484D02*
X11824586Y-16008150D01*
X11824586Y-16027198D02*
X11834110Y-16017674D01*
X11834110Y-16017674D02*
X11853158Y-16008150D01*
X11853158Y-16008150D02*
X11881729Y-16008150D01*
X11881729Y-16008150D02*
X11900777Y-16017674D01*
X11900777Y-16017674D02*
X11910301Y-16036722D01*
X11910301Y-16036722D02*
X11910301Y-16141484D01*
X11910301Y-16036722D02*
X11919824Y-16017674D01*
X11919824Y-16017674D02*
X11938872Y-16008150D01*
X11938872Y-16008150D02*
X11967443Y-16008150D01*
X11967443Y-16008150D02*
X11986491Y-16017674D01*
X11986491Y-16017674D02*
X11996015Y-16036722D01*
X11996015Y-16036722D02*
X11996015Y-16141484D01*
X12386491Y-15931960D02*
X12215063Y-16189103D01*
X12643634Y-15941484D02*
X12662682Y-15941484D01*
X12662682Y-15941484D02*
X12681729Y-15951008D01*
X12681729Y-15951008D02*
X12691253Y-15960531D01*
X12691253Y-15960531D02*
X12700777Y-15979579D01*
X12700777Y-15979579D02*
X12710301Y-16017674D01*
X12710301Y-16017674D02*
X12710301Y-16065293D01*
X12710301Y-16065293D02*
X12700777Y-16103388D01*
X12700777Y-16103388D02*
X12691253Y-16122436D01*
X12691253Y-16122436D02*
X12681729Y-16131960D01*
X12681729Y-16131960D02*
X12662682Y-16141484D01*
X12662682Y-16141484D02*
X12643634Y-16141484D01*
X12643634Y-16141484D02*
X12624586Y-16131960D01*
X12624586Y-16131960D02*
X12615063Y-16122436D01*
X12615063Y-16122436D02*
X12605539Y-16103388D01*
X12605539Y-16103388D02*
X12596015Y-16065293D01*
X12596015Y-16065293D02*
X12596015Y-16017674D01*
X12596015Y-16017674D02*
X12605539Y-15979579D01*
X12605539Y-15979579D02*
X12615063Y-15960531D01*
X12615063Y-15960531D02*
X12624586Y-15951008D01*
X12624586Y-15951008D02*
X12643634Y-15941484D01*
X12796015Y-16122436D02*
X12805539Y-16131960D01*
X12805539Y-16131960D02*
X12796015Y-16141484D01*
X12796015Y-16141484D02*
X12786491Y-16131960D01*
X12786491Y-16131960D02*
X12796015Y-16122436D01*
X12796015Y-16122436D02*
X12796015Y-16141484D01*
X12929348Y-15941484D02*
X12948396Y-15941484D01*
X12948396Y-15941484D02*
X12967444Y-15951008D01*
X12967444Y-15951008D02*
X12976967Y-15960531D01*
X12976967Y-15960531D02*
X12986491Y-15979579D01*
X12986491Y-15979579D02*
X12996015Y-16017674D01*
X12996015Y-16017674D02*
X12996015Y-16065293D01*
X12996015Y-16065293D02*
X12986491Y-16103388D01*
X12986491Y-16103388D02*
X12976967Y-16122436D01*
X12976967Y-16122436D02*
X12967444Y-16131960D01*
X12967444Y-16131960D02*
X12948396Y-16141484D01*
X12948396Y-16141484D02*
X12929348Y-16141484D01*
X12929348Y-16141484D02*
X12910301Y-16131960D01*
X12910301Y-16131960D02*
X12900777Y-16122436D01*
X12900777Y-16122436D02*
X12891253Y-16103388D01*
X12891253Y-16103388D02*
X12881729Y-16065293D01*
X12881729Y-16065293D02*
X12881729Y-16017674D01*
X12881729Y-16017674D02*
X12891253Y-15979579D01*
X12891253Y-15979579D02*
X12900777Y-15960531D01*
X12900777Y-15960531D02*
X12910301Y-15951008D01*
X12910301Y-15951008D02*
X12929348Y-15941484D01*
X13072206Y-15960531D02*
X13081729Y-15951008D01*
X13081729Y-15951008D02*
X13100777Y-15941484D01*
X13100777Y-15941484D02*
X13148396Y-15941484D01*
X13148396Y-15941484D02*
X13167444Y-15951008D01*
X13167444Y-15951008D02*
X13176967Y-15960531D01*
X13176967Y-15960531D02*
X13186491Y-15979579D01*
X13186491Y-15979579D02*
X13186491Y-15998627D01*
X13186491Y-15998627D02*
X13176967Y-16027198D01*
X13176967Y-16027198D02*
X13062682Y-16141484D01*
X13062682Y-16141484D02*
X13186491Y-16141484D01*
X13253158Y-15941484D02*
X13386491Y-15941484D01*
X13386491Y-15941484D02*
X13300777Y-16141484D01*
X13548396Y-15941484D02*
X13510301Y-15941484D01*
X13510301Y-15941484D02*
X13491253Y-15951008D01*
X13491253Y-15951008D02*
X13481729Y-15960531D01*
X13481729Y-15960531D02*
X13462682Y-15989103D01*
X13462682Y-15989103D02*
X13453158Y-16027198D01*
X13453158Y-16027198D02*
X13453158Y-16103388D01*
X13453158Y-16103388D02*
X13462682Y-16122436D01*
X13462682Y-16122436D02*
X13472206Y-16131960D01*
X13472206Y-16131960D02*
X13491253Y-16141484D01*
X13491253Y-16141484D02*
X13529348Y-16141484D01*
X13529348Y-16141484D02*
X13548396Y-16131960D01*
X13548396Y-16131960D02*
X13557920Y-16122436D01*
X13557920Y-16122436D02*
X13567444Y-16103388D01*
X13567444Y-16103388D02*
X13567444Y-16055769D01*
X13567444Y-16055769D02*
X13557920Y-16036722D01*
X13557920Y-16036722D02*
X13548396Y-16027198D01*
X13548396Y-16027198D02*
X13529348Y-16017674D01*
X13529348Y-16017674D02*
X13491253Y-16017674D01*
X13491253Y-16017674D02*
X13472206Y-16027198D01*
X13472206Y-16027198D02*
X13462682Y-16036722D01*
X13462682Y-16036722D02*
X13453158Y-16055769D01*
X13643634Y-15941484D02*
X13643634Y-15979579D01*
X13719825Y-15941484D02*
X13719825Y-15979579D01*
X14015063Y-16217674D02*
X14005539Y-16208150D01*
X14005539Y-16208150D02*
X13986491Y-16179579D01*
X13986491Y-16179579D02*
X13976968Y-16160531D01*
X13976968Y-16160531D02*
X13967444Y-16131960D01*
X13967444Y-16131960D02*
X13957920Y-16084341D01*
X13957920Y-16084341D02*
X13957920Y-16046246D01*
X13957920Y-16046246D02*
X13967444Y-15998627D01*
X13967444Y-15998627D02*
X13976968Y-15970055D01*
X13976968Y-15970055D02*
X13986491Y-15951008D01*
X13986491Y-15951008D02*
X14005539Y-15922436D01*
X14005539Y-15922436D02*
X14015063Y-15912912D01*
X14081729Y-15960531D02*
X14091253Y-15951008D01*
X14091253Y-15951008D02*
X14110301Y-15941484D01*
X14110301Y-15941484D02*
X14157920Y-15941484D01*
X14157920Y-15941484D02*
X14176968Y-15951008D01*
X14176968Y-15951008D02*
X14186491Y-15960531D01*
X14186491Y-15960531D02*
X14196015Y-15979579D01*
X14196015Y-15979579D02*
X14196015Y-15998627D01*
X14196015Y-15998627D02*
X14186491Y-16027198D01*
X14186491Y-16027198D02*
X14072206Y-16141484D01*
X14072206Y-16141484D02*
X14196015Y-16141484D01*
X14434110Y-16141484D02*
X14434110Y-15941484D01*
X14519825Y-16141484D02*
X14519825Y-16036722D01*
X14519825Y-16036722D02*
X14510301Y-16017674D01*
X14510301Y-16017674D02*
X14491253Y-16008150D01*
X14491253Y-16008150D02*
X14462682Y-16008150D01*
X14462682Y-16008150D02*
X14443634Y-16017674D01*
X14443634Y-16017674D02*
X14434110Y-16027198D01*
X14643634Y-16141484D02*
X14624587Y-16131960D01*
X14624587Y-16131960D02*
X14615063Y-16122436D01*
X14615063Y-16122436D02*
X14605539Y-16103388D01*
X14605539Y-16103388D02*
X14605539Y-16046246D01*
X14605539Y-16046246D02*
X14615063Y-16027198D01*
X14615063Y-16027198D02*
X14624587Y-16017674D01*
X14624587Y-16017674D02*
X14643634Y-16008150D01*
X14643634Y-16008150D02*
X14672206Y-16008150D01*
X14672206Y-16008150D02*
X14691253Y-16017674D01*
X14691253Y-16017674D02*
X14700777Y-16027198D01*
X14700777Y-16027198D02*
X14710301Y-16046246D01*
X14710301Y-16046246D02*
X14710301Y-16103388D01*
X14710301Y-16103388D02*
X14700777Y-16122436D01*
X14700777Y-16122436D02*
X14691253Y-16131960D01*
X14691253Y-16131960D02*
X14672206Y-16141484D01*
X14672206Y-16141484D02*
X14643634Y-16141484D01*
X14824587Y-16141484D02*
X14805539Y-16131960D01*
X14805539Y-16131960D02*
X14796015Y-16112912D01*
X14796015Y-16112912D02*
X14796015Y-15941484D01*
X14976968Y-16131960D02*
X14957920Y-16141484D01*
X14957920Y-16141484D02*
X14919825Y-16141484D01*
X14919825Y-16141484D02*
X14900777Y-16131960D01*
X14900777Y-16131960D02*
X14891253Y-16112912D01*
X14891253Y-16112912D02*
X14891253Y-16036722D01*
X14891253Y-16036722D02*
X14900777Y-16017674D01*
X14900777Y-16017674D02*
X14919825Y-16008150D01*
X14919825Y-16008150D02*
X14957920Y-16008150D01*
X14957920Y-16008150D02*
X14976968Y-16017674D01*
X14976968Y-16017674D02*
X14986491Y-16036722D01*
X14986491Y-16036722D02*
X14986491Y-16055769D01*
X14986491Y-16055769D02*
X14891253Y-16074817D01*
X15062682Y-16131960D02*
X15081730Y-16141484D01*
X15081730Y-16141484D02*
X15119825Y-16141484D01*
X15119825Y-16141484D02*
X15138872Y-16131960D01*
X15138872Y-16131960D02*
X15148396Y-16112912D01*
X15148396Y-16112912D02*
X15148396Y-16103388D01*
X15148396Y-16103388D02*
X15138872Y-16084341D01*
X15138872Y-16084341D02*
X15119825Y-16074817D01*
X15119825Y-16074817D02*
X15091253Y-16074817D01*
X15091253Y-16074817D02*
X15072206Y-16065293D01*
X15072206Y-16065293D02*
X15062682Y-16046246D01*
X15062682Y-16046246D02*
X15062682Y-16036722D01*
X15062682Y-16036722D02*
X15072206Y-16017674D01*
X15072206Y-16017674D02*
X15091253Y-16008150D01*
X15091253Y-16008150D02*
X15119825Y-16008150D01*
X15119825Y-16008150D02*
X15138872Y-16017674D01*
X15215063Y-16217674D02*
X15224587Y-16208150D01*
X15224587Y-16208150D02*
X15243634Y-16179579D01*
X15243634Y-16179579D02*
X15253158Y-16160531D01*
X15253158Y-16160531D02*
X15262682Y-16131960D01*
X15262682Y-16131960D02*
X15272206Y-16084341D01*
X15272206Y-16084341D02*
X15272206Y-16046246D01*
X15272206Y-16046246D02*
X15262682Y-15998627D01*
X15262682Y-15998627D02*
X15253158Y-15970055D01*
X15253158Y-15970055D02*
X15243634Y-15951008D01*
X15243634Y-15951008D02*
X15224587Y-15922436D01*
X15224587Y-15922436D02*
X15215063Y-15912912D01*
D11*
X10440000Y-16314000D02*
G75*
G02*
X10365000Y-16314000I-37500J0D01*
G01*
X10365000Y-16314000D02*
G75*
G02*
X10440000Y-16314000I37500J0D01*
G01*
D10*
X10738872Y-16205484D02*
X10757920Y-16205484D01*
X10757920Y-16205484D02*
X10776967Y-16215008D01*
X10776967Y-16215008D02*
X10786491Y-16224531D01*
X10786491Y-16224531D02*
X10796015Y-16243579D01*
X10796015Y-16243579D02*
X10805539Y-16281674D01*
X10805539Y-16281674D02*
X10805539Y-16329293D01*
X10805539Y-16329293D02*
X10796015Y-16367388D01*
X10796015Y-16367388D02*
X10786491Y-16386436D01*
X10786491Y-16386436D02*
X10776967Y-16395960D01*
X10776967Y-16395960D02*
X10757920Y-16405484D01*
X10757920Y-16405484D02*
X10738872Y-16405484D01*
X10738872Y-16405484D02*
X10719824Y-16395960D01*
X10719824Y-16395960D02*
X10710301Y-16386436D01*
X10710301Y-16386436D02*
X10700777Y-16367388D01*
X10700777Y-16367388D02*
X10691253Y-16329293D01*
X10691253Y-16329293D02*
X10691253Y-16281674D01*
X10691253Y-16281674D02*
X10700777Y-16243579D01*
X10700777Y-16243579D02*
X10710301Y-16224531D01*
X10710301Y-16224531D02*
X10719824Y-16215008D01*
X10719824Y-16215008D02*
X10738872Y-16205484D01*
X10891253Y-16386436D02*
X10900777Y-16395960D01*
X10900777Y-16395960D02*
X10891253Y-16405484D01*
X10891253Y-16405484D02*
X10881729Y-16395960D01*
X10881729Y-16395960D02*
X10891253Y-16386436D01*
X10891253Y-16386436D02*
X10891253Y-16405484D01*
X10967444Y-16205484D02*
X11100777Y-16205484D01*
X11100777Y-16205484D02*
X11015063Y-16405484D01*
X11272205Y-16205484D02*
X11176967Y-16205484D01*
X11176967Y-16205484D02*
X11167444Y-16300722D01*
X11167444Y-16300722D02*
X11176967Y-16291198D01*
X11176967Y-16291198D02*
X11196015Y-16281674D01*
X11196015Y-16281674D02*
X11243634Y-16281674D01*
X11243634Y-16281674D02*
X11262682Y-16291198D01*
X11262682Y-16291198D02*
X11272205Y-16300722D01*
X11272205Y-16300722D02*
X11281729Y-16319769D01*
X11281729Y-16319769D02*
X11281729Y-16367388D01*
X11281729Y-16367388D02*
X11272205Y-16386436D01*
X11272205Y-16386436D02*
X11262682Y-16395960D01*
X11262682Y-16395960D02*
X11243634Y-16405484D01*
X11243634Y-16405484D02*
X11196015Y-16405484D01*
X11196015Y-16405484D02*
X11176967Y-16395960D01*
X11176967Y-16395960D02*
X11167444Y-16386436D01*
X11405539Y-16205484D02*
X11424586Y-16205484D01*
X11424586Y-16205484D02*
X11443634Y-16215008D01*
X11443634Y-16215008D02*
X11453158Y-16224531D01*
X11453158Y-16224531D02*
X11462682Y-16243579D01*
X11462682Y-16243579D02*
X11472205Y-16281674D01*
X11472205Y-16281674D02*
X11472205Y-16329293D01*
X11472205Y-16329293D02*
X11462682Y-16367388D01*
X11462682Y-16367388D02*
X11453158Y-16386436D01*
X11453158Y-16386436D02*
X11443634Y-16395960D01*
X11443634Y-16395960D02*
X11424586Y-16405484D01*
X11424586Y-16405484D02*
X11405539Y-16405484D01*
X11405539Y-16405484D02*
X11386491Y-16395960D01*
X11386491Y-16395960D02*
X11376967Y-16386436D01*
X11376967Y-16386436D02*
X11367443Y-16367388D01*
X11367443Y-16367388D02*
X11357920Y-16329293D01*
X11357920Y-16329293D02*
X11357920Y-16281674D01*
X11357920Y-16281674D02*
X11367443Y-16243579D01*
X11367443Y-16243579D02*
X11376967Y-16224531D01*
X11376967Y-16224531D02*
X11386491Y-16215008D01*
X11386491Y-16215008D02*
X11405539Y-16205484D01*
X11557920Y-16405484D02*
X11557920Y-16272150D01*
X11557920Y-16291198D02*
X11567443Y-16281674D01*
X11567443Y-16281674D02*
X11586491Y-16272150D01*
X11586491Y-16272150D02*
X11615063Y-16272150D01*
X11615063Y-16272150D02*
X11634110Y-16281674D01*
X11634110Y-16281674D02*
X11643634Y-16300722D01*
X11643634Y-16300722D02*
X11643634Y-16405484D01*
X11643634Y-16300722D02*
X11653158Y-16281674D01*
X11653158Y-16281674D02*
X11672205Y-16272150D01*
X11672205Y-16272150D02*
X11700777Y-16272150D01*
X11700777Y-16272150D02*
X11719824Y-16281674D01*
X11719824Y-16281674D02*
X11729348Y-16300722D01*
X11729348Y-16300722D02*
X11729348Y-16405484D01*
X11824586Y-16405484D02*
X11824586Y-16272150D01*
X11824586Y-16291198D02*
X11834110Y-16281674D01*
X11834110Y-16281674D02*
X11853158Y-16272150D01*
X11853158Y-16272150D02*
X11881729Y-16272150D01*
X11881729Y-16272150D02*
X11900777Y-16281674D01*
X11900777Y-16281674D02*
X11910301Y-16300722D01*
X11910301Y-16300722D02*
X11910301Y-16405484D01*
X11910301Y-16300722D02*
X11919824Y-16281674D01*
X11919824Y-16281674D02*
X11938872Y-16272150D01*
X11938872Y-16272150D02*
X11967443Y-16272150D01*
X11967443Y-16272150D02*
X11986491Y-16281674D01*
X11986491Y-16281674D02*
X11996015Y-16300722D01*
X11996015Y-16300722D02*
X11996015Y-16405484D01*
X12386491Y-16195960D02*
X12215063Y-16453103D01*
X12643634Y-16205484D02*
X12662682Y-16205484D01*
X12662682Y-16205484D02*
X12681729Y-16215008D01*
X12681729Y-16215008D02*
X12691253Y-16224531D01*
X12691253Y-16224531D02*
X12700777Y-16243579D01*
X12700777Y-16243579D02*
X12710301Y-16281674D01*
X12710301Y-16281674D02*
X12710301Y-16329293D01*
X12710301Y-16329293D02*
X12700777Y-16367388D01*
X12700777Y-16367388D02*
X12691253Y-16386436D01*
X12691253Y-16386436D02*
X12681729Y-16395960D01*
X12681729Y-16395960D02*
X12662682Y-16405484D01*
X12662682Y-16405484D02*
X12643634Y-16405484D01*
X12643634Y-16405484D02*
X12624586Y-16395960D01*
X12624586Y-16395960D02*
X12615063Y-16386436D01*
X12615063Y-16386436D02*
X12605539Y-16367388D01*
X12605539Y-16367388D02*
X12596015Y-16329293D01*
X12596015Y-16329293D02*
X12596015Y-16281674D01*
X12596015Y-16281674D02*
X12605539Y-16243579D01*
X12605539Y-16243579D02*
X12615063Y-16224531D01*
X12615063Y-16224531D02*
X12624586Y-16215008D01*
X12624586Y-16215008D02*
X12643634Y-16205484D01*
X12796015Y-16386436D02*
X12805539Y-16395960D01*
X12805539Y-16395960D02*
X12796015Y-16405484D01*
X12796015Y-16405484D02*
X12786491Y-16395960D01*
X12786491Y-16395960D02*
X12796015Y-16386436D01*
X12796015Y-16386436D02*
X12796015Y-16405484D01*
X12929348Y-16205484D02*
X12948396Y-16205484D01*
X12948396Y-16205484D02*
X12967444Y-16215008D01*
X12967444Y-16215008D02*
X12976967Y-16224531D01*
X12976967Y-16224531D02*
X12986491Y-16243579D01*
X12986491Y-16243579D02*
X12996015Y-16281674D01*
X12996015Y-16281674D02*
X12996015Y-16329293D01*
X12996015Y-16329293D02*
X12986491Y-16367388D01*
X12986491Y-16367388D02*
X12976967Y-16386436D01*
X12976967Y-16386436D02*
X12967444Y-16395960D01*
X12967444Y-16395960D02*
X12948396Y-16405484D01*
X12948396Y-16405484D02*
X12929348Y-16405484D01*
X12929348Y-16405484D02*
X12910301Y-16395960D01*
X12910301Y-16395960D02*
X12900777Y-16386436D01*
X12900777Y-16386436D02*
X12891253Y-16367388D01*
X12891253Y-16367388D02*
X12881729Y-16329293D01*
X12881729Y-16329293D02*
X12881729Y-16281674D01*
X12881729Y-16281674D02*
X12891253Y-16243579D01*
X12891253Y-16243579D02*
X12900777Y-16224531D01*
X12900777Y-16224531D02*
X12910301Y-16215008D01*
X12910301Y-16215008D02*
X12929348Y-16205484D01*
X13072206Y-16224531D02*
X13081729Y-16215008D01*
X13081729Y-16215008D02*
X13100777Y-16205484D01*
X13100777Y-16205484D02*
X13148396Y-16205484D01*
X13148396Y-16205484D02*
X13167444Y-16215008D01*
X13167444Y-16215008D02*
X13176967Y-16224531D01*
X13176967Y-16224531D02*
X13186491Y-16243579D01*
X13186491Y-16243579D02*
X13186491Y-16262627D01*
X13186491Y-16262627D02*
X13176967Y-16291198D01*
X13176967Y-16291198D02*
X13062682Y-16405484D01*
X13062682Y-16405484D02*
X13186491Y-16405484D01*
X13281729Y-16405484D02*
X13319825Y-16405484D01*
X13319825Y-16405484D02*
X13338872Y-16395960D01*
X13338872Y-16395960D02*
X13348396Y-16386436D01*
X13348396Y-16386436D02*
X13367444Y-16357865D01*
X13367444Y-16357865D02*
X13376967Y-16319769D01*
X13376967Y-16319769D02*
X13376967Y-16243579D01*
X13376967Y-16243579D02*
X13367444Y-16224531D01*
X13367444Y-16224531D02*
X13357920Y-16215008D01*
X13357920Y-16215008D02*
X13338872Y-16205484D01*
X13338872Y-16205484D02*
X13300777Y-16205484D01*
X13300777Y-16205484D02*
X13281729Y-16215008D01*
X13281729Y-16215008D02*
X13272206Y-16224531D01*
X13272206Y-16224531D02*
X13262682Y-16243579D01*
X13262682Y-16243579D02*
X13262682Y-16291198D01*
X13262682Y-16291198D02*
X13272206Y-16310246D01*
X13272206Y-16310246D02*
X13281729Y-16319769D01*
X13281729Y-16319769D02*
X13300777Y-16329293D01*
X13300777Y-16329293D02*
X13338872Y-16329293D01*
X13338872Y-16329293D02*
X13357920Y-16319769D01*
X13357920Y-16319769D02*
X13367444Y-16310246D01*
X13367444Y-16310246D02*
X13376967Y-16291198D01*
X13557920Y-16205484D02*
X13462682Y-16205484D01*
X13462682Y-16205484D02*
X13453158Y-16300722D01*
X13453158Y-16300722D02*
X13462682Y-16291198D01*
X13462682Y-16291198D02*
X13481729Y-16281674D01*
X13481729Y-16281674D02*
X13529348Y-16281674D01*
X13529348Y-16281674D02*
X13548396Y-16291198D01*
X13548396Y-16291198D02*
X13557920Y-16300722D01*
X13557920Y-16300722D02*
X13567444Y-16319769D01*
X13567444Y-16319769D02*
X13567444Y-16367388D01*
X13567444Y-16367388D02*
X13557920Y-16386436D01*
X13557920Y-16386436D02*
X13548396Y-16395960D01*
X13548396Y-16395960D02*
X13529348Y-16405484D01*
X13529348Y-16405484D02*
X13481729Y-16405484D01*
X13481729Y-16405484D02*
X13462682Y-16395960D01*
X13462682Y-16395960D02*
X13453158Y-16386436D01*
X13643634Y-16205484D02*
X13643634Y-16243579D01*
X13719825Y-16205484D02*
X13719825Y-16243579D01*
X14015063Y-16481674D02*
X14005539Y-16472150D01*
X14005539Y-16472150D02*
X13986491Y-16443579D01*
X13986491Y-16443579D02*
X13976968Y-16424531D01*
X13976968Y-16424531D02*
X13967444Y-16395960D01*
X13967444Y-16395960D02*
X13957920Y-16348341D01*
X13957920Y-16348341D02*
X13957920Y-16310246D01*
X13957920Y-16310246D02*
X13967444Y-16262627D01*
X13967444Y-16262627D02*
X13976968Y-16234055D01*
X13976968Y-16234055D02*
X13986491Y-16215008D01*
X13986491Y-16215008D02*
X14005539Y-16186436D01*
X14005539Y-16186436D02*
X14015063Y-16176912D01*
X14176968Y-16205484D02*
X14138872Y-16205484D01*
X14138872Y-16205484D02*
X14119825Y-16215008D01*
X14119825Y-16215008D02*
X14110301Y-16224531D01*
X14110301Y-16224531D02*
X14091253Y-16253103D01*
X14091253Y-16253103D02*
X14081729Y-16291198D01*
X14081729Y-16291198D02*
X14081729Y-16367388D01*
X14081729Y-16367388D02*
X14091253Y-16386436D01*
X14091253Y-16386436D02*
X14100777Y-16395960D01*
X14100777Y-16395960D02*
X14119825Y-16405484D01*
X14119825Y-16405484D02*
X14157920Y-16405484D01*
X14157920Y-16405484D02*
X14176968Y-16395960D01*
X14176968Y-16395960D02*
X14186491Y-16386436D01*
X14186491Y-16386436D02*
X14196015Y-16367388D01*
X14196015Y-16367388D02*
X14196015Y-16319769D01*
X14196015Y-16319769D02*
X14186491Y-16300722D01*
X14186491Y-16300722D02*
X14176968Y-16291198D01*
X14176968Y-16291198D02*
X14157920Y-16281674D01*
X14157920Y-16281674D02*
X14119825Y-16281674D01*
X14119825Y-16281674D02*
X14100777Y-16291198D01*
X14100777Y-16291198D02*
X14091253Y-16300722D01*
X14091253Y-16300722D02*
X14081729Y-16319769D01*
X14434110Y-16405484D02*
X14434110Y-16205484D01*
X14519825Y-16405484D02*
X14519825Y-16300722D01*
X14519825Y-16300722D02*
X14510301Y-16281674D01*
X14510301Y-16281674D02*
X14491253Y-16272150D01*
X14491253Y-16272150D02*
X14462682Y-16272150D01*
X14462682Y-16272150D02*
X14443634Y-16281674D01*
X14443634Y-16281674D02*
X14434110Y-16291198D01*
X14643634Y-16405484D02*
X14624587Y-16395960D01*
X14624587Y-16395960D02*
X14615063Y-16386436D01*
X14615063Y-16386436D02*
X14605539Y-16367388D01*
X14605539Y-16367388D02*
X14605539Y-16310246D01*
X14605539Y-16310246D02*
X14615063Y-16291198D01*
X14615063Y-16291198D02*
X14624587Y-16281674D01*
X14624587Y-16281674D02*
X14643634Y-16272150D01*
X14643634Y-16272150D02*
X14672206Y-16272150D01*
X14672206Y-16272150D02*
X14691253Y-16281674D01*
X14691253Y-16281674D02*
X14700777Y-16291198D01*
X14700777Y-16291198D02*
X14710301Y-16310246D01*
X14710301Y-16310246D02*
X14710301Y-16367388D01*
X14710301Y-16367388D02*
X14700777Y-16386436D01*
X14700777Y-16386436D02*
X14691253Y-16395960D01*
X14691253Y-16395960D02*
X14672206Y-16405484D01*
X14672206Y-16405484D02*
X14643634Y-16405484D01*
X14824587Y-16405484D02*
X14805539Y-16395960D01*
X14805539Y-16395960D02*
X14796015Y-16376912D01*
X14796015Y-16376912D02*
X14796015Y-16205484D01*
X14976968Y-16395960D02*
X14957920Y-16405484D01*
X14957920Y-16405484D02*
X14919825Y-16405484D01*
X14919825Y-16405484D02*
X14900777Y-16395960D01*
X14900777Y-16395960D02*
X14891253Y-16376912D01*
X14891253Y-16376912D02*
X14891253Y-16300722D01*
X14891253Y-16300722D02*
X14900777Y-16281674D01*
X14900777Y-16281674D02*
X14919825Y-16272150D01*
X14919825Y-16272150D02*
X14957920Y-16272150D01*
X14957920Y-16272150D02*
X14976968Y-16281674D01*
X14976968Y-16281674D02*
X14986491Y-16300722D01*
X14986491Y-16300722D02*
X14986491Y-16319769D01*
X14986491Y-16319769D02*
X14891253Y-16338817D01*
X15062682Y-16395960D02*
X15081730Y-16405484D01*
X15081730Y-16405484D02*
X15119825Y-16405484D01*
X15119825Y-16405484D02*
X15138872Y-16395960D01*
X15138872Y-16395960D02*
X15148396Y-16376912D01*
X15148396Y-16376912D02*
X15148396Y-16367388D01*
X15148396Y-16367388D02*
X15138872Y-16348341D01*
X15138872Y-16348341D02*
X15119825Y-16338817D01*
X15119825Y-16338817D02*
X15091253Y-16338817D01*
X15091253Y-16338817D02*
X15072206Y-16329293D01*
X15072206Y-16329293D02*
X15062682Y-16310246D01*
X15062682Y-16310246D02*
X15062682Y-16300722D01*
X15062682Y-16300722D02*
X15072206Y-16281674D01*
X15072206Y-16281674D02*
X15091253Y-16272150D01*
X15091253Y-16272150D02*
X15119825Y-16272150D01*
X15119825Y-16272150D02*
X15138872Y-16281674D01*
X15215063Y-16481674D02*
X15224587Y-16472150D01*
X15224587Y-16472150D02*
X15243634Y-16443579D01*
X15243634Y-16443579D02*
X15253158Y-16424531D01*
X15253158Y-16424531D02*
X15262682Y-16395960D01*
X15262682Y-16395960D02*
X15272206Y-16348341D01*
X15272206Y-16348341D02*
X15272206Y-16310246D01*
X15272206Y-16310246D02*
X15262682Y-16262627D01*
X15262682Y-16262627D02*
X15253158Y-16234055D01*
X15253158Y-16234055D02*
X15243634Y-16215008D01*
X15243634Y-16215008D02*
X15224587Y-16186436D01*
X15224587Y-16186436D02*
X15215063Y-16176912D01*
D11*
X10400000Y-16538000D02*
X10400000Y-16618000D01*
X10360000Y-16578000D02*
X10440000Y-16578000D01*
D10*
X10738872Y-16469484D02*
X10757920Y-16469484D01*
X10757920Y-16469484D02*
X10776967Y-16479008D01*
X10776967Y-16479008D02*
X10786491Y-16488531D01*
X10786491Y-16488531D02*
X10796015Y-16507579D01*
X10796015Y-16507579D02*
X10805539Y-16545674D01*
X10805539Y-16545674D02*
X10805539Y-16593293D01*
X10805539Y-16593293D02*
X10796015Y-16631388D01*
X10796015Y-16631388D02*
X10786491Y-16650436D01*
X10786491Y-16650436D02*
X10776967Y-16659960D01*
X10776967Y-16659960D02*
X10757920Y-16669484D01*
X10757920Y-16669484D02*
X10738872Y-16669484D01*
X10738872Y-16669484D02*
X10719824Y-16659960D01*
X10719824Y-16659960D02*
X10710301Y-16650436D01*
X10710301Y-16650436D02*
X10700777Y-16631388D01*
X10700777Y-16631388D02*
X10691253Y-16593293D01*
X10691253Y-16593293D02*
X10691253Y-16545674D01*
X10691253Y-16545674D02*
X10700777Y-16507579D01*
X10700777Y-16507579D02*
X10710301Y-16488531D01*
X10710301Y-16488531D02*
X10719824Y-16479008D01*
X10719824Y-16479008D02*
X10738872Y-16469484D01*
X10891253Y-16650436D02*
X10900777Y-16659960D01*
X10900777Y-16659960D02*
X10891253Y-16669484D01*
X10891253Y-16669484D02*
X10881729Y-16659960D01*
X10881729Y-16659960D02*
X10891253Y-16650436D01*
X10891253Y-16650436D02*
X10891253Y-16669484D01*
X11015063Y-16555198D02*
X10996015Y-16545674D01*
X10996015Y-16545674D02*
X10986491Y-16536150D01*
X10986491Y-16536150D02*
X10976967Y-16517103D01*
X10976967Y-16517103D02*
X10976967Y-16507579D01*
X10976967Y-16507579D02*
X10986491Y-16488531D01*
X10986491Y-16488531D02*
X10996015Y-16479008D01*
X10996015Y-16479008D02*
X11015063Y-16469484D01*
X11015063Y-16469484D02*
X11053158Y-16469484D01*
X11053158Y-16469484D02*
X11072205Y-16479008D01*
X11072205Y-16479008D02*
X11081729Y-16488531D01*
X11081729Y-16488531D02*
X11091253Y-16507579D01*
X11091253Y-16507579D02*
X11091253Y-16517103D01*
X11091253Y-16517103D02*
X11081729Y-16536150D01*
X11081729Y-16536150D02*
X11072205Y-16545674D01*
X11072205Y-16545674D02*
X11053158Y-16555198D01*
X11053158Y-16555198D02*
X11015063Y-16555198D01*
X11015063Y-16555198D02*
X10996015Y-16564722D01*
X10996015Y-16564722D02*
X10986491Y-16574246D01*
X10986491Y-16574246D02*
X10976967Y-16593293D01*
X10976967Y-16593293D02*
X10976967Y-16631388D01*
X10976967Y-16631388D02*
X10986491Y-16650436D01*
X10986491Y-16650436D02*
X10996015Y-16659960D01*
X10996015Y-16659960D02*
X11015063Y-16669484D01*
X11015063Y-16669484D02*
X11053158Y-16669484D01*
X11053158Y-16669484D02*
X11072205Y-16659960D01*
X11072205Y-16659960D02*
X11081729Y-16650436D01*
X11081729Y-16650436D02*
X11091253Y-16631388D01*
X11091253Y-16631388D02*
X11091253Y-16593293D01*
X11091253Y-16593293D02*
X11081729Y-16574246D01*
X11081729Y-16574246D02*
X11072205Y-16564722D01*
X11072205Y-16564722D02*
X11053158Y-16555198D01*
X11215062Y-16469484D02*
X11234110Y-16469484D01*
X11234110Y-16469484D02*
X11253158Y-16479008D01*
X11253158Y-16479008D02*
X11262682Y-16488531D01*
X11262682Y-16488531D02*
X11272205Y-16507579D01*
X11272205Y-16507579D02*
X11281729Y-16545674D01*
X11281729Y-16545674D02*
X11281729Y-16593293D01*
X11281729Y-16593293D02*
X11272205Y-16631388D01*
X11272205Y-16631388D02*
X11262682Y-16650436D01*
X11262682Y-16650436D02*
X11253158Y-16659960D01*
X11253158Y-16659960D02*
X11234110Y-16669484D01*
X11234110Y-16669484D02*
X11215062Y-16669484D01*
X11215062Y-16669484D02*
X11196015Y-16659960D01*
X11196015Y-16659960D02*
X11186491Y-16650436D01*
X11186491Y-16650436D02*
X11176967Y-16631388D01*
X11176967Y-16631388D02*
X11167444Y-16593293D01*
X11167444Y-16593293D02*
X11167444Y-16545674D01*
X11167444Y-16545674D02*
X11176967Y-16507579D01*
X11176967Y-16507579D02*
X11186491Y-16488531D01*
X11186491Y-16488531D02*
X11196015Y-16479008D01*
X11196015Y-16479008D02*
X11215062Y-16469484D01*
X11405539Y-16469484D02*
X11424586Y-16469484D01*
X11424586Y-16469484D02*
X11443634Y-16479008D01*
X11443634Y-16479008D02*
X11453158Y-16488531D01*
X11453158Y-16488531D02*
X11462682Y-16507579D01*
X11462682Y-16507579D02*
X11472205Y-16545674D01*
X11472205Y-16545674D02*
X11472205Y-16593293D01*
X11472205Y-16593293D02*
X11462682Y-16631388D01*
X11462682Y-16631388D02*
X11453158Y-16650436D01*
X11453158Y-16650436D02*
X11443634Y-16659960D01*
X11443634Y-16659960D02*
X11424586Y-16669484D01*
X11424586Y-16669484D02*
X11405539Y-16669484D01*
X11405539Y-16669484D02*
X11386491Y-16659960D01*
X11386491Y-16659960D02*
X11376967Y-16650436D01*
X11376967Y-16650436D02*
X11367443Y-16631388D01*
X11367443Y-16631388D02*
X11357920Y-16593293D01*
X11357920Y-16593293D02*
X11357920Y-16545674D01*
X11357920Y-16545674D02*
X11367443Y-16507579D01*
X11367443Y-16507579D02*
X11376967Y-16488531D01*
X11376967Y-16488531D02*
X11386491Y-16479008D01*
X11386491Y-16479008D02*
X11405539Y-16469484D01*
X11557920Y-16669484D02*
X11557920Y-16536150D01*
X11557920Y-16555198D02*
X11567443Y-16545674D01*
X11567443Y-16545674D02*
X11586491Y-16536150D01*
X11586491Y-16536150D02*
X11615063Y-16536150D01*
X11615063Y-16536150D02*
X11634110Y-16545674D01*
X11634110Y-16545674D02*
X11643634Y-16564722D01*
X11643634Y-16564722D02*
X11643634Y-16669484D01*
X11643634Y-16564722D02*
X11653158Y-16545674D01*
X11653158Y-16545674D02*
X11672205Y-16536150D01*
X11672205Y-16536150D02*
X11700777Y-16536150D01*
X11700777Y-16536150D02*
X11719824Y-16545674D01*
X11719824Y-16545674D02*
X11729348Y-16564722D01*
X11729348Y-16564722D02*
X11729348Y-16669484D01*
X11824586Y-16669484D02*
X11824586Y-16536150D01*
X11824586Y-16555198D02*
X11834110Y-16545674D01*
X11834110Y-16545674D02*
X11853158Y-16536150D01*
X11853158Y-16536150D02*
X11881729Y-16536150D01*
X11881729Y-16536150D02*
X11900777Y-16545674D01*
X11900777Y-16545674D02*
X11910301Y-16564722D01*
X11910301Y-16564722D02*
X11910301Y-16669484D01*
X11910301Y-16564722D02*
X11919824Y-16545674D01*
X11919824Y-16545674D02*
X11938872Y-16536150D01*
X11938872Y-16536150D02*
X11967443Y-16536150D01*
X11967443Y-16536150D02*
X11986491Y-16545674D01*
X11986491Y-16545674D02*
X11996015Y-16564722D01*
X11996015Y-16564722D02*
X11996015Y-16669484D01*
X12386491Y-16459960D02*
X12215063Y-16717103D01*
X12643634Y-16469484D02*
X12662682Y-16469484D01*
X12662682Y-16469484D02*
X12681729Y-16479008D01*
X12681729Y-16479008D02*
X12691253Y-16488531D01*
X12691253Y-16488531D02*
X12700777Y-16507579D01*
X12700777Y-16507579D02*
X12710301Y-16545674D01*
X12710301Y-16545674D02*
X12710301Y-16593293D01*
X12710301Y-16593293D02*
X12700777Y-16631388D01*
X12700777Y-16631388D02*
X12691253Y-16650436D01*
X12691253Y-16650436D02*
X12681729Y-16659960D01*
X12681729Y-16659960D02*
X12662682Y-16669484D01*
X12662682Y-16669484D02*
X12643634Y-16669484D01*
X12643634Y-16669484D02*
X12624586Y-16659960D01*
X12624586Y-16659960D02*
X12615063Y-16650436D01*
X12615063Y-16650436D02*
X12605539Y-16631388D01*
X12605539Y-16631388D02*
X12596015Y-16593293D01*
X12596015Y-16593293D02*
X12596015Y-16545674D01*
X12596015Y-16545674D02*
X12605539Y-16507579D01*
X12605539Y-16507579D02*
X12615063Y-16488531D01*
X12615063Y-16488531D02*
X12624586Y-16479008D01*
X12624586Y-16479008D02*
X12643634Y-16469484D01*
X12796015Y-16650436D02*
X12805539Y-16659960D01*
X12805539Y-16659960D02*
X12796015Y-16669484D01*
X12796015Y-16669484D02*
X12786491Y-16659960D01*
X12786491Y-16659960D02*
X12796015Y-16650436D01*
X12796015Y-16650436D02*
X12796015Y-16669484D01*
X12929348Y-16469484D02*
X12948396Y-16469484D01*
X12948396Y-16469484D02*
X12967444Y-16479008D01*
X12967444Y-16479008D02*
X12976967Y-16488531D01*
X12976967Y-16488531D02*
X12986491Y-16507579D01*
X12986491Y-16507579D02*
X12996015Y-16545674D01*
X12996015Y-16545674D02*
X12996015Y-16593293D01*
X12996015Y-16593293D02*
X12986491Y-16631388D01*
X12986491Y-16631388D02*
X12976967Y-16650436D01*
X12976967Y-16650436D02*
X12967444Y-16659960D01*
X12967444Y-16659960D02*
X12948396Y-16669484D01*
X12948396Y-16669484D02*
X12929348Y-16669484D01*
X12929348Y-16669484D02*
X12910301Y-16659960D01*
X12910301Y-16659960D02*
X12900777Y-16650436D01*
X12900777Y-16650436D02*
X12891253Y-16631388D01*
X12891253Y-16631388D02*
X12881729Y-16593293D01*
X12881729Y-16593293D02*
X12881729Y-16545674D01*
X12881729Y-16545674D02*
X12891253Y-16507579D01*
X12891253Y-16507579D02*
X12900777Y-16488531D01*
X12900777Y-16488531D02*
X12910301Y-16479008D01*
X12910301Y-16479008D02*
X12929348Y-16469484D01*
X13062682Y-16469484D02*
X13186491Y-16469484D01*
X13186491Y-16469484D02*
X13119825Y-16545674D01*
X13119825Y-16545674D02*
X13148396Y-16545674D01*
X13148396Y-16545674D02*
X13167444Y-16555198D01*
X13167444Y-16555198D02*
X13176967Y-16564722D01*
X13176967Y-16564722D02*
X13186491Y-16583769D01*
X13186491Y-16583769D02*
X13186491Y-16631388D01*
X13186491Y-16631388D02*
X13176967Y-16650436D01*
X13176967Y-16650436D02*
X13167444Y-16659960D01*
X13167444Y-16659960D02*
X13148396Y-16669484D01*
X13148396Y-16669484D02*
X13091253Y-16669484D01*
X13091253Y-16669484D02*
X13072206Y-16659960D01*
X13072206Y-16659960D02*
X13062682Y-16650436D01*
X13376967Y-16669484D02*
X13262682Y-16669484D01*
X13319825Y-16669484D02*
X13319825Y-16469484D01*
X13319825Y-16469484D02*
X13300777Y-16498055D01*
X13300777Y-16498055D02*
X13281729Y-16517103D01*
X13281729Y-16517103D02*
X13262682Y-16526627D01*
X13557920Y-16469484D02*
X13462682Y-16469484D01*
X13462682Y-16469484D02*
X13453158Y-16564722D01*
X13453158Y-16564722D02*
X13462682Y-16555198D01*
X13462682Y-16555198D02*
X13481729Y-16545674D01*
X13481729Y-16545674D02*
X13529348Y-16545674D01*
X13529348Y-16545674D02*
X13548396Y-16555198D01*
X13548396Y-16555198D02*
X13557920Y-16564722D01*
X13557920Y-16564722D02*
X13567444Y-16583769D01*
X13567444Y-16583769D02*
X13567444Y-16631388D01*
X13567444Y-16631388D02*
X13557920Y-16650436D01*
X13557920Y-16650436D02*
X13548396Y-16659960D01*
X13548396Y-16659960D02*
X13529348Y-16669484D01*
X13529348Y-16669484D02*
X13481729Y-16669484D01*
X13481729Y-16669484D02*
X13462682Y-16659960D01*
X13462682Y-16659960D02*
X13453158Y-16650436D01*
X13643634Y-16469484D02*
X13643634Y-16507579D01*
X13719825Y-16469484D02*
X13719825Y-16507579D01*
X14015063Y-16745674D02*
X14005539Y-16736150D01*
X14005539Y-16736150D02*
X13986491Y-16707579D01*
X13986491Y-16707579D02*
X13976968Y-16688531D01*
X13976968Y-16688531D02*
X13967444Y-16659960D01*
X13967444Y-16659960D02*
X13957920Y-16612341D01*
X13957920Y-16612341D02*
X13957920Y-16574246D01*
X13957920Y-16574246D02*
X13967444Y-16526627D01*
X13967444Y-16526627D02*
X13976968Y-16498055D01*
X13976968Y-16498055D02*
X13986491Y-16479008D01*
X13986491Y-16479008D02*
X14005539Y-16450436D01*
X14005539Y-16450436D02*
X14015063Y-16440912D01*
X14196015Y-16669484D02*
X14081729Y-16669484D01*
X14138872Y-16669484D02*
X14138872Y-16469484D01*
X14138872Y-16469484D02*
X14119825Y-16498055D01*
X14119825Y-16498055D02*
X14100777Y-16517103D01*
X14100777Y-16517103D02*
X14081729Y-16526627D01*
X14319825Y-16469484D02*
X14338872Y-16469484D01*
X14338872Y-16469484D02*
X14357920Y-16479008D01*
X14357920Y-16479008D02*
X14367444Y-16488531D01*
X14367444Y-16488531D02*
X14376968Y-16507579D01*
X14376968Y-16507579D02*
X14386491Y-16545674D01*
X14386491Y-16545674D02*
X14386491Y-16593293D01*
X14386491Y-16593293D02*
X14376968Y-16631388D01*
X14376968Y-16631388D02*
X14367444Y-16650436D01*
X14367444Y-16650436D02*
X14357920Y-16659960D01*
X14357920Y-16659960D02*
X14338872Y-16669484D01*
X14338872Y-16669484D02*
X14319825Y-16669484D01*
X14319825Y-16669484D02*
X14300777Y-16659960D01*
X14300777Y-16659960D02*
X14291253Y-16650436D01*
X14291253Y-16650436D02*
X14281729Y-16631388D01*
X14281729Y-16631388D02*
X14272206Y-16593293D01*
X14272206Y-16593293D02*
X14272206Y-16545674D01*
X14272206Y-16545674D02*
X14281729Y-16507579D01*
X14281729Y-16507579D02*
X14291253Y-16488531D01*
X14291253Y-16488531D02*
X14300777Y-16479008D01*
X14300777Y-16479008D02*
X14319825Y-16469484D01*
X14624587Y-16669484D02*
X14624587Y-16469484D01*
X14710301Y-16669484D02*
X14710301Y-16564722D01*
X14710301Y-16564722D02*
X14700777Y-16545674D01*
X14700777Y-16545674D02*
X14681730Y-16536150D01*
X14681730Y-16536150D02*
X14653158Y-16536150D01*
X14653158Y-16536150D02*
X14634110Y-16545674D01*
X14634110Y-16545674D02*
X14624587Y-16555198D01*
X14834110Y-16669484D02*
X14815063Y-16659960D01*
X14815063Y-16659960D02*
X14805539Y-16650436D01*
X14805539Y-16650436D02*
X14796015Y-16631388D01*
X14796015Y-16631388D02*
X14796015Y-16574246D01*
X14796015Y-16574246D02*
X14805539Y-16555198D01*
X14805539Y-16555198D02*
X14815063Y-16545674D01*
X14815063Y-16545674D02*
X14834110Y-16536150D01*
X14834110Y-16536150D02*
X14862682Y-16536150D01*
X14862682Y-16536150D02*
X14881730Y-16545674D01*
X14881730Y-16545674D02*
X14891253Y-16555198D01*
X14891253Y-16555198D02*
X14900777Y-16574246D01*
X14900777Y-16574246D02*
X14900777Y-16631388D01*
X14900777Y-16631388D02*
X14891253Y-16650436D01*
X14891253Y-16650436D02*
X14881730Y-16659960D01*
X14881730Y-16659960D02*
X14862682Y-16669484D01*
X14862682Y-16669484D02*
X14834110Y-16669484D01*
X15015063Y-16669484D02*
X14996015Y-16659960D01*
X14996015Y-16659960D02*
X14986491Y-16640912D01*
X14986491Y-16640912D02*
X14986491Y-16469484D01*
X15167444Y-16659960D02*
X15148396Y-16669484D01*
X15148396Y-16669484D02*
X15110301Y-16669484D01*
X15110301Y-16669484D02*
X15091253Y-16659960D01*
X15091253Y-16659960D02*
X15081730Y-16640912D01*
X15081730Y-16640912D02*
X15081730Y-16564722D01*
X15081730Y-16564722D02*
X15091253Y-16545674D01*
X15091253Y-16545674D02*
X15110301Y-16536150D01*
X15110301Y-16536150D02*
X15148396Y-16536150D01*
X15148396Y-16536150D02*
X15167444Y-16545674D01*
X15167444Y-16545674D02*
X15176968Y-16564722D01*
X15176968Y-16564722D02*
X15176968Y-16583769D01*
X15176968Y-16583769D02*
X15081730Y-16602817D01*
X15253158Y-16659960D02*
X15272206Y-16669484D01*
X15272206Y-16669484D02*
X15310301Y-16669484D01*
X15310301Y-16669484D02*
X15329349Y-16659960D01*
X15329349Y-16659960D02*
X15338872Y-16640912D01*
X15338872Y-16640912D02*
X15338872Y-16631388D01*
X15338872Y-16631388D02*
X15329349Y-16612341D01*
X15329349Y-16612341D02*
X15310301Y-16602817D01*
X15310301Y-16602817D02*
X15281730Y-16602817D01*
X15281730Y-16602817D02*
X15262682Y-16593293D01*
X15262682Y-16593293D02*
X15253158Y-16574246D01*
X15253158Y-16574246D02*
X15253158Y-16564722D01*
X15253158Y-16564722D02*
X15262682Y-16545674D01*
X15262682Y-16545674D02*
X15281730Y-16536150D01*
X15281730Y-16536150D02*
X15310301Y-16536150D01*
X15310301Y-16536150D02*
X15329349Y-16545674D01*
X15405539Y-16745674D02*
X15415063Y-16736150D01*
X15415063Y-16736150D02*
X15434111Y-16707579D01*
X15434111Y-16707579D02*
X15443634Y-16688531D01*
X15443634Y-16688531D02*
X15453158Y-16659960D01*
X15453158Y-16659960D02*
X15462682Y-16612341D01*
X15462682Y-16612341D02*
X15462682Y-16574246D01*
X15462682Y-16574246D02*
X15453158Y-16526627D01*
X15453158Y-16526627D02*
X15443634Y-16498055D01*
X15443634Y-16498055D02*
X15434111Y-16479008D01*
X15434111Y-16479008D02*
X15415063Y-16450436D01*
X15415063Y-16450436D02*
X15405539Y-16440912D01*
D11*
X10425356Y-16877356D02*
X10425356Y-16806644D01*
X10354644Y-16806644D01*
X10354644Y-16877356D01*
X10425356Y-16877356D01*
D10*
X10805539Y-16933484D02*
X10691253Y-16933484D01*
X10748396Y-16933484D02*
X10748396Y-16733484D01*
X10748396Y-16733484D02*
X10729348Y-16762055D01*
X10729348Y-16762055D02*
X10710301Y-16781103D01*
X10710301Y-16781103D02*
X10691253Y-16790627D01*
X10891253Y-16914436D02*
X10900777Y-16923960D01*
X10900777Y-16923960D02*
X10891253Y-16933484D01*
X10891253Y-16933484D02*
X10881729Y-16923960D01*
X10881729Y-16923960D02*
X10891253Y-16914436D01*
X10891253Y-16914436D02*
X10891253Y-16933484D01*
X11024586Y-16733484D02*
X11043634Y-16733484D01*
X11043634Y-16733484D02*
X11062682Y-16743008D01*
X11062682Y-16743008D02*
X11072205Y-16752531D01*
X11072205Y-16752531D02*
X11081729Y-16771579D01*
X11081729Y-16771579D02*
X11091253Y-16809674D01*
X11091253Y-16809674D02*
X11091253Y-16857293D01*
X11091253Y-16857293D02*
X11081729Y-16895389D01*
X11081729Y-16895389D02*
X11072205Y-16914436D01*
X11072205Y-16914436D02*
X11062682Y-16923960D01*
X11062682Y-16923960D02*
X11043634Y-16933484D01*
X11043634Y-16933484D02*
X11024586Y-16933484D01*
X11024586Y-16933484D02*
X11005539Y-16923960D01*
X11005539Y-16923960D02*
X10996015Y-16914436D01*
X10996015Y-16914436D02*
X10986491Y-16895389D01*
X10986491Y-16895389D02*
X10976967Y-16857293D01*
X10976967Y-16857293D02*
X10976967Y-16809674D01*
X10976967Y-16809674D02*
X10986491Y-16771579D01*
X10986491Y-16771579D02*
X10996015Y-16752531D01*
X10996015Y-16752531D02*
X11005539Y-16743008D01*
X11005539Y-16743008D02*
X11024586Y-16733484D01*
X11215062Y-16733484D02*
X11234110Y-16733484D01*
X11234110Y-16733484D02*
X11253158Y-16743008D01*
X11253158Y-16743008D02*
X11262682Y-16752531D01*
X11262682Y-16752531D02*
X11272205Y-16771579D01*
X11272205Y-16771579D02*
X11281729Y-16809674D01*
X11281729Y-16809674D02*
X11281729Y-16857293D01*
X11281729Y-16857293D02*
X11272205Y-16895389D01*
X11272205Y-16895389D02*
X11262682Y-16914436D01*
X11262682Y-16914436D02*
X11253158Y-16923960D01*
X11253158Y-16923960D02*
X11234110Y-16933484D01*
X11234110Y-16933484D02*
X11215062Y-16933484D01*
X11215062Y-16933484D02*
X11196015Y-16923960D01*
X11196015Y-16923960D02*
X11186491Y-16914436D01*
X11186491Y-16914436D02*
X11176967Y-16895389D01*
X11176967Y-16895389D02*
X11167444Y-16857293D01*
X11167444Y-16857293D02*
X11167444Y-16809674D01*
X11167444Y-16809674D02*
X11176967Y-16771579D01*
X11176967Y-16771579D02*
X11186491Y-16752531D01*
X11186491Y-16752531D02*
X11196015Y-16743008D01*
X11196015Y-16743008D02*
X11215062Y-16733484D01*
X11405539Y-16733484D02*
X11424586Y-16733484D01*
X11424586Y-16733484D02*
X11443634Y-16743008D01*
X11443634Y-16743008D02*
X11453158Y-16752531D01*
X11453158Y-16752531D02*
X11462682Y-16771579D01*
X11462682Y-16771579D02*
X11472205Y-16809674D01*
X11472205Y-16809674D02*
X11472205Y-16857293D01*
X11472205Y-16857293D02*
X11462682Y-16895389D01*
X11462682Y-16895389D02*
X11453158Y-16914436D01*
X11453158Y-16914436D02*
X11443634Y-16923960D01*
X11443634Y-16923960D02*
X11424586Y-16933484D01*
X11424586Y-16933484D02*
X11405539Y-16933484D01*
X11405539Y-16933484D02*
X11386491Y-16923960D01*
X11386491Y-16923960D02*
X11376967Y-16914436D01*
X11376967Y-16914436D02*
X11367443Y-16895389D01*
X11367443Y-16895389D02*
X11357920Y-16857293D01*
X11357920Y-16857293D02*
X11357920Y-16809674D01*
X11357920Y-16809674D02*
X11367443Y-16771579D01*
X11367443Y-16771579D02*
X11376967Y-16752531D01*
X11376967Y-16752531D02*
X11386491Y-16743008D01*
X11386491Y-16743008D02*
X11405539Y-16733484D01*
X11557920Y-16933484D02*
X11557920Y-16800150D01*
X11557920Y-16819198D02*
X11567443Y-16809674D01*
X11567443Y-16809674D02*
X11586491Y-16800150D01*
X11586491Y-16800150D02*
X11615063Y-16800150D01*
X11615063Y-16800150D02*
X11634110Y-16809674D01*
X11634110Y-16809674D02*
X11643634Y-16828722D01*
X11643634Y-16828722D02*
X11643634Y-16933484D01*
X11643634Y-16828722D02*
X11653158Y-16809674D01*
X11653158Y-16809674D02*
X11672205Y-16800150D01*
X11672205Y-16800150D02*
X11700777Y-16800150D01*
X11700777Y-16800150D02*
X11719824Y-16809674D01*
X11719824Y-16809674D02*
X11729348Y-16828722D01*
X11729348Y-16828722D02*
X11729348Y-16933484D01*
X11824586Y-16933484D02*
X11824586Y-16800150D01*
X11824586Y-16819198D02*
X11834110Y-16809674D01*
X11834110Y-16809674D02*
X11853158Y-16800150D01*
X11853158Y-16800150D02*
X11881729Y-16800150D01*
X11881729Y-16800150D02*
X11900777Y-16809674D01*
X11900777Y-16809674D02*
X11910301Y-16828722D01*
X11910301Y-16828722D02*
X11910301Y-16933484D01*
X11910301Y-16828722D02*
X11919824Y-16809674D01*
X11919824Y-16809674D02*
X11938872Y-16800150D01*
X11938872Y-16800150D02*
X11967443Y-16800150D01*
X11967443Y-16800150D02*
X11986491Y-16809674D01*
X11986491Y-16809674D02*
X11996015Y-16828722D01*
X11996015Y-16828722D02*
X11996015Y-16933484D01*
X12386491Y-16723960D02*
X12215063Y-16981103D01*
X12643634Y-16733484D02*
X12662682Y-16733484D01*
X12662682Y-16733484D02*
X12681729Y-16743008D01*
X12681729Y-16743008D02*
X12691253Y-16752531D01*
X12691253Y-16752531D02*
X12700777Y-16771579D01*
X12700777Y-16771579D02*
X12710301Y-16809674D01*
X12710301Y-16809674D02*
X12710301Y-16857293D01*
X12710301Y-16857293D02*
X12700777Y-16895389D01*
X12700777Y-16895389D02*
X12691253Y-16914436D01*
X12691253Y-16914436D02*
X12681729Y-16923960D01*
X12681729Y-16923960D02*
X12662682Y-16933484D01*
X12662682Y-16933484D02*
X12643634Y-16933484D01*
X12643634Y-16933484D02*
X12624586Y-16923960D01*
X12624586Y-16923960D02*
X12615063Y-16914436D01*
X12615063Y-16914436D02*
X12605539Y-16895389D01*
X12605539Y-16895389D02*
X12596015Y-16857293D01*
X12596015Y-16857293D02*
X12596015Y-16809674D01*
X12596015Y-16809674D02*
X12605539Y-16771579D01*
X12605539Y-16771579D02*
X12615063Y-16752531D01*
X12615063Y-16752531D02*
X12624586Y-16743008D01*
X12624586Y-16743008D02*
X12643634Y-16733484D01*
X12796015Y-16914436D02*
X12805539Y-16923960D01*
X12805539Y-16923960D02*
X12796015Y-16933484D01*
X12796015Y-16933484D02*
X12786491Y-16923960D01*
X12786491Y-16923960D02*
X12796015Y-16914436D01*
X12796015Y-16914436D02*
X12796015Y-16933484D01*
X12929348Y-16733484D02*
X12948396Y-16733484D01*
X12948396Y-16733484D02*
X12967444Y-16743008D01*
X12967444Y-16743008D02*
X12976967Y-16752531D01*
X12976967Y-16752531D02*
X12986491Y-16771579D01*
X12986491Y-16771579D02*
X12996015Y-16809674D01*
X12996015Y-16809674D02*
X12996015Y-16857293D01*
X12996015Y-16857293D02*
X12986491Y-16895389D01*
X12986491Y-16895389D02*
X12976967Y-16914436D01*
X12976967Y-16914436D02*
X12967444Y-16923960D01*
X12967444Y-16923960D02*
X12948396Y-16933484D01*
X12948396Y-16933484D02*
X12929348Y-16933484D01*
X12929348Y-16933484D02*
X12910301Y-16923960D01*
X12910301Y-16923960D02*
X12900777Y-16914436D01*
X12900777Y-16914436D02*
X12891253Y-16895389D01*
X12891253Y-16895389D02*
X12881729Y-16857293D01*
X12881729Y-16857293D02*
X12881729Y-16809674D01*
X12881729Y-16809674D02*
X12891253Y-16771579D01*
X12891253Y-16771579D02*
X12900777Y-16752531D01*
X12900777Y-16752531D02*
X12910301Y-16743008D01*
X12910301Y-16743008D02*
X12929348Y-16733484D01*
X13062682Y-16733484D02*
X13186491Y-16733484D01*
X13186491Y-16733484D02*
X13119825Y-16809674D01*
X13119825Y-16809674D02*
X13148396Y-16809674D01*
X13148396Y-16809674D02*
X13167444Y-16819198D01*
X13167444Y-16819198D02*
X13176967Y-16828722D01*
X13176967Y-16828722D02*
X13186491Y-16847770D01*
X13186491Y-16847770D02*
X13186491Y-16895389D01*
X13186491Y-16895389D02*
X13176967Y-16914436D01*
X13176967Y-16914436D02*
X13167444Y-16923960D01*
X13167444Y-16923960D02*
X13148396Y-16933484D01*
X13148396Y-16933484D02*
X13091253Y-16933484D01*
X13091253Y-16933484D02*
X13072206Y-16923960D01*
X13072206Y-16923960D02*
X13062682Y-16914436D01*
X13281729Y-16933484D02*
X13319825Y-16933484D01*
X13319825Y-16933484D02*
X13338872Y-16923960D01*
X13338872Y-16923960D02*
X13348396Y-16914436D01*
X13348396Y-16914436D02*
X13367444Y-16885865D01*
X13367444Y-16885865D02*
X13376967Y-16847770D01*
X13376967Y-16847770D02*
X13376967Y-16771579D01*
X13376967Y-16771579D02*
X13367444Y-16752531D01*
X13367444Y-16752531D02*
X13357920Y-16743008D01*
X13357920Y-16743008D02*
X13338872Y-16733484D01*
X13338872Y-16733484D02*
X13300777Y-16733484D01*
X13300777Y-16733484D02*
X13281729Y-16743008D01*
X13281729Y-16743008D02*
X13272206Y-16752531D01*
X13272206Y-16752531D02*
X13262682Y-16771579D01*
X13262682Y-16771579D02*
X13262682Y-16819198D01*
X13262682Y-16819198D02*
X13272206Y-16838246D01*
X13272206Y-16838246D02*
X13281729Y-16847770D01*
X13281729Y-16847770D02*
X13300777Y-16857293D01*
X13300777Y-16857293D02*
X13338872Y-16857293D01*
X13338872Y-16857293D02*
X13357920Y-16847770D01*
X13357920Y-16847770D02*
X13367444Y-16838246D01*
X13367444Y-16838246D02*
X13376967Y-16819198D01*
X13548396Y-16800150D02*
X13548396Y-16933484D01*
X13500777Y-16723960D02*
X13453158Y-16866817D01*
X13453158Y-16866817D02*
X13576967Y-16866817D01*
X13643634Y-16733484D02*
X13643634Y-16771579D01*
X13719825Y-16733484D02*
X13719825Y-16771579D01*
X14015063Y-17009674D02*
X14005539Y-17000150D01*
X14005539Y-17000150D02*
X13986491Y-16971579D01*
X13986491Y-16971579D02*
X13976968Y-16952531D01*
X13976968Y-16952531D02*
X13967444Y-16923960D01*
X13967444Y-16923960D02*
X13957920Y-16876341D01*
X13957920Y-16876341D02*
X13957920Y-16838246D01*
X13957920Y-16838246D02*
X13967444Y-16790627D01*
X13967444Y-16790627D02*
X13976968Y-16762055D01*
X13976968Y-16762055D02*
X13986491Y-16743008D01*
X13986491Y-16743008D02*
X14005539Y-16714436D01*
X14005539Y-16714436D02*
X14015063Y-16704912D01*
X14119825Y-16819198D02*
X14100777Y-16809674D01*
X14100777Y-16809674D02*
X14091253Y-16800150D01*
X14091253Y-16800150D02*
X14081729Y-16781103D01*
X14081729Y-16781103D02*
X14081729Y-16771579D01*
X14081729Y-16771579D02*
X14091253Y-16752531D01*
X14091253Y-16752531D02*
X14100777Y-16743008D01*
X14100777Y-16743008D02*
X14119825Y-16733484D01*
X14119825Y-16733484D02*
X14157920Y-16733484D01*
X14157920Y-16733484D02*
X14176968Y-16743008D01*
X14176968Y-16743008D02*
X14186491Y-16752531D01*
X14186491Y-16752531D02*
X14196015Y-16771579D01*
X14196015Y-16771579D02*
X14196015Y-16781103D01*
X14196015Y-16781103D02*
X14186491Y-16800150D01*
X14186491Y-16800150D02*
X14176968Y-16809674D01*
X14176968Y-16809674D02*
X14157920Y-16819198D01*
X14157920Y-16819198D02*
X14119825Y-16819198D01*
X14119825Y-16819198D02*
X14100777Y-16828722D01*
X14100777Y-16828722D02*
X14091253Y-16838246D01*
X14091253Y-16838246D02*
X14081729Y-16857293D01*
X14081729Y-16857293D02*
X14081729Y-16895389D01*
X14081729Y-16895389D02*
X14091253Y-16914436D01*
X14091253Y-16914436D02*
X14100777Y-16923960D01*
X14100777Y-16923960D02*
X14119825Y-16933484D01*
X14119825Y-16933484D02*
X14157920Y-16933484D01*
X14157920Y-16933484D02*
X14176968Y-16923960D01*
X14176968Y-16923960D02*
X14186491Y-16914436D01*
X14186491Y-16914436D02*
X14196015Y-16895389D01*
X14196015Y-16895389D02*
X14196015Y-16857293D01*
X14196015Y-16857293D02*
X14186491Y-16838246D01*
X14186491Y-16838246D02*
X14176968Y-16828722D01*
X14176968Y-16828722D02*
X14157920Y-16819198D01*
X14434110Y-16933484D02*
X14434110Y-16733484D01*
X14519825Y-16933484D02*
X14519825Y-16828722D01*
X14519825Y-16828722D02*
X14510301Y-16809674D01*
X14510301Y-16809674D02*
X14491253Y-16800150D01*
X14491253Y-16800150D02*
X14462682Y-16800150D01*
X14462682Y-16800150D02*
X14443634Y-16809674D01*
X14443634Y-16809674D02*
X14434110Y-16819198D01*
X14643634Y-16933484D02*
X14624587Y-16923960D01*
X14624587Y-16923960D02*
X14615063Y-16914436D01*
X14615063Y-16914436D02*
X14605539Y-16895389D01*
X14605539Y-16895389D02*
X14605539Y-16838246D01*
X14605539Y-16838246D02*
X14615063Y-16819198D01*
X14615063Y-16819198D02*
X14624587Y-16809674D01*
X14624587Y-16809674D02*
X14643634Y-16800150D01*
X14643634Y-16800150D02*
X14672206Y-16800150D01*
X14672206Y-16800150D02*
X14691253Y-16809674D01*
X14691253Y-16809674D02*
X14700777Y-16819198D01*
X14700777Y-16819198D02*
X14710301Y-16838246D01*
X14710301Y-16838246D02*
X14710301Y-16895389D01*
X14710301Y-16895389D02*
X14700777Y-16914436D01*
X14700777Y-16914436D02*
X14691253Y-16923960D01*
X14691253Y-16923960D02*
X14672206Y-16933484D01*
X14672206Y-16933484D02*
X14643634Y-16933484D01*
X14824587Y-16933484D02*
X14805539Y-16923960D01*
X14805539Y-16923960D02*
X14796015Y-16904912D01*
X14796015Y-16904912D02*
X14796015Y-16733484D01*
X14976968Y-16923960D02*
X14957920Y-16933484D01*
X14957920Y-16933484D02*
X14919825Y-16933484D01*
X14919825Y-16933484D02*
X14900777Y-16923960D01*
X14900777Y-16923960D02*
X14891253Y-16904912D01*
X14891253Y-16904912D02*
X14891253Y-16828722D01*
X14891253Y-16828722D02*
X14900777Y-16809674D01*
X14900777Y-16809674D02*
X14919825Y-16800150D01*
X14919825Y-16800150D02*
X14957920Y-16800150D01*
X14957920Y-16800150D02*
X14976968Y-16809674D01*
X14976968Y-16809674D02*
X14986491Y-16828722D01*
X14986491Y-16828722D02*
X14986491Y-16847770D01*
X14986491Y-16847770D02*
X14891253Y-16866817D01*
X15062682Y-16923960D02*
X15081730Y-16933484D01*
X15081730Y-16933484D02*
X15119825Y-16933484D01*
X15119825Y-16933484D02*
X15138872Y-16923960D01*
X15138872Y-16923960D02*
X15148396Y-16904912D01*
X15148396Y-16904912D02*
X15148396Y-16895389D01*
X15148396Y-16895389D02*
X15138872Y-16876341D01*
X15138872Y-16876341D02*
X15119825Y-16866817D01*
X15119825Y-16866817D02*
X15091253Y-16866817D01*
X15091253Y-16866817D02*
X15072206Y-16857293D01*
X15072206Y-16857293D02*
X15062682Y-16838246D01*
X15062682Y-16838246D02*
X15062682Y-16828722D01*
X15062682Y-16828722D02*
X15072206Y-16809674D01*
X15072206Y-16809674D02*
X15091253Y-16800150D01*
X15091253Y-16800150D02*
X15119825Y-16800150D01*
X15119825Y-16800150D02*
X15138872Y-16809674D01*
X15215063Y-17009674D02*
X15224587Y-17000150D01*
X15224587Y-17000150D02*
X15243634Y-16971579D01*
X15243634Y-16971579D02*
X15253158Y-16952531D01*
X15253158Y-16952531D02*
X15262682Y-16923960D01*
X15262682Y-16923960D02*
X15272206Y-16876341D01*
X15272206Y-16876341D02*
X15272206Y-16838246D01*
X15272206Y-16838246D02*
X15262682Y-16790627D01*
X15262682Y-16790627D02*
X15253158Y-16762055D01*
X15253158Y-16762055D02*
X15243634Y-16743008D01*
X15243634Y-16743008D02*
X15224587Y-16714436D01*
X15224587Y-16714436D02*
X15215063Y-16704912D01*
D12*
X10385000Y-17161000D02*
X10440000Y-17106000D01*
X10385000Y-17051000D01*
X10330000Y-17106000D01*
X10385000Y-17161000D01*
D10*
X10805539Y-17197484D02*
X10691253Y-17197484D01*
X10748396Y-17197484D02*
X10748396Y-16997484D01*
X10748396Y-16997484D02*
X10729348Y-17026055D01*
X10729348Y-17026055D02*
X10710301Y-17045103D01*
X10710301Y-17045103D02*
X10691253Y-17054627D01*
X10891253Y-17178436D02*
X10900777Y-17187960D01*
X10900777Y-17187960D02*
X10891253Y-17197484D01*
X10891253Y-17197484D02*
X10881729Y-17187960D01*
X10881729Y-17187960D02*
X10891253Y-17178436D01*
X10891253Y-17178436D02*
X10891253Y-17197484D01*
X11091253Y-17197484D02*
X10976967Y-17197484D01*
X11034110Y-17197484D02*
X11034110Y-16997484D01*
X11034110Y-16997484D02*
X11015063Y-17026055D01*
X11015063Y-17026055D02*
X10996015Y-17045103D01*
X10996015Y-17045103D02*
X10976967Y-17054627D01*
X11215062Y-16997484D02*
X11234110Y-16997484D01*
X11234110Y-16997484D02*
X11253158Y-17007008D01*
X11253158Y-17007008D02*
X11262682Y-17016531D01*
X11262682Y-17016531D02*
X11272205Y-17035579D01*
X11272205Y-17035579D02*
X11281729Y-17073674D01*
X11281729Y-17073674D02*
X11281729Y-17121293D01*
X11281729Y-17121293D02*
X11272205Y-17159389D01*
X11272205Y-17159389D02*
X11262682Y-17178436D01*
X11262682Y-17178436D02*
X11253158Y-17187960D01*
X11253158Y-17187960D02*
X11234110Y-17197484D01*
X11234110Y-17197484D02*
X11215062Y-17197484D01*
X11215062Y-17197484D02*
X11196015Y-17187960D01*
X11196015Y-17187960D02*
X11186491Y-17178436D01*
X11186491Y-17178436D02*
X11176967Y-17159389D01*
X11176967Y-17159389D02*
X11167444Y-17121293D01*
X11167444Y-17121293D02*
X11167444Y-17073674D01*
X11167444Y-17073674D02*
X11176967Y-17035579D01*
X11176967Y-17035579D02*
X11186491Y-17016531D01*
X11186491Y-17016531D02*
X11196015Y-17007008D01*
X11196015Y-17007008D02*
X11215062Y-16997484D01*
X11405539Y-16997484D02*
X11424586Y-16997484D01*
X11424586Y-16997484D02*
X11443634Y-17007008D01*
X11443634Y-17007008D02*
X11453158Y-17016531D01*
X11453158Y-17016531D02*
X11462682Y-17035579D01*
X11462682Y-17035579D02*
X11472205Y-17073674D01*
X11472205Y-17073674D02*
X11472205Y-17121293D01*
X11472205Y-17121293D02*
X11462682Y-17159389D01*
X11462682Y-17159389D02*
X11453158Y-17178436D01*
X11453158Y-17178436D02*
X11443634Y-17187960D01*
X11443634Y-17187960D02*
X11424586Y-17197484D01*
X11424586Y-17197484D02*
X11405539Y-17197484D01*
X11405539Y-17197484D02*
X11386491Y-17187960D01*
X11386491Y-17187960D02*
X11376967Y-17178436D01*
X11376967Y-17178436D02*
X11367443Y-17159389D01*
X11367443Y-17159389D02*
X11357920Y-17121293D01*
X11357920Y-17121293D02*
X11357920Y-17073674D01*
X11357920Y-17073674D02*
X11367443Y-17035579D01*
X11367443Y-17035579D02*
X11376967Y-17016531D01*
X11376967Y-17016531D02*
X11386491Y-17007008D01*
X11386491Y-17007008D02*
X11405539Y-16997484D01*
X11557920Y-17197484D02*
X11557920Y-17064150D01*
X11557920Y-17083198D02*
X11567443Y-17073674D01*
X11567443Y-17073674D02*
X11586491Y-17064150D01*
X11586491Y-17064150D02*
X11615063Y-17064150D01*
X11615063Y-17064150D02*
X11634110Y-17073674D01*
X11634110Y-17073674D02*
X11643634Y-17092722D01*
X11643634Y-17092722D02*
X11643634Y-17197484D01*
X11643634Y-17092722D02*
X11653158Y-17073674D01*
X11653158Y-17073674D02*
X11672205Y-17064150D01*
X11672205Y-17064150D02*
X11700777Y-17064150D01*
X11700777Y-17064150D02*
X11719824Y-17073674D01*
X11719824Y-17073674D02*
X11729348Y-17092722D01*
X11729348Y-17092722D02*
X11729348Y-17197484D01*
X11824586Y-17197484D02*
X11824586Y-17064150D01*
X11824586Y-17083198D02*
X11834110Y-17073674D01*
X11834110Y-17073674D02*
X11853158Y-17064150D01*
X11853158Y-17064150D02*
X11881729Y-17064150D01*
X11881729Y-17064150D02*
X11900777Y-17073674D01*
X11900777Y-17073674D02*
X11910301Y-17092722D01*
X11910301Y-17092722D02*
X11910301Y-17197484D01*
X11910301Y-17092722D02*
X11919824Y-17073674D01*
X11919824Y-17073674D02*
X11938872Y-17064150D01*
X11938872Y-17064150D02*
X11967443Y-17064150D01*
X11967443Y-17064150D02*
X11986491Y-17073674D01*
X11986491Y-17073674D02*
X11996015Y-17092722D01*
X11996015Y-17092722D02*
X11996015Y-17197484D01*
X12386491Y-16987960D02*
X12215063Y-17245103D01*
X12643634Y-16997484D02*
X12662682Y-16997484D01*
X12662682Y-16997484D02*
X12681729Y-17007008D01*
X12681729Y-17007008D02*
X12691253Y-17016531D01*
X12691253Y-17016531D02*
X12700777Y-17035579D01*
X12700777Y-17035579D02*
X12710301Y-17073674D01*
X12710301Y-17073674D02*
X12710301Y-17121293D01*
X12710301Y-17121293D02*
X12700777Y-17159389D01*
X12700777Y-17159389D02*
X12691253Y-17178436D01*
X12691253Y-17178436D02*
X12681729Y-17187960D01*
X12681729Y-17187960D02*
X12662682Y-17197484D01*
X12662682Y-17197484D02*
X12643634Y-17197484D01*
X12643634Y-17197484D02*
X12624586Y-17187960D01*
X12624586Y-17187960D02*
X12615063Y-17178436D01*
X12615063Y-17178436D02*
X12605539Y-17159389D01*
X12605539Y-17159389D02*
X12596015Y-17121293D01*
X12596015Y-17121293D02*
X12596015Y-17073674D01*
X12596015Y-17073674D02*
X12605539Y-17035579D01*
X12605539Y-17035579D02*
X12615063Y-17016531D01*
X12615063Y-17016531D02*
X12624586Y-17007008D01*
X12624586Y-17007008D02*
X12643634Y-16997484D01*
X12796015Y-17178436D02*
X12805539Y-17187960D01*
X12805539Y-17187960D02*
X12796015Y-17197484D01*
X12796015Y-17197484D02*
X12786491Y-17187960D01*
X12786491Y-17187960D02*
X12796015Y-17178436D01*
X12796015Y-17178436D02*
X12796015Y-17197484D01*
X12929348Y-16997484D02*
X12948396Y-16997484D01*
X12948396Y-16997484D02*
X12967444Y-17007008D01*
X12967444Y-17007008D02*
X12976967Y-17016531D01*
X12976967Y-17016531D02*
X12986491Y-17035579D01*
X12986491Y-17035579D02*
X12996015Y-17073674D01*
X12996015Y-17073674D02*
X12996015Y-17121293D01*
X12996015Y-17121293D02*
X12986491Y-17159389D01*
X12986491Y-17159389D02*
X12976967Y-17178436D01*
X12976967Y-17178436D02*
X12967444Y-17187960D01*
X12967444Y-17187960D02*
X12948396Y-17197484D01*
X12948396Y-17197484D02*
X12929348Y-17197484D01*
X12929348Y-17197484D02*
X12910301Y-17187960D01*
X12910301Y-17187960D02*
X12900777Y-17178436D01*
X12900777Y-17178436D02*
X12891253Y-17159389D01*
X12891253Y-17159389D02*
X12881729Y-17121293D01*
X12881729Y-17121293D02*
X12881729Y-17073674D01*
X12881729Y-17073674D02*
X12891253Y-17035579D01*
X12891253Y-17035579D02*
X12900777Y-17016531D01*
X12900777Y-17016531D02*
X12910301Y-17007008D01*
X12910301Y-17007008D02*
X12929348Y-16997484D01*
X13167444Y-17064150D02*
X13167444Y-17197484D01*
X13119825Y-16987960D02*
X13072206Y-17130817D01*
X13072206Y-17130817D02*
X13196015Y-17130817D01*
X13253158Y-16997484D02*
X13376967Y-16997484D01*
X13376967Y-16997484D02*
X13310301Y-17073674D01*
X13310301Y-17073674D02*
X13338872Y-17073674D01*
X13338872Y-17073674D02*
X13357920Y-17083198D01*
X13357920Y-17083198D02*
X13367444Y-17092722D01*
X13367444Y-17092722D02*
X13376967Y-17111770D01*
X13376967Y-17111770D02*
X13376967Y-17159389D01*
X13376967Y-17159389D02*
X13367444Y-17178436D01*
X13367444Y-17178436D02*
X13357920Y-17187960D01*
X13357920Y-17187960D02*
X13338872Y-17197484D01*
X13338872Y-17197484D02*
X13281729Y-17197484D01*
X13281729Y-17197484D02*
X13262682Y-17187960D01*
X13262682Y-17187960D02*
X13253158Y-17178436D01*
X13443634Y-16997484D02*
X13567444Y-16997484D01*
X13567444Y-16997484D02*
X13500777Y-17073674D01*
X13500777Y-17073674D02*
X13529348Y-17073674D01*
X13529348Y-17073674D02*
X13548396Y-17083198D01*
X13548396Y-17083198D02*
X13557920Y-17092722D01*
X13557920Y-17092722D02*
X13567444Y-17111770D01*
X13567444Y-17111770D02*
X13567444Y-17159389D01*
X13567444Y-17159389D02*
X13557920Y-17178436D01*
X13557920Y-17178436D02*
X13548396Y-17187960D01*
X13548396Y-17187960D02*
X13529348Y-17197484D01*
X13529348Y-17197484D02*
X13472206Y-17197484D01*
X13472206Y-17197484D02*
X13453158Y-17187960D01*
X13453158Y-17187960D02*
X13443634Y-17178436D01*
X13643634Y-16997484D02*
X13643634Y-17035579D01*
X13719825Y-16997484D02*
X13719825Y-17035579D01*
X14015063Y-17273674D02*
X14005539Y-17264150D01*
X14005539Y-17264150D02*
X13986491Y-17235579D01*
X13986491Y-17235579D02*
X13976968Y-17216531D01*
X13976968Y-17216531D02*
X13967444Y-17187960D01*
X13967444Y-17187960D02*
X13957920Y-17140341D01*
X13957920Y-17140341D02*
X13957920Y-17102246D01*
X13957920Y-17102246D02*
X13967444Y-17054627D01*
X13967444Y-17054627D02*
X13976968Y-17026055D01*
X13976968Y-17026055D02*
X13986491Y-17007008D01*
X13986491Y-17007008D02*
X14005539Y-16978436D01*
X14005539Y-16978436D02*
X14015063Y-16968912D01*
X14081729Y-17016531D02*
X14091253Y-17007008D01*
X14091253Y-17007008D02*
X14110301Y-16997484D01*
X14110301Y-16997484D02*
X14157920Y-16997484D01*
X14157920Y-16997484D02*
X14176968Y-17007008D01*
X14176968Y-17007008D02*
X14186491Y-17016531D01*
X14186491Y-17016531D02*
X14196015Y-17035579D01*
X14196015Y-17035579D02*
X14196015Y-17054627D01*
X14196015Y-17054627D02*
X14186491Y-17083198D01*
X14186491Y-17083198D02*
X14072206Y-17197484D01*
X14072206Y-17197484D02*
X14196015Y-17197484D01*
X14434110Y-17197484D02*
X14434110Y-16997484D01*
X14519825Y-17197484D02*
X14519825Y-17092722D01*
X14519825Y-17092722D02*
X14510301Y-17073674D01*
X14510301Y-17073674D02*
X14491253Y-17064150D01*
X14491253Y-17064150D02*
X14462682Y-17064150D01*
X14462682Y-17064150D02*
X14443634Y-17073674D01*
X14443634Y-17073674D02*
X14434110Y-17083198D01*
X14643634Y-17197484D02*
X14624587Y-17187960D01*
X14624587Y-17187960D02*
X14615063Y-17178436D01*
X14615063Y-17178436D02*
X14605539Y-17159389D01*
X14605539Y-17159389D02*
X14605539Y-17102246D01*
X14605539Y-17102246D02*
X14615063Y-17083198D01*
X14615063Y-17083198D02*
X14624587Y-17073674D01*
X14624587Y-17073674D02*
X14643634Y-17064150D01*
X14643634Y-17064150D02*
X14672206Y-17064150D01*
X14672206Y-17064150D02*
X14691253Y-17073674D01*
X14691253Y-17073674D02*
X14700777Y-17083198D01*
X14700777Y-17083198D02*
X14710301Y-17102246D01*
X14710301Y-17102246D02*
X14710301Y-17159389D01*
X14710301Y-17159389D02*
X14700777Y-17178436D01*
X14700777Y-17178436D02*
X14691253Y-17187960D01*
X14691253Y-17187960D02*
X14672206Y-17197484D01*
X14672206Y-17197484D02*
X14643634Y-17197484D01*
X14824587Y-17197484D02*
X14805539Y-17187960D01*
X14805539Y-17187960D02*
X14796015Y-17168912D01*
X14796015Y-17168912D02*
X14796015Y-16997484D01*
X14976968Y-17187960D02*
X14957920Y-17197484D01*
X14957920Y-17197484D02*
X14919825Y-17197484D01*
X14919825Y-17197484D02*
X14900777Y-17187960D01*
X14900777Y-17187960D02*
X14891253Y-17168912D01*
X14891253Y-17168912D02*
X14891253Y-17092722D01*
X14891253Y-17092722D02*
X14900777Y-17073674D01*
X14900777Y-17073674D02*
X14919825Y-17064150D01*
X14919825Y-17064150D02*
X14957920Y-17064150D01*
X14957920Y-17064150D02*
X14976968Y-17073674D01*
X14976968Y-17073674D02*
X14986491Y-17092722D01*
X14986491Y-17092722D02*
X14986491Y-17111770D01*
X14986491Y-17111770D02*
X14891253Y-17130817D01*
X15062682Y-17187960D02*
X15081730Y-17197484D01*
X15081730Y-17197484D02*
X15119825Y-17197484D01*
X15119825Y-17197484D02*
X15138872Y-17187960D01*
X15138872Y-17187960D02*
X15148396Y-17168912D01*
X15148396Y-17168912D02*
X15148396Y-17159389D01*
X15148396Y-17159389D02*
X15138872Y-17140341D01*
X15138872Y-17140341D02*
X15119825Y-17130817D01*
X15119825Y-17130817D02*
X15091253Y-17130817D01*
X15091253Y-17130817D02*
X15072206Y-17121293D01*
X15072206Y-17121293D02*
X15062682Y-17102246D01*
X15062682Y-17102246D02*
X15062682Y-17092722D01*
X15062682Y-17092722D02*
X15072206Y-17073674D01*
X15072206Y-17073674D02*
X15091253Y-17064150D01*
X15091253Y-17064150D02*
X15119825Y-17064150D01*
X15119825Y-17064150D02*
X15138872Y-17073674D01*
X15215063Y-17273674D02*
X15224587Y-17264150D01*
X15224587Y-17264150D02*
X15243634Y-17235579D01*
X15243634Y-17235579D02*
X15253158Y-17216531D01*
X15253158Y-17216531D02*
X15262682Y-17187960D01*
X15262682Y-17187960D02*
X15272206Y-17140341D01*
X15272206Y-17140341D02*
X15272206Y-17102246D01*
X15272206Y-17102246D02*
X15262682Y-17054627D01*
X15262682Y-17054627D02*
X15253158Y-17026055D01*
X15253158Y-17026055D02*
X15243634Y-17007008D01*
X15243634Y-17007008D02*
X15224587Y-16978436D01*
X15224587Y-16978436D02*
X15215063Y-16968912D01*
D13*
X10312000Y-17306000D02*
X10440000Y-17434000D01*
X10440000Y-17306000D02*
X10312000Y-17434000D01*
X10440000Y-17370000D02*
G75*
G02*
X10312000Y-17370000I-64000J0D01*
G01*
X10312000Y-17370000D02*
G75*
G02*
X10440000Y-17370000I64000J0D01*
G01*
D10*
X10805539Y-17461484D02*
X10691253Y-17461484D01*
X10748396Y-17461484D02*
X10748396Y-17261484D01*
X10748396Y-17261484D02*
X10729348Y-17290055D01*
X10729348Y-17290055D02*
X10710301Y-17309103D01*
X10710301Y-17309103D02*
X10691253Y-17318627D01*
X10891253Y-17442436D02*
X10900777Y-17451960D01*
X10900777Y-17451960D02*
X10891253Y-17461484D01*
X10891253Y-17461484D02*
X10881729Y-17451960D01*
X10881729Y-17451960D02*
X10891253Y-17442436D01*
X10891253Y-17442436D02*
X10891253Y-17461484D01*
X10976967Y-17280531D02*
X10986491Y-17271008D01*
X10986491Y-17271008D02*
X11005539Y-17261484D01*
X11005539Y-17261484D02*
X11053158Y-17261484D01*
X11053158Y-17261484D02*
X11072205Y-17271008D01*
X11072205Y-17271008D02*
X11081729Y-17280531D01*
X11081729Y-17280531D02*
X11091253Y-17299579D01*
X11091253Y-17299579D02*
X11091253Y-17318627D01*
X11091253Y-17318627D02*
X11081729Y-17347198D01*
X11081729Y-17347198D02*
X10967444Y-17461484D01*
X10967444Y-17461484D02*
X11091253Y-17461484D01*
X11205539Y-17347198D02*
X11186491Y-17337674D01*
X11186491Y-17337674D02*
X11176967Y-17328150D01*
X11176967Y-17328150D02*
X11167444Y-17309103D01*
X11167444Y-17309103D02*
X11167444Y-17299579D01*
X11167444Y-17299579D02*
X11176967Y-17280531D01*
X11176967Y-17280531D02*
X11186491Y-17271008D01*
X11186491Y-17271008D02*
X11205539Y-17261484D01*
X11205539Y-17261484D02*
X11243634Y-17261484D01*
X11243634Y-17261484D02*
X11262682Y-17271008D01*
X11262682Y-17271008D02*
X11272205Y-17280531D01*
X11272205Y-17280531D02*
X11281729Y-17299579D01*
X11281729Y-17299579D02*
X11281729Y-17309103D01*
X11281729Y-17309103D02*
X11272205Y-17328150D01*
X11272205Y-17328150D02*
X11262682Y-17337674D01*
X11262682Y-17337674D02*
X11243634Y-17347198D01*
X11243634Y-17347198D02*
X11205539Y-17347198D01*
X11205539Y-17347198D02*
X11186491Y-17356722D01*
X11186491Y-17356722D02*
X11176967Y-17366246D01*
X11176967Y-17366246D02*
X11167444Y-17385293D01*
X11167444Y-17385293D02*
X11167444Y-17423389D01*
X11167444Y-17423389D02*
X11176967Y-17442436D01*
X11176967Y-17442436D02*
X11186491Y-17451960D01*
X11186491Y-17451960D02*
X11205539Y-17461484D01*
X11205539Y-17461484D02*
X11243634Y-17461484D01*
X11243634Y-17461484D02*
X11262682Y-17451960D01*
X11262682Y-17451960D02*
X11272205Y-17442436D01*
X11272205Y-17442436D02*
X11281729Y-17423389D01*
X11281729Y-17423389D02*
X11281729Y-17385293D01*
X11281729Y-17385293D02*
X11272205Y-17366246D01*
X11272205Y-17366246D02*
X11262682Y-17356722D01*
X11262682Y-17356722D02*
X11243634Y-17347198D01*
X11405539Y-17261484D02*
X11424586Y-17261484D01*
X11424586Y-17261484D02*
X11443634Y-17271008D01*
X11443634Y-17271008D02*
X11453158Y-17280531D01*
X11453158Y-17280531D02*
X11462682Y-17299579D01*
X11462682Y-17299579D02*
X11472205Y-17337674D01*
X11472205Y-17337674D02*
X11472205Y-17385293D01*
X11472205Y-17385293D02*
X11462682Y-17423389D01*
X11462682Y-17423389D02*
X11453158Y-17442436D01*
X11453158Y-17442436D02*
X11443634Y-17451960D01*
X11443634Y-17451960D02*
X11424586Y-17461484D01*
X11424586Y-17461484D02*
X11405539Y-17461484D01*
X11405539Y-17461484D02*
X11386491Y-17451960D01*
X11386491Y-17451960D02*
X11376967Y-17442436D01*
X11376967Y-17442436D02*
X11367443Y-17423389D01*
X11367443Y-17423389D02*
X11357920Y-17385293D01*
X11357920Y-17385293D02*
X11357920Y-17337674D01*
X11357920Y-17337674D02*
X11367443Y-17299579D01*
X11367443Y-17299579D02*
X11376967Y-17280531D01*
X11376967Y-17280531D02*
X11386491Y-17271008D01*
X11386491Y-17271008D02*
X11405539Y-17261484D01*
X11557920Y-17461484D02*
X11557920Y-17328150D01*
X11557920Y-17347198D02*
X11567443Y-17337674D01*
X11567443Y-17337674D02*
X11586491Y-17328150D01*
X11586491Y-17328150D02*
X11615063Y-17328150D01*
X11615063Y-17328150D02*
X11634110Y-17337674D01*
X11634110Y-17337674D02*
X11643634Y-17356722D01*
X11643634Y-17356722D02*
X11643634Y-17461484D01*
X11643634Y-17356722D02*
X11653158Y-17337674D01*
X11653158Y-17337674D02*
X11672205Y-17328150D01*
X11672205Y-17328150D02*
X11700777Y-17328150D01*
X11700777Y-17328150D02*
X11719824Y-17337674D01*
X11719824Y-17337674D02*
X11729348Y-17356722D01*
X11729348Y-17356722D02*
X11729348Y-17461484D01*
X11824586Y-17461484D02*
X11824586Y-17328150D01*
X11824586Y-17347198D02*
X11834110Y-17337674D01*
X11834110Y-17337674D02*
X11853158Y-17328150D01*
X11853158Y-17328150D02*
X11881729Y-17328150D01*
X11881729Y-17328150D02*
X11900777Y-17337674D01*
X11900777Y-17337674D02*
X11910301Y-17356722D01*
X11910301Y-17356722D02*
X11910301Y-17461484D01*
X11910301Y-17356722D02*
X11919824Y-17337674D01*
X11919824Y-17337674D02*
X11938872Y-17328150D01*
X11938872Y-17328150D02*
X11967443Y-17328150D01*
X11967443Y-17328150D02*
X11986491Y-17337674D01*
X11986491Y-17337674D02*
X11996015Y-17356722D01*
X11996015Y-17356722D02*
X11996015Y-17461484D01*
X12386491Y-17251960D02*
X12215063Y-17509103D01*
X12643634Y-17261484D02*
X12662682Y-17261484D01*
X12662682Y-17261484D02*
X12681729Y-17271008D01*
X12681729Y-17271008D02*
X12691253Y-17280531D01*
X12691253Y-17280531D02*
X12700777Y-17299579D01*
X12700777Y-17299579D02*
X12710301Y-17337674D01*
X12710301Y-17337674D02*
X12710301Y-17385293D01*
X12710301Y-17385293D02*
X12700777Y-17423389D01*
X12700777Y-17423389D02*
X12691253Y-17442436D01*
X12691253Y-17442436D02*
X12681729Y-17451960D01*
X12681729Y-17451960D02*
X12662682Y-17461484D01*
X12662682Y-17461484D02*
X12643634Y-17461484D01*
X12643634Y-17461484D02*
X12624586Y-17451960D01*
X12624586Y-17451960D02*
X12615063Y-17442436D01*
X12615063Y-17442436D02*
X12605539Y-17423389D01*
X12605539Y-17423389D02*
X12596015Y-17385293D01*
X12596015Y-17385293D02*
X12596015Y-17337674D01*
X12596015Y-17337674D02*
X12605539Y-17299579D01*
X12605539Y-17299579D02*
X12615063Y-17280531D01*
X12615063Y-17280531D02*
X12624586Y-17271008D01*
X12624586Y-17271008D02*
X12643634Y-17261484D01*
X12796015Y-17442436D02*
X12805539Y-17451960D01*
X12805539Y-17451960D02*
X12796015Y-17461484D01*
X12796015Y-17461484D02*
X12786491Y-17451960D01*
X12786491Y-17451960D02*
X12796015Y-17442436D01*
X12796015Y-17442436D02*
X12796015Y-17461484D01*
X12929348Y-17261484D02*
X12948396Y-17261484D01*
X12948396Y-17261484D02*
X12967444Y-17271008D01*
X12967444Y-17271008D02*
X12976967Y-17280531D01*
X12976967Y-17280531D02*
X12986491Y-17299579D01*
X12986491Y-17299579D02*
X12996015Y-17337674D01*
X12996015Y-17337674D02*
X12996015Y-17385293D01*
X12996015Y-17385293D02*
X12986491Y-17423389D01*
X12986491Y-17423389D02*
X12976967Y-17442436D01*
X12976967Y-17442436D02*
X12967444Y-17451960D01*
X12967444Y-17451960D02*
X12948396Y-17461484D01*
X12948396Y-17461484D02*
X12929348Y-17461484D01*
X12929348Y-17461484D02*
X12910301Y-17451960D01*
X12910301Y-17451960D02*
X12900777Y-17442436D01*
X12900777Y-17442436D02*
X12891253Y-17423389D01*
X12891253Y-17423389D02*
X12881729Y-17385293D01*
X12881729Y-17385293D02*
X12881729Y-17337674D01*
X12881729Y-17337674D02*
X12891253Y-17299579D01*
X12891253Y-17299579D02*
X12900777Y-17280531D01*
X12900777Y-17280531D02*
X12910301Y-17271008D01*
X12910301Y-17271008D02*
X12929348Y-17261484D01*
X13176967Y-17261484D02*
X13081729Y-17261484D01*
X13081729Y-17261484D02*
X13072206Y-17356722D01*
X13072206Y-17356722D02*
X13081729Y-17347198D01*
X13081729Y-17347198D02*
X13100777Y-17337674D01*
X13100777Y-17337674D02*
X13148396Y-17337674D01*
X13148396Y-17337674D02*
X13167444Y-17347198D01*
X13167444Y-17347198D02*
X13176967Y-17356722D01*
X13176967Y-17356722D02*
X13186491Y-17375770D01*
X13186491Y-17375770D02*
X13186491Y-17423389D01*
X13186491Y-17423389D02*
X13176967Y-17442436D01*
X13176967Y-17442436D02*
X13167444Y-17451960D01*
X13167444Y-17451960D02*
X13148396Y-17461484D01*
X13148396Y-17461484D02*
X13100777Y-17461484D01*
X13100777Y-17461484D02*
X13081729Y-17451960D01*
X13081729Y-17451960D02*
X13072206Y-17442436D01*
X13310301Y-17261484D02*
X13329348Y-17261484D01*
X13329348Y-17261484D02*
X13348396Y-17271008D01*
X13348396Y-17271008D02*
X13357920Y-17280531D01*
X13357920Y-17280531D02*
X13367444Y-17299579D01*
X13367444Y-17299579D02*
X13376967Y-17337674D01*
X13376967Y-17337674D02*
X13376967Y-17385293D01*
X13376967Y-17385293D02*
X13367444Y-17423389D01*
X13367444Y-17423389D02*
X13357920Y-17442436D01*
X13357920Y-17442436D02*
X13348396Y-17451960D01*
X13348396Y-17451960D02*
X13329348Y-17461484D01*
X13329348Y-17461484D02*
X13310301Y-17461484D01*
X13310301Y-17461484D02*
X13291253Y-17451960D01*
X13291253Y-17451960D02*
X13281729Y-17442436D01*
X13281729Y-17442436D02*
X13272206Y-17423389D01*
X13272206Y-17423389D02*
X13262682Y-17385293D01*
X13262682Y-17385293D02*
X13262682Y-17337674D01*
X13262682Y-17337674D02*
X13272206Y-17299579D01*
X13272206Y-17299579D02*
X13281729Y-17280531D01*
X13281729Y-17280531D02*
X13291253Y-17271008D01*
X13291253Y-17271008D02*
X13310301Y-17261484D01*
X13548396Y-17328150D02*
X13548396Y-17461484D01*
X13500777Y-17251960D02*
X13453158Y-17394817D01*
X13453158Y-17394817D02*
X13576967Y-17394817D01*
X13643634Y-17261484D02*
X13643634Y-17299579D01*
X13719825Y-17261484D02*
X13719825Y-17299579D01*
X14015063Y-17537674D02*
X14005539Y-17528150D01*
X14005539Y-17528150D02*
X13986491Y-17499579D01*
X13986491Y-17499579D02*
X13976968Y-17480531D01*
X13976968Y-17480531D02*
X13967444Y-17451960D01*
X13967444Y-17451960D02*
X13957920Y-17404341D01*
X13957920Y-17404341D02*
X13957920Y-17366246D01*
X13957920Y-17366246D02*
X13967444Y-17318627D01*
X13967444Y-17318627D02*
X13976968Y-17290055D01*
X13976968Y-17290055D02*
X13986491Y-17271008D01*
X13986491Y-17271008D02*
X14005539Y-17242436D01*
X14005539Y-17242436D02*
X14015063Y-17232912D01*
X14072206Y-17261484D02*
X14196015Y-17261484D01*
X14196015Y-17261484D02*
X14129348Y-17337674D01*
X14129348Y-17337674D02*
X14157920Y-17337674D01*
X14157920Y-17337674D02*
X14176968Y-17347198D01*
X14176968Y-17347198D02*
X14186491Y-17356722D01*
X14186491Y-17356722D02*
X14196015Y-17375770D01*
X14196015Y-17375770D02*
X14196015Y-17423389D01*
X14196015Y-17423389D02*
X14186491Y-17442436D01*
X14186491Y-17442436D02*
X14176968Y-17451960D01*
X14176968Y-17451960D02*
X14157920Y-17461484D01*
X14157920Y-17461484D02*
X14100777Y-17461484D01*
X14100777Y-17461484D02*
X14081729Y-17451960D01*
X14081729Y-17451960D02*
X14072206Y-17442436D01*
X14434110Y-17461484D02*
X14434110Y-17261484D01*
X14519825Y-17461484D02*
X14519825Y-17356722D01*
X14519825Y-17356722D02*
X14510301Y-17337674D01*
X14510301Y-17337674D02*
X14491253Y-17328150D01*
X14491253Y-17328150D02*
X14462682Y-17328150D01*
X14462682Y-17328150D02*
X14443634Y-17337674D01*
X14443634Y-17337674D02*
X14434110Y-17347198D01*
X14643634Y-17461484D02*
X14624587Y-17451960D01*
X14624587Y-17451960D02*
X14615063Y-17442436D01*
X14615063Y-17442436D02*
X14605539Y-17423389D01*
X14605539Y-17423389D02*
X14605539Y-17366246D01*
X14605539Y-17366246D02*
X14615063Y-17347198D01*
X14615063Y-17347198D02*
X14624587Y-17337674D01*
X14624587Y-17337674D02*
X14643634Y-17328150D01*
X14643634Y-17328150D02*
X14672206Y-17328150D01*
X14672206Y-17328150D02*
X14691253Y-17337674D01*
X14691253Y-17337674D02*
X14700777Y-17347198D01*
X14700777Y-17347198D02*
X14710301Y-17366246D01*
X14710301Y-17366246D02*
X14710301Y-17423389D01*
X14710301Y-17423389D02*
X14700777Y-17442436D01*
X14700777Y-17442436D02*
X14691253Y-17451960D01*
X14691253Y-17451960D02*
X14672206Y-17461484D01*
X14672206Y-17461484D02*
X14643634Y-17461484D01*
X14824587Y-17461484D02*
X14805539Y-17451960D01*
X14805539Y-17451960D02*
X14796015Y-17432912D01*
X14796015Y-17432912D02*
X14796015Y-17261484D01*
X14976968Y-17451960D02*
X14957920Y-17461484D01*
X14957920Y-17461484D02*
X14919825Y-17461484D01*
X14919825Y-17461484D02*
X14900777Y-17451960D01*
X14900777Y-17451960D02*
X14891253Y-17432912D01*
X14891253Y-17432912D02*
X14891253Y-17356722D01*
X14891253Y-17356722D02*
X14900777Y-17337674D01*
X14900777Y-17337674D02*
X14919825Y-17328150D01*
X14919825Y-17328150D02*
X14957920Y-17328150D01*
X14957920Y-17328150D02*
X14976968Y-17337674D01*
X14976968Y-17337674D02*
X14986491Y-17356722D01*
X14986491Y-17356722D02*
X14986491Y-17375770D01*
X14986491Y-17375770D02*
X14891253Y-17394817D01*
X15062682Y-17451960D02*
X15081730Y-17461484D01*
X15081730Y-17461484D02*
X15119825Y-17461484D01*
X15119825Y-17461484D02*
X15138872Y-17451960D01*
X15138872Y-17451960D02*
X15148396Y-17432912D01*
X15148396Y-17432912D02*
X15148396Y-17423389D01*
X15148396Y-17423389D02*
X15138872Y-17404341D01*
X15138872Y-17404341D02*
X15119825Y-17394817D01*
X15119825Y-17394817D02*
X15091253Y-17394817D01*
X15091253Y-17394817D02*
X15072206Y-17385293D01*
X15072206Y-17385293D02*
X15062682Y-17366246D01*
X15062682Y-17366246D02*
X15062682Y-17356722D01*
X15062682Y-17356722D02*
X15072206Y-17337674D01*
X15072206Y-17337674D02*
X15091253Y-17328150D01*
X15091253Y-17328150D02*
X15119825Y-17328150D01*
X15119825Y-17328150D02*
X15138872Y-17337674D01*
X15215063Y-17537674D02*
X15224587Y-17528150D01*
X15224587Y-17528150D02*
X15243634Y-17499579D01*
X15243634Y-17499579D02*
X15253158Y-17480531D01*
X15253158Y-17480531D02*
X15262682Y-17451960D01*
X15262682Y-17451960D02*
X15272206Y-17404341D01*
X15272206Y-17404341D02*
X15272206Y-17366246D01*
X15272206Y-17366246D02*
X15262682Y-17318627D01*
X15262682Y-17318627D02*
X15253158Y-17290055D01*
X15253158Y-17290055D02*
X15243634Y-17271008D01*
X15243634Y-17271008D02*
X15224587Y-17242436D01*
X15224587Y-17242436D02*
X15215063Y-17232912D01*
D14*
X10270000Y-17549000D02*
X10440000Y-17719000D01*
X10440000Y-17549000D02*
X10270000Y-17719000D01*
X10355000Y-17549000D02*
X10355000Y-17719000D01*
X10270000Y-17634000D02*
X10440000Y-17634000D01*
D10*
X10805539Y-17725484D02*
X10691253Y-17725484D01*
X10748396Y-17725484D02*
X10748396Y-17525484D01*
X10748396Y-17525484D02*
X10729348Y-17554055D01*
X10729348Y-17554055D02*
X10710301Y-17573103D01*
X10710301Y-17573103D02*
X10691253Y-17582627D01*
X10891253Y-17706436D02*
X10900777Y-17715960D01*
X10900777Y-17715960D02*
X10891253Y-17725484D01*
X10891253Y-17725484D02*
X10881729Y-17715960D01*
X10881729Y-17715960D02*
X10891253Y-17706436D01*
X10891253Y-17706436D02*
X10891253Y-17725484D01*
X10967444Y-17525484D02*
X11100777Y-17525484D01*
X11100777Y-17525484D02*
X11015063Y-17725484D01*
X11215062Y-17525484D02*
X11234110Y-17525484D01*
X11234110Y-17525484D02*
X11253158Y-17535008D01*
X11253158Y-17535008D02*
X11262682Y-17544531D01*
X11262682Y-17544531D02*
X11272205Y-17563579D01*
X11272205Y-17563579D02*
X11281729Y-17601674D01*
X11281729Y-17601674D02*
X11281729Y-17649293D01*
X11281729Y-17649293D02*
X11272205Y-17687389D01*
X11272205Y-17687389D02*
X11262682Y-17706436D01*
X11262682Y-17706436D02*
X11253158Y-17715960D01*
X11253158Y-17715960D02*
X11234110Y-17725484D01*
X11234110Y-17725484D02*
X11215062Y-17725484D01*
X11215062Y-17725484D02*
X11196015Y-17715960D01*
X11196015Y-17715960D02*
X11186491Y-17706436D01*
X11186491Y-17706436D02*
X11176967Y-17687389D01*
X11176967Y-17687389D02*
X11167444Y-17649293D01*
X11167444Y-17649293D02*
X11167444Y-17601674D01*
X11167444Y-17601674D02*
X11176967Y-17563579D01*
X11176967Y-17563579D02*
X11186491Y-17544531D01*
X11186491Y-17544531D02*
X11196015Y-17535008D01*
X11196015Y-17535008D02*
X11215062Y-17525484D01*
X11405539Y-17525484D02*
X11424586Y-17525484D01*
X11424586Y-17525484D02*
X11443634Y-17535008D01*
X11443634Y-17535008D02*
X11453158Y-17544531D01*
X11453158Y-17544531D02*
X11462682Y-17563579D01*
X11462682Y-17563579D02*
X11472205Y-17601674D01*
X11472205Y-17601674D02*
X11472205Y-17649293D01*
X11472205Y-17649293D02*
X11462682Y-17687389D01*
X11462682Y-17687389D02*
X11453158Y-17706436D01*
X11453158Y-17706436D02*
X11443634Y-17715960D01*
X11443634Y-17715960D02*
X11424586Y-17725484D01*
X11424586Y-17725484D02*
X11405539Y-17725484D01*
X11405539Y-17725484D02*
X11386491Y-17715960D01*
X11386491Y-17715960D02*
X11376967Y-17706436D01*
X11376967Y-17706436D02*
X11367443Y-17687389D01*
X11367443Y-17687389D02*
X11357920Y-17649293D01*
X11357920Y-17649293D02*
X11357920Y-17601674D01*
X11357920Y-17601674D02*
X11367443Y-17563579D01*
X11367443Y-17563579D02*
X11376967Y-17544531D01*
X11376967Y-17544531D02*
X11386491Y-17535008D01*
X11386491Y-17535008D02*
X11405539Y-17525484D01*
X11557920Y-17725484D02*
X11557920Y-17592150D01*
X11557920Y-17611198D02*
X11567443Y-17601674D01*
X11567443Y-17601674D02*
X11586491Y-17592150D01*
X11586491Y-17592150D02*
X11615063Y-17592150D01*
X11615063Y-17592150D02*
X11634110Y-17601674D01*
X11634110Y-17601674D02*
X11643634Y-17620722D01*
X11643634Y-17620722D02*
X11643634Y-17725484D01*
X11643634Y-17620722D02*
X11653158Y-17601674D01*
X11653158Y-17601674D02*
X11672205Y-17592150D01*
X11672205Y-17592150D02*
X11700777Y-17592150D01*
X11700777Y-17592150D02*
X11719824Y-17601674D01*
X11719824Y-17601674D02*
X11729348Y-17620722D01*
X11729348Y-17620722D02*
X11729348Y-17725484D01*
X11824586Y-17725484D02*
X11824586Y-17592150D01*
X11824586Y-17611198D02*
X11834110Y-17601674D01*
X11834110Y-17601674D02*
X11853158Y-17592150D01*
X11853158Y-17592150D02*
X11881729Y-17592150D01*
X11881729Y-17592150D02*
X11900777Y-17601674D01*
X11900777Y-17601674D02*
X11910301Y-17620722D01*
X11910301Y-17620722D02*
X11910301Y-17725484D01*
X11910301Y-17620722D02*
X11919824Y-17601674D01*
X11919824Y-17601674D02*
X11938872Y-17592150D01*
X11938872Y-17592150D02*
X11967443Y-17592150D01*
X11967443Y-17592150D02*
X11986491Y-17601674D01*
X11986491Y-17601674D02*
X11996015Y-17620722D01*
X11996015Y-17620722D02*
X11996015Y-17725484D01*
X12386491Y-17515960D02*
X12215063Y-17773103D01*
X12643634Y-17525484D02*
X12662682Y-17525484D01*
X12662682Y-17525484D02*
X12681729Y-17535008D01*
X12681729Y-17535008D02*
X12691253Y-17544531D01*
X12691253Y-17544531D02*
X12700777Y-17563579D01*
X12700777Y-17563579D02*
X12710301Y-17601674D01*
X12710301Y-17601674D02*
X12710301Y-17649293D01*
X12710301Y-17649293D02*
X12700777Y-17687389D01*
X12700777Y-17687389D02*
X12691253Y-17706436D01*
X12691253Y-17706436D02*
X12681729Y-17715960D01*
X12681729Y-17715960D02*
X12662682Y-17725484D01*
X12662682Y-17725484D02*
X12643634Y-17725484D01*
X12643634Y-17725484D02*
X12624586Y-17715960D01*
X12624586Y-17715960D02*
X12615063Y-17706436D01*
X12615063Y-17706436D02*
X12605539Y-17687389D01*
X12605539Y-17687389D02*
X12596015Y-17649293D01*
X12596015Y-17649293D02*
X12596015Y-17601674D01*
X12596015Y-17601674D02*
X12605539Y-17563579D01*
X12605539Y-17563579D02*
X12615063Y-17544531D01*
X12615063Y-17544531D02*
X12624586Y-17535008D01*
X12624586Y-17535008D02*
X12643634Y-17525484D01*
X12796015Y-17706436D02*
X12805539Y-17715960D01*
X12805539Y-17715960D02*
X12796015Y-17725484D01*
X12796015Y-17725484D02*
X12786491Y-17715960D01*
X12786491Y-17715960D02*
X12796015Y-17706436D01*
X12796015Y-17706436D02*
X12796015Y-17725484D01*
X12929348Y-17525484D02*
X12948396Y-17525484D01*
X12948396Y-17525484D02*
X12967444Y-17535008D01*
X12967444Y-17535008D02*
X12976967Y-17544531D01*
X12976967Y-17544531D02*
X12986491Y-17563579D01*
X12986491Y-17563579D02*
X12996015Y-17601674D01*
X12996015Y-17601674D02*
X12996015Y-17649293D01*
X12996015Y-17649293D02*
X12986491Y-17687389D01*
X12986491Y-17687389D02*
X12976967Y-17706436D01*
X12976967Y-17706436D02*
X12967444Y-17715960D01*
X12967444Y-17715960D02*
X12948396Y-17725484D01*
X12948396Y-17725484D02*
X12929348Y-17725484D01*
X12929348Y-17725484D02*
X12910301Y-17715960D01*
X12910301Y-17715960D02*
X12900777Y-17706436D01*
X12900777Y-17706436D02*
X12891253Y-17687389D01*
X12891253Y-17687389D02*
X12881729Y-17649293D01*
X12881729Y-17649293D02*
X12881729Y-17601674D01*
X12881729Y-17601674D02*
X12891253Y-17563579D01*
X12891253Y-17563579D02*
X12900777Y-17544531D01*
X12900777Y-17544531D02*
X12910301Y-17535008D01*
X12910301Y-17535008D02*
X12929348Y-17525484D01*
X13167444Y-17525484D02*
X13129348Y-17525484D01*
X13129348Y-17525484D02*
X13110301Y-17535008D01*
X13110301Y-17535008D02*
X13100777Y-17544531D01*
X13100777Y-17544531D02*
X13081729Y-17573103D01*
X13081729Y-17573103D02*
X13072206Y-17611198D01*
X13072206Y-17611198D02*
X13072206Y-17687389D01*
X13072206Y-17687389D02*
X13081729Y-17706436D01*
X13081729Y-17706436D02*
X13091253Y-17715960D01*
X13091253Y-17715960D02*
X13110301Y-17725484D01*
X13110301Y-17725484D02*
X13148396Y-17725484D01*
X13148396Y-17725484D02*
X13167444Y-17715960D01*
X13167444Y-17715960D02*
X13176967Y-17706436D01*
X13176967Y-17706436D02*
X13186491Y-17687389D01*
X13186491Y-17687389D02*
X13186491Y-17639770D01*
X13186491Y-17639770D02*
X13176967Y-17620722D01*
X13176967Y-17620722D02*
X13167444Y-17611198D01*
X13167444Y-17611198D02*
X13148396Y-17601674D01*
X13148396Y-17601674D02*
X13110301Y-17601674D01*
X13110301Y-17601674D02*
X13091253Y-17611198D01*
X13091253Y-17611198D02*
X13081729Y-17620722D01*
X13081729Y-17620722D02*
X13072206Y-17639770D01*
X13357920Y-17525484D02*
X13319825Y-17525484D01*
X13319825Y-17525484D02*
X13300777Y-17535008D01*
X13300777Y-17535008D02*
X13291253Y-17544531D01*
X13291253Y-17544531D02*
X13272206Y-17573103D01*
X13272206Y-17573103D02*
X13262682Y-17611198D01*
X13262682Y-17611198D02*
X13262682Y-17687389D01*
X13262682Y-17687389D02*
X13272206Y-17706436D01*
X13272206Y-17706436D02*
X13281729Y-17715960D01*
X13281729Y-17715960D02*
X13300777Y-17725484D01*
X13300777Y-17725484D02*
X13338872Y-17725484D01*
X13338872Y-17725484D02*
X13357920Y-17715960D01*
X13357920Y-17715960D02*
X13367444Y-17706436D01*
X13367444Y-17706436D02*
X13376967Y-17687389D01*
X13376967Y-17687389D02*
X13376967Y-17639770D01*
X13376967Y-17639770D02*
X13367444Y-17620722D01*
X13367444Y-17620722D02*
X13357920Y-17611198D01*
X13357920Y-17611198D02*
X13338872Y-17601674D01*
X13338872Y-17601674D02*
X13300777Y-17601674D01*
X13300777Y-17601674D02*
X13281729Y-17611198D01*
X13281729Y-17611198D02*
X13272206Y-17620722D01*
X13272206Y-17620722D02*
X13262682Y-17639770D01*
X13472206Y-17725484D02*
X13510301Y-17725484D01*
X13510301Y-17725484D02*
X13529348Y-17715960D01*
X13529348Y-17715960D02*
X13538872Y-17706436D01*
X13538872Y-17706436D02*
X13557920Y-17677865D01*
X13557920Y-17677865D02*
X13567444Y-17639770D01*
X13567444Y-17639770D02*
X13567444Y-17563579D01*
X13567444Y-17563579D02*
X13557920Y-17544531D01*
X13557920Y-17544531D02*
X13548396Y-17535008D01*
X13548396Y-17535008D02*
X13529348Y-17525484D01*
X13529348Y-17525484D02*
X13491253Y-17525484D01*
X13491253Y-17525484D02*
X13472206Y-17535008D01*
X13472206Y-17535008D02*
X13462682Y-17544531D01*
X13462682Y-17544531D02*
X13453158Y-17563579D01*
X13453158Y-17563579D02*
X13453158Y-17611198D01*
X13453158Y-17611198D02*
X13462682Y-17630246D01*
X13462682Y-17630246D02*
X13472206Y-17639770D01*
X13472206Y-17639770D02*
X13491253Y-17649293D01*
X13491253Y-17649293D02*
X13529348Y-17649293D01*
X13529348Y-17649293D02*
X13548396Y-17639770D01*
X13548396Y-17639770D02*
X13557920Y-17630246D01*
X13557920Y-17630246D02*
X13567444Y-17611198D01*
X13643634Y-17525484D02*
X13643634Y-17563579D01*
X13719825Y-17525484D02*
X13719825Y-17563579D01*
X14015063Y-17801674D02*
X14005539Y-17792150D01*
X14005539Y-17792150D02*
X13986491Y-17763579D01*
X13986491Y-17763579D02*
X13976968Y-17744531D01*
X13976968Y-17744531D02*
X13967444Y-17715960D01*
X13967444Y-17715960D02*
X13957920Y-17668341D01*
X13957920Y-17668341D02*
X13957920Y-17630246D01*
X13957920Y-17630246D02*
X13967444Y-17582627D01*
X13967444Y-17582627D02*
X13976968Y-17554055D01*
X13976968Y-17554055D02*
X13986491Y-17535008D01*
X13986491Y-17535008D02*
X14005539Y-17506436D01*
X14005539Y-17506436D02*
X14015063Y-17496912D01*
X14196015Y-17725484D02*
X14081729Y-17725484D01*
X14138872Y-17725484D02*
X14138872Y-17525484D01*
X14138872Y-17525484D02*
X14119825Y-17554055D01*
X14119825Y-17554055D02*
X14100777Y-17573103D01*
X14100777Y-17573103D02*
X14081729Y-17582627D01*
X14367444Y-17592150D02*
X14367444Y-17725484D01*
X14319825Y-17515960D02*
X14272206Y-17658817D01*
X14272206Y-17658817D02*
X14396015Y-17658817D01*
X14624587Y-17725484D02*
X14624587Y-17525484D01*
X14710301Y-17725484D02*
X14710301Y-17620722D01*
X14710301Y-17620722D02*
X14700777Y-17601674D01*
X14700777Y-17601674D02*
X14681730Y-17592150D01*
X14681730Y-17592150D02*
X14653158Y-17592150D01*
X14653158Y-17592150D02*
X14634110Y-17601674D01*
X14634110Y-17601674D02*
X14624587Y-17611198D01*
X14834110Y-17725484D02*
X14815063Y-17715960D01*
X14815063Y-17715960D02*
X14805539Y-17706436D01*
X14805539Y-17706436D02*
X14796015Y-17687389D01*
X14796015Y-17687389D02*
X14796015Y-17630246D01*
X14796015Y-17630246D02*
X14805539Y-17611198D01*
X14805539Y-17611198D02*
X14815063Y-17601674D01*
X14815063Y-17601674D02*
X14834110Y-17592150D01*
X14834110Y-17592150D02*
X14862682Y-17592150D01*
X14862682Y-17592150D02*
X14881730Y-17601674D01*
X14881730Y-17601674D02*
X14891253Y-17611198D01*
X14891253Y-17611198D02*
X14900777Y-17630246D01*
X14900777Y-17630246D02*
X14900777Y-17687389D01*
X14900777Y-17687389D02*
X14891253Y-17706436D01*
X14891253Y-17706436D02*
X14881730Y-17715960D01*
X14881730Y-17715960D02*
X14862682Y-17725484D01*
X14862682Y-17725484D02*
X14834110Y-17725484D01*
X15015063Y-17725484D02*
X14996015Y-17715960D01*
X14996015Y-17715960D02*
X14986491Y-17696912D01*
X14986491Y-17696912D02*
X14986491Y-17525484D01*
X15167444Y-17715960D02*
X15148396Y-17725484D01*
X15148396Y-17725484D02*
X15110301Y-17725484D01*
X15110301Y-17725484D02*
X15091253Y-17715960D01*
X15091253Y-17715960D02*
X15081730Y-17696912D01*
X15081730Y-17696912D02*
X15081730Y-17620722D01*
X15081730Y-17620722D02*
X15091253Y-17601674D01*
X15091253Y-17601674D02*
X15110301Y-17592150D01*
X15110301Y-17592150D02*
X15148396Y-17592150D01*
X15148396Y-17592150D02*
X15167444Y-17601674D01*
X15167444Y-17601674D02*
X15176968Y-17620722D01*
X15176968Y-17620722D02*
X15176968Y-17639770D01*
X15176968Y-17639770D02*
X15081730Y-17658817D01*
X15253158Y-17715960D02*
X15272206Y-17725484D01*
X15272206Y-17725484D02*
X15310301Y-17725484D01*
X15310301Y-17725484D02*
X15329349Y-17715960D01*
X15329349Y-17715960D02*
X15338872Y-17696912D01*
X15338872Y-17696912D02*
X15338872Y-17687389D01*
X15338872Y-17687389D02*
X15329349Y-17668341D01*
X15329349Y-17668341D02*
X15310301Y-17658817D01*
X15310301Y-17658817D02*
X15281730Y-17658817D01*
X15281730Y-17658817D02*
X15262682Y-17649293D01*
X15262682Y-17649293D02*
X15253158Y-17630246D01*
X15253158Y-17630246D02*
X15253158Y-17620722D01*
X15253158Y-17620722D02*
X15262682Y-17601674D01*
X15262682Y-17601674D02*
X15281730Y-17592150D01*
X15281730Y-17592150D02*
X15310301Y-17592150D01*
X15310301Y-17592150D02*
X15329349Y-17601674D01*
X15405539Y-17801674D02*
X15415063Y-17792150D01*
X15415063Y-17792150D02*
X15434111Y-17763579D01*
X15434111Y-17763579D02*
X15443634Y-17744531D01*
X15443634Y-17744531D02*
X15453158Y-17715960D01*
X15453158Y-17715960D02*
X15462682Y-17668341D01*
X15462682Y-17668341D02*
X15462682Y-17630246D01*
X15462682Y-17630246D02*
X15453158Y-17582627D01*
X15453158Y-17582627D02*
X15443634Y-17554055D01*
X15443634Y-17554055D02*
X15434111Y-17535008D01*
X15434111Y-17535008D02*
X15415063Y-17506436D01*
X15415063Y-17506436D02*
X15405539Y-17496912D01*
M02*
