M48
; DRILL file {KiCad 8.0.8-8.0.8-0~ubuntu24.04.1} date 2025-01-20T22:44:06-0300
; FORMAT={-:-/ absolute / metric / decimal}
; #@! TF.CreationDate,2025-01-20T22:44:06-03:00
; #@! TF.GenerationSoftware,Kicad,Pcbnew,8.0.8-8.0.8-0~ubuntu24.04.1
; #@! TF.FileFunction,Plated,1,2,PTH
FMAT,2
METRIC
; #@! TA.AperFunction,Plated,PTH,ComponentDrill
T1C0.700
; #@! TA.AperFunction,Plated,PTH,ComponentDrill
T2C0.750
; #@! TA.AperFunction,Plated,PTH,ComponentDrill
T3C0.800
; #@! TA.AperFunction,Plated,PTH,ComponentDrill
T4C1.000
; #@! TA.AperFunction,Plated,PTH,ComponentDrill
T5C1.100
; #@! TA.AperFunction,Plated,PTH,ComponentDrill
T6C1.280
; #@! TA.AperFunction,Plated,PTH,ComponentDrill
T7C1.700
%
G90
G05
T1
X128.095Y-106.5
X129.995Y-106.5
T2
X138.64Y-82.23
X138.64Y-83.5
X138.64Y-84.77
X138.665Y-65.48
X138.665Y-66.75
X138.665Y-68.02
T3
X123.05Y-114.703
X125.05Y-114.703
X125.25Y-70.5
X125.475Y-81.75
X125.5Y-63.5
X125.5Y-89.0
X127.75Y-70.5
X127.975Y-81.75
X128.0Y-63.5
X128.0Y-89.0
T4
X112.975Y-82.75
X112.975Y-85.25
X113.0Y-66.0
X113.0Y-68.5
X113.0Y-95.0
X113.0Y-97.5
X124.05Y-126.203
X129.13Y-126.203
T5
X115.34Y-135.0
X125.5Y-135.0
T6
X115.0Y-108.92
X115.0Y-111.46
X115.0Y-114.0
T7
X111.297Y-145.702
X113.0Y-123.742
X113.0Y-127.703
X115.257Y-145.702
X122.0Y-145.702
X125.96Y-145.702
X137.797Y-145.05
X140.5Y-112.54
X140.5Y-116.5
X140.5Y-126.54
X140.5Y-130.5
X140.55Y-99.242
X140.55Y-103.203
X141.757Y-145.05
M30
