%TF.GenerationSoftware,KiCad,Pcbnew,8.0.8-8.0.8-0~ubuntu24.04.1*%
%TF.CreationDate,2025-01-20T22:43:32-03:00*%
%TF.ProjectId,Power,506f7765-722e-46b6-9963-61645f706362,rev?*%
%TF.SameCoordinates,Original*%
%TF.FileFunction,Copper,L1,Top*%
%TF.FilePolarity,Positive*%
%FSLAX46Y46*%
G04 Gerber Fmt 4.6, Leading zero omitted, Abs format (unit mm)*
G04 Created by KiCad (PCBNEW 8.0.8-8.0.8-0~ubuntu24.04.1) date 2025-01-20 22:43:32*
%MOMM*%
%LPD*%
G01*
G04 APERTURE LIST*
G04 Aperture macros list*
%AMRoundRect*
0 Rectangle with rounded corners*
0 $1 Rounding radius*
0 $2 $3 $4 $5 $6 $7 $8 $9 X,Y pos of 4 corners*
0 Add a 4 corners polygon primitive as box body*
4,1,4,$2,$3,$4,$5,$6,$7,$8,$9,$2,$3,0*
0 Add four circle primitives for the rounded corners*
1,1,$1+$1,$2,$3*
1,1,$1+$1,$4,$5*
1,1,$1+$1,$6,$7*
1,1,$1+$1,$8,$9*
0 Add four rect primitives between the rounded corners*
20,1,$1+$1,$2,$3,$4,$5,0*
20,1,$1+$1,$4,$5,$6,$7,0*
20,1,$1+$1,$6,$7,$8,$9,0*
20,1,$1+$1,$8,$9,$2,$3,0*%
G04 Aperture macros list end*
%TA.AperFunction,ComponentPad*%
%ADD10RoundRect,0.250000X0.750000X-0.600000X0.750000X0.600000X-0.750000X0.600000X-0.750000X-0.600000X0*%
%TD*%
%TA.AperFunction,ComponentPad*%
%ADD11O,2.000000X1.700000*%
%TD*%
%TA.AperFunction,ComponentPad*%
%ADD12R,2.200000X2.200000*%
%TD*%
%TA.AperFunction,ComponentPad*%
%ADD13O,2.200000X2.200000*%
%TD*%
%TA.AperFunction,ComponentPad*%
%ADD14RoundRect,0.250001X-1.099999X1.099999X-1.099999X-1.099999X1.099999X-1.099999X1.099999X1.099999X0*%
%TD*%
%TA.AperFunction,ComponentPad*%
%ADD15C,2.700000*%
%TD*%
%TA.AperFunction,ComponentPad*%
%ADD16RoundRect,0.250001X1.099999X1.099999X-1.099999X1.099999X-1.099999X-1.099999X1.099999X-1.099999X0*%
%TD*%
%TA.AperFunction,ComponentPad*%
%ADD17R,1.920000X1.920000*%
%TD*%
%TA.AperFunction,ComponentPad*%
%ADD18C,1.920000*%
%TD*%
%TA.AperFunction,ComponentPad*%
%ADD19C,1.600000*%
%TD*%
%TA.AperFunction,ComponentPad*%
%ADD20R,1.500000X1.050000*%
%TD*%
%TA.AperFunction,ComponentPad*%
%ADD21O,1.500000X1.050000*%
%TD*%
%TA.AperFunction,ComponentPad*%
%ADD22RoundRect,0.250001X1.099999X-1.099999X1.099999X1.099999X-1.099999X1.099999X-1.099999X-1.099999X0*%
%TD*%
%TA.AperFunction,ComponentPad*%
%ADD23C,2.000000*%
%TD*%
%TA.AperFunction,ComponentPad*%
%ADD24C,1.400000*%
%TD*%
%TA.AperFunction,ComponentPad*%
%ADD25O,1.400000X1.400000*%
%TD*%
G04 APERTURE END LIST*
D10*
%TO.P,PLC_5,1,Pin_1*%
%TO.N,/GND*%
X113000000Y-97500000D03*
D11*
%TO.P,PLC_5,2,Pin_2*%
%TO.N,/5V*%
X113000000Y-95000000D03*
%TD*%
D12*
%TO.P,1N4007,1,K*%
%TO.N,/Motor*%
X125500000Y-135000000D03*
D13*
%TO.P,1N4007,2,A*%
%TO.N,/GND*%
X115340000Y-135000000D03*
%TD*%
D14*
%TO.P,J1,1,Pin_1*%
%TO.N,/Gate*%
X140500000Y-112540000D03*
D15*
%TO.P,J1,2,Pin_2*%
%TO.N,/12V*%
X140500000Y-116500000D03*
%TD*%
D16*
%TO.P,Accept1,1,Pin_1*%
%TO.N,/12V*%
X141757500Y-145050000D03*
D15*
%TO.P,Accept1,2,Pin_2*%
X137797500Y-145050000D03*
%TD*%
D17*
%TO.P,MOSFET1,1,G*%
%TO.N,/Gate*%
X115000000Y-114000000D03*
D18*
%TO.P,MOSFET1,2,D*%
%TO.N,/Regulator*%
X115000000Y-111460000D03*
%TO.P,MOSFET1,3,S*%
%TO.N,/BA*%
X115000000Y-108920000D03*
%TD*%
D14*
%TO.P,INA1,1,Pin_1*%
%TO.N,/12V*%
X140500000Y-126540000D03*
D15*
%TO.P,INA1,2,Pin_2*%
%TO.N,/CRCT*%
X140500000Y-130500000D03*
%TD*%
D19*
%TO.P,CO_3V1,1*%
%TO.N,/3.3V*%
X125500000Y-63500000D03*
%TO.P,CO_3V1,2*%
%TO.N,/GND*%
X128000000Y-63500000D03*
%TD*%
D20*
%TO.P,LM1117,1,GND*%
%TO.N,/GND*%
X138665000Y-65480000D03*
D21*
%TO.P,LM1117,2,VO*%
%TO.N,/3.3V*%
X138665000Y-66750000D03*
%TO.P,LM1117,3,VI*%
%TO.N,/5V*%
X138665000Y-68020000D03*
%TD*%
D22*
%TO.P,J6,1,Pin_1*%
%TO.N,/12V*%
X113000000Y-127702500D03*
D15*
%TO.P,J6,2,Pin_2*%
%TO.N,/GND*%
X113000000Y-123742500D03*
%TD*%
D16*
%TO.P,J3,1,Pin_1*%
%TO.N,/GND*%
X125960000Y-145702500D03*
D15*
%TO.P,J3,2,Pin_2*%
%TO.N,/Motor*%
X122000000Y-145702500D03*
%TD*%
D19*
%TO.P,CI_3V1,1*%
%TO.N,/5V*%
X127750000Y-70500000D03*
%TO.P,CI_3V1,2*%
%TO.N,/GND*%
X125250000Y-70500000D03*
%TD*%
D16*
%TO.P,Motor_E1,1,Pin_1*%
%TO.N,/Motor*%
X115257500Y-145702500D03*
D15*
%TO.P,Motor_E1,2,Pin_2*%
%TO.N,/GND*%
X111297500Y-145702500D03*
%TD*%
D10*
%TO.P,NTRFC_5,1,Pin_1*%
%TO.N,/5V*%
X112975000Y-85250000D03*
D11*
%TO.P,NTRFC_5,2,Pin_2*%
%TO.N,/GND*%
X112975000Y-82750000D03*
%TD*%
D23*
%TO.P,F1,1*%
%TO.N,/12V*%
X124050000Y-126202500D03*
%TO.P,F1,2*%
%TO.N,/Motor*%
X129130000Y-126202500D03*
%TD*%
D10*
%TO.P,PLC_3,1,Pin_1*%
%TO.N,/GND*%
X113000000Y-68500000D03*
D11*
%TO.P,PLC_3,2,Pin_2*%
%TO.N,/3.3V*%
X113000000Y-66000000D03*
%TD*%
D24*
%TO.P,R1,1*%
%TO.N,/GND*%
X128095000Y-106500000D03*
D25*
%TO.P,R1,2*%
%TO.N,/Gate*%
X129995000Y-106500000D03*
%TD*%
D19*
%TO.P,Ruido1,1*%
%TO.N,/GND*%
X123050000Y-114702500D03*
%TO.P,Ruido1,2*%
%TO.N,/12V*%
X125050000Y-114702500D03*
%TD*%
D20*
%TO.P,LM7805,1,VO*%
%TO.N,/5V*%
X138640000Y-82230000D03*
D21*
%TO.P,LM7805,2,GND*%
%TO.N,/GND*%
X138640000Y-83500000D03*
%TO.P,LM7805,3,VI*%
%TO.N,/Regulator*%
X138640000Y-84770000D03*
%TD*%
D14*
%TO.P,J2,1,Pin_1*%
%TO.N,/BA*%
X140550000Y-99242500D03*
D15*
%TO.P,J2,2,Pin_2*%
%TO.N,/CRCT*%
X140550000Y-103202500D03*
%TD*%
D19*
%TO.P,CO_5V1,1*%
%TO.N,/5V*%
X127975000Y-81750000D03*
%TO.P,CO_5V1,2*%
%TO.N,/GND*%
X125475000Y-81750000D03*
%TD*%
%TO.P,CI_5V1,1*%
%TO.N,/Regulator*%
X128000000Y-89000000D03*
%TO.P,CI_5V1,2*%
%TO.N,/GND*%
X125500000Y-89000000D03*
%TD*%
M02*
